<svg width="70" height="70" viewBox="0 0 70 70" fill="none" xmlns="http://www.w3.org/2000/svg">
<g clip-path="url(#clip0_1_421)">
<path d="M3.58974 12.5642H66.4103C68.3929 12.5642 70 14.1714 70 16.154V53.8463C70 55.8289 68.3929 57.436 66.4103 57.436H3.58974C1.60722 57.436 0 55.8289 0 53.8463V16.154C0 14.1714 1.60722 12.5642 3.58974 12.5642Z" fill="#2557D6"/>
<path d="M0.0226655 33.7158H3.38276L4.14037 31.9649H5.83653L6.59217 33.7158H13.2034V32.3773L13.7936 33.7217H17.2256L17.8158 32.3574V33.7159H34.246L34.2384 30.8418H34.5563C34.7787 30.8492 34.8438 30.8689 34.8438 31.2211V33.7159H43.3415V33.0469C44.0271 33.3987 45.0932 33.7159 46.4958 33.7159H50.0709L50.8359 31.965H52.5321L53.2803 33.7159H60.1695V32.0528L61.2128 33.7159H66.7334V22.7214H61.2698V24.0198L60.505 22.7214H54.8986V24.0198L54.1961 22.7214H46.6236C45.3561 22.7214 44.2419 22.891 43.3417 23.3634V22.7214H38.116V23.3634C37.5432 22.8764 36.7628 22.7214 35.8949 22.7214H16.8028L15.5218 25.561L14.2063 22.7214H8.19301V24.0198L7.53232 22.7214H2.40392L0.0222168 27.9486V33.7157H0.022486L0.0226655 33.7158ZM21.2327 32.1301H19.2167L19.2092 25.9562L16.3576 32.13H14.6309L11.7719 25.9508V32.13H7.77203L7.01638 30.3717H2.92165L2.15838 32.13H0.0223963L3.54402 24.2472H6.46599L9.81064 31.7106V24.2472H13.0204L15.5941 29.5947L17.9583 24.2472H21.2326L21.2327 32.1301ZM6.3442 28.7357L4.99823 25.5931L3.6597 28.7357H6.3442ZM29.2557 32.1299H22.6862V24.2471H29.2557V25.8886H24.6529V27.3095H29.1455V28.9253H24.6528V30.4996H29.2557L29.2557 32.1299ZM38.5137 26.3701C38.5137 27.6269 37.6382 28.2763 37.1281 28.4712C37.5584 28.6281 37.9261 28.9054 38.101 29.1351C38.3786 29.5271 38.4266 29.8773 38.4266 30.5814V32.1299H36.4429L36.4354 31.1358C36.4354 30.6615 36.4828 29.9794 36.1251 29.6001C35.8377 29.3228 35.3997 29.2627 34.6916 29.2627H32.5806V32.13H30.6139V24.2471H35.1371C36.1421 24.2471 36.8827 24.2725 37.5184 24.6246C38.1406 24.9768 38.5137 25.4908 38.5137 26.3701ZM36.0279 27.5406C35.7575 27.6978 35.438 27.703 35.055 27.703H32.666V25.9521H35.0875C35.4301 25.9521 35.7878 25.9668 36.0202 26.0943C36.2752 26.2091 36.4331 26.4535 36.4331 26.7911C36.4331 27.1357 36.2829 27.413 36.0279 27.5406ZM41.6677 32.1299H39.6612V24.2471H41.6677V32.1299ZM64.9616 32.1299H62.1748L58.4473 26.2134V32.1299H54.4422L53.677 30.3716H49.5917L48.8495 32.1299H46.5477C45.592 32.1299 44.3815 31.9273 43.6963 31.258C43.0052 30.5887 42.6456 29.6821 42.6456 28.2487C42.6456 27.0796 42.8605 26.0108 43.7056 25.1662C44.3415 24.5371 45.3372 24.2471 46.6923 24.2471H48.5962V25.9361H46.7321C46.0145 25.9361 45.6091 26.0384 45.2189 26.4031C44.8837 26.735 44.6537 27.3624 44.6537 28.1887C44.6537 29.0332 44.8288 29.6422 45.1942 30.0399C45.4969 30.3519 46.0473 30.4465 46.5648 30.4465H47.448L50.2197 24.2473H53.1664L56.4961 31.7033V24.2474H59.4905L62.9473 29.7374V24.2474H64.9616V32.1299ZM53.0077 28.7358L51.6468 25.5932L50.2934 28.7358H53.0077ZM69.9729 44.7173C69.4953 45.3865 68.5644 45.7259 67.3042 45.7259H63.5064V44.0351H67.2888C67.664 44.0351 67.9265 43.9878 68.0847 43.8399C68.2341 43.7076 68.3184 43.5209 68.3172 43.3258C68.3172 43.0959 68.2217 42.9136 68.0769 42.8043C67.9342 42.6838 67.7266 42.6293 67.3839 42.6293C65.5376 42.5691 63.2338 42.6838 63.2338 40.1888C63.2338 39.0453 63.9915 37.8414 66.0553 37.8414H69.9725V36.2728H66.3328C65.2346 36.2728 64.4366 36.525 63.8716 36.9166V36.2727H58.4883C57.6272 36.2727 56.6168 36.4772 56.1389 36.9166V36.2727H46.5256V36.9166C45.7606 36.3879 44.4697 36.2727 43.8737 36.2727H37.5328V36.9166C36.9275 36.355 35.5816 36.2727 34.761 36.2727H27.6643L26.0405 37.9567L24.5194 36.2727H13.918V47.2744H24.3193L25.9927 45.5637L27.569 47.2744L33.9805 47.2799V44.6918H34.6106C35.4613 44.7044 36.4647 44.6714 37.3498 44.3049V47.274H42.6382V44.4065H42.8933C43.2189 44.4065 43.2509 44.4195 43.2509 44.731V47.2737H59.3159C60.3357 47.2737 61.4019 47.0236 61.9924 46.5696V47.2737H67.0881C68.1484 47.2737 69.1839 47.1312 69.9719 46.7667L69.9721 44.717L69.9729 44.7173ZM38.1193 40.4855C38.1193 42.6757 36.4137 43.128 34.6947 43.128H32.2409V45.7726H28.4186L25.997 43.1623L23.4804 45.7726H15.6905V37.8878H23.6L26.0196 40.4724L28.5212 37.8878H34.8051C36.3657 37.8878 38.1193 38.3018 38.1193 40.4855ZM22.4841 44.1142H17.6489V42.5454H21.9665V40.9367H17.6489V39.5031H22.5794L24.7304 41.8009L22.4841 44.1142ZM30.2748 45.017L27.2555 41.8051L30.2748 38.6955V45.017ZM34.7402 41.5111H32.1988V39.5031H34.763C35.473 39.5031 35.9659 39.7804 35.9659 40.4698C35.9659 41.1518 35.4958 41.5111 34.7402 41.5111ZM48.0545 37.8878H54.6182V39.5185H50.013V40.952H54.5057V42.5607H50.013V44.1294L54.6181 44.1366V45.7726H48.0543L48.0545 37.8878ZM45.531 42.1084C45.9688 42.2632 46.3266 42.5406 46.4943 42.7702C46.7721 43.1553 46.8122 43.5146 46.8202 44.2095V45.7726H44.8456V44.7862C44.8456 44.3118 44.8933 43.6094 44.5278 43.2427C44.2405 42.9603 43.8024 42.8928 43.0851 42.8928H40.9833V45.7727H39.0071V37.8879H43.5476C44.5431 37.8879 45.2682 37.9301 45.9138 38.26C46.5344 38.6193 46.9248 39.1114 46.9248 40.011C46.9247 41.2694 46.0486 41.9116 45.531 42.1084ZM44.4195 41.1116C44.1564 41.2612 43.8312 41.2741 43.4487 41.2741H41.0595V39.5033H43.481C43.8312 39.5033 44.1816 39.5105 44.4195 39.6457C44.6744 39.7734 44.8268 40.0178 44.8268 40.355C44.8268 40.6922 44.6743 40.964 44.4195 41.1116ZM62.1726 41.6139C62.5558 41.9934 62.7608 42.4728 62.7608 43.2843C62.7608 44.9804 61.655 45.7723 59.6714 45.7723H55.8411V44.0815H59.6561C60.0292 44.0815 60.2937 44.0344 60.4593 43.8863C60.5947 43.7644 60.6917 43.5872 60.6917 43.3722C60.6917 43.1423 60.5867 42.9601 60.4516 42.8507C60.3013 42.7304 60.0939 42.6757 59.7513 42.6757C57.9122 42.6156 55.609 42.7304 55.609 40.2354C55.609 39.0917 56.3589 37.8879 58.4207 37.8879H62.3633V39.5661H58.7558C58.3983 39.5661 58.1658 39.5791 57.968 39.7086C57.7526 39.8362 57.6727 40.0257 57.6727 40.2756C57.6727 40.5731 57.8555 40.7755 58.103 40.8631C58.3104 40.9322 58.5333 40.9524 58.8682 40.9524L59.9269 40.9799C60.9944 41.0046 61.7272 41.1816 62.1726 41.6139ZM69.9763 39.5031H66.3921C66.0344 39.5031 65.7964 39.5161 65.5963 39.6456C65.3889 39.7733 65.309 39.9627 65.309 40.2129C65.309 40.5103 65.4841 40.7126 65.7389 40.8002C65.9464 40.8694 66.1693 40.8896 66.4967 40.8896L67.5627 40.9169C68.6381 40.9423 69.356 41.1195 69.7937 41.5515C69.8737 41.6117 69.9214 41.6791 69.9762 41.7467V39.5031H69.9763Z" fill="white"/>
</g>
<defs>
<clipPath id="clip0_1_421">
<rect width="70" height="70" fill="white"/>
</clipPath>
</defs>
</svg>
