<svg width="69" height="70" viewBox="0 0 69 70" fill="none" xmlns="http://www.w3.org/2000/svg">
<g clip-path="url(#clip0_1_440)">
<path d="M63.0857 11.5H5.91423C2.92005 11.5 0.492798 13.9624 0.492798 17V53C0.492798 56.0376 2.92005 58.5 5.91423 58.5H63.0857C66.0798 58.5 68.5071 56.0376 68.5071 53V17C68.5071 13.9624 66.0798 11.5 63.0857 11.5Z" fill="white" stroke="#D9D9D9" stroke-width="2"/>
<path fill-rule="evenodd" clip-rule="evenodd" d="M18.8864 27.6863C18.3073 28.3901 17.3807 28.9452 16.454 28.8659C16.3382 27.9143 16.7919 26.9032 17.3227 26.2787C17.9019 25.5551 18.9154 25.0397 19.7359 25C19.8324 25.9913 19.456 26.9627 18.8864 27.6863ZM19.7262 29.0542C18.9098 29.006 18.1649 29.3064 17.5632 29.549C17.176 29.7051 16.8482 29.8373 16.5987 29.8373C16.3187 29.8373 15.9774 29.6981 15.594 29.5417C15.0917 29.3368 14.5174 29.1025 13.9153 29.1137C12.535 29.1335 11.2512 29.9365 10.5465 31.2152C9.09862 33.7726 10.1701 37.5593 11.5697 39.6409C12.255 40.6718 13.0755 41.8018 14.1566 41.7622C14.6322 41.7438 14.9743 41.5947 15.3284 41.4404C15.7361 41.2628 16.1595 41.0782 16.8208 41.0782C17.459 41.0782 17.8639 41.2579 18.2527 41.4305C18.6223 41.5945 18.9772 41.752 19.5042 41.7424C20.6238 41.7225 21.3285 40.7115 22.0138 39.6806C22.7534 38.5741 23.0785 37.4943 23.1278 37.3304L23.1336 37.3114C23.1336 37.3114 23.1232 37.3059 23.1071 37.2984C22.8598 37.1821 20.9701 36.2937 20.9521 33.9114C20.9339 31.9118 22.4509 30.8987 22.6897 30.7392C22.7042 30.7295 22.7141 30.723 22.7185 30.7196C21.7532 29.2525 20.2474 29.0939 19.7262 29.0542ZM27.4773 41.6333V26.1796H33.1241C36.0392 26.1796 38.0759 28.2414 38.0759 31.2548C38.0759 34.2683 36.0006 36.3499 33.0469 36.3499H29.8133V41.6333H27.4773ZM29.8131 28.2018H32.5061C34.5332 28.2018 35.6915 29.312 35.6915 31.2648C35.6915 33.2175 34.5332 34.3377 32.4965 34.3377H29.8131V28.2018ZM45.7884 39.7797C45.1707 40.989 43.8096 41.7523 42.3425 41.7523C40.1706 41.7523 38.6551 40.424 38.6551 38.4217C38.6551 36.4391 40.1224 35.2992 42.8348 35.1307L45.7498 34.9522V34.0998C45.7498 32.8409 44.9486 32.1569 43.5201 32.1569C42.3425 32.1569 41.4833 32.7814 41.3097 33.733H39.2053C39.2729 31.7307 41.1069 30.2735 43.5876 30.2735C46.2614 30.2735 47.9989 31.7108 47.9989 33.9412V41.6333H45.8367V39.7797H45.7884ZM42.9697 39.9185C41.7245 39.9185 40.933 39.3039 40.933 38.3622C40.933 37.3908 41.6956 36.8257 43.1531 36.7365L45.7497 36.568V37.4403C45.7497 38.8876 44.5528 39.9185 42.9697 39.9185ZM55.1707 42.238C54.2344 44.9442 53.163 45.8363 50.885 45.8363C50.7112 45.8363 50.132 45.8165 49.9969 45.7768V43.9232C50.1417 43.943 50.4989 43.9628 50.6822 43.9628C51.715 43.9628 52.2943 43.5167 52.6514 42.357L52.8637 41.673L48.9062 30.4222H51.3483L54.0993 39.5517H54.1475L56.8985 30.4222H59.2731L55.1707 42.238Z" fill="black"/>
</g>
<defs>
<clipPath id="clip0_1_440">
<rect width="69" height="70" fill="white"/>
</clipPath>
</defs>
</svg>
