<svg width="20" height="21" viewBox="0 0 20 21" fill="none" xmlns="http://www.w3.org/2000/svg">
<path fill-rule="evenodd" clip-rule="evenodd" d="M4.93756 5.5H15.0626V6.125L15.0655 5.50001C15.3712 5.50144 15.6659 5.61415 15.8945 5.81706C16.1231 6.01996 16.27 6.29919 16.3078 6.60253L16.3088 6.61077L17.418 16.6094C17.4376 16.7835 17.4205 16.9602 17.3676 17.1273C17.3147 17.2945 17.2272 17.4487 17.1107 17.5798C16.9943 17.711 16.8516 17.8162 16.6919 17.8886C16.5321 17.9609 16.359 17.9989 16.1836 18L16.1798 18H3.81653C3.64116 17.9989 3.46798 17.9609 3.30825 17.8886C3.14851 17.8162 3.0058 17.711 2.88938 17.5798C2.77296 17.4487 2.68544 17.2945 2.63251 17.1273C2.57967 16.9604 2.56248 16.7842 2.58206 16.6103L2.58216 16.6094L3.69229 6.60253C3.73002 6.29918 3.87699 6.01996 4.10562 5.81706C4.33425 5.61415 4.62895 5.50144 4.93463 5.50001L4.93756 5.5ZM15.0599 6.75H4.94021C4.93841 6.75008 4.9367 6.75077 4.93535 6.75196C4.93414 6.75304 4.9333 6.75446 4.93293 6.75602L3.82422 16.75H16.1759L15.0672 6.75603C15.0668 6.75446 15.066 6.75304 15.0648 6.75196C15.0634 6.75077 15.0617 6.75008 15.0599 6.75Z" fill="white"/>
<path fill-rule="evenodd" clip-rule="evenodd" d="M10 3.625C9.33696 3.625 8.70107 3.88839 8.23223 4.35723C7.76339 4.82607 7.5 5.46196 7.5 6.125V8.625C7.5 8.97018 7.22018 9.25 6.875 9.25C6.52982 9.25 6.25 8.97018 6.25 8.625V6.125C6.25 5.13044 6.64509 4.17661 7.34835 3.47335C8.05161 2.77009 9.00544 2.375 10 2.375C10.9946 2.375 11.9484 2.77009 12.6517 3.47335C13.3549 4.17661 13.75 5.13044 13.75 6.125V8.625C13.75 8.97018 13.4702 9.25 13.125 9.25C12.7798 9.25 12.5 8.97018 12.5 8.625V6.125C12.5 5.46196 12.2366 4.82607 11.7678 4.35723C11.2989 3.88839 10.663 3.625 10 3.625Z" fill="white"/>
</svg>
