<svg width="475" height="335" viewBox="0 0 475 335" fill="none" xmlns="http://www.w3.org/2000/svg">
<g clip-path="url(#clip0_1_110)">
<rect width="475" height="335" rx="20" fill="white"/>
<path d="M22.75 60.75C23.0167 62.2167 23.6167 63.35 24.55 64.15C25.5167 64.9167 26.8 65.3 28.4 65.3C30.4667 65.3 31.9667 64.45 32.9 62.75C33.8333 61.0167 34.3 58.1167 34.3 54.05C33.5333 55.1167 32.45 55.95 31.05 56.55C29.6833 57.15 28.2 57.45 26.6 57.45C24.4667 57.45 22.5333 57.0167 20.8 56.15C19.1 55.25 17.75 53.9333 16.75 52.2C15.75 50.4333 15.25 48.3 15.25 45.8C15.25 42.1 16.35 39.1667 18.55 37C20.75 34.8 23.75 33.7 27.55 33.7C32.2833 33.7 35.6167 35.2167 37.55 38.25C39.5167 41.2833 40.5 45.85 40.5 51.95C40.5 56.2833 40.1167 59.8333 39.35 62.6C38.6167 65.3667 37.3333 67.4667 35.5 68.9C33.7 70.3333 31.2333 71.05 28.1 71.05C25.6333 71.05 23.5333 70.5833 21.8 69.65C20.0667 68.6833 18.7333 67.4333 17.8 65.9C16.9 64.3333 16.3833 62.6167 16.25 60.75H22.75ZM28.05 51.75C29.7833 51.75 31.15 51.2167 32.15 50.15C33.15 49.0833 33.65 47.65 33.65 45.85C33.65 43.8833 33.1167 42.3667 32.05 41.3C31.0167 40.2 29.6 39.65 27.8 39.65C26 39.65 24.5667 40.2167 23.5 41.35C22.4667 42.45 21.95 43.9167 21.95 45.75C21.95 47.5167 22.45 48.9667 23.45 50.1C24.4833 51.2 26.0167 51.75 28.05 51.75ZM64.8488 43.65C64.5155 42.25 63.9322 41.2 63.0988 40.5C62.2988 39.8 61.1322 39.45 59.5988 39.45C57.2988 39.45 55.5988 40.3833 54.4988 42.25C53.4322 44.0833 52.8822 47.0833 52.8488 51.25C53.6488 49.9167 54.8155 48.8833 56.3488 48.15C57.8822 47.3833 59.5488 47 61.3488 47C63.5155 47 65.4322 47.4667 67.0988 48.4C68.7655 49.3333 70.0655 50.7 70.9988 52.5C71.9322 54.2667 72.3988 56.4 72.3988 58.9C72.3988 61.2667 71.9155 63.3833 70.9488 65.25C70.0155 67.0833 68.6322 68.5167 66.7988 69.55C64.9655 70.5833 62.7822 71.1 60.2488 71.1C56.7822 71.1 54.0488 70.3333 52.0488 68.8C50.0822 67.2667 48.6988 65.1333 47.8988 62.4C47.1322 59.6333 46.7488 56.2333 46.7488 52.2C46.7488 46.1 47.7988 41.5 49.8988 38.4C51.9988 35.2667 55.3155 33.7 59.8488 33.7C63.3488 33.7 66.0655 34.65 67.9988 36.55C69.9322 38.45 71.0488 40.8167 71.3488 43.65H64.8488ZM59.7488 52.75C57.9822 52.75 56.4988 53.2667 55.2988 54.3C54.0988 55.3333 53.4988 56.8333 53.4988 58.8C53.4988 60.7667 54.0488 62.3167 55.1488 63.45C56.2822 64.5833 57.8655 65.15 59.8988 65.15C61.6988 65.15 63.1155 64.6 64.1488 63.5C65.2155 62.4 65.7488 60.9167 65.7488 59.05C65.7488 57.1167 65.2322 55.5833 64.1988 54.45C63.1988 53.3167 61.7155 52.75 59.7488 52.75ZM77.1313 43.5C77.1313 40.9667 77.8646 38.9833 79.3313 37.55C80.8313 36.1167 82.7479 35.4 85.0813 35.4C87.4146 35.4 89.3146 36.1167 90.7813 37.55C92.2813 38.9833 93.0313 40.9667 93.0313 43.5C93.0313 46.0667 92.2813 48.0667 90.7813 49.5C89.3146 50.9333 87.4146 51.65 85.0813 51.65C82.7479 51.65 80.8313 50.9333 79.3313 49.5C77.8646 48.0667 77.1313 46.0667 77.1313 43.5ZM109.231 36L89.5813 71H82.7813L102.381 36H109.231ZM85.0313 39.6C83.1979 39.6 82.2813 40.9 82.2813 43.5C82.2813 46.1333 83.1979 47.45 85.0313 47.45C85.9313 47.45 86.6313 47.1333 87.1313 46.5C87.6313 45.8333 87.8813 44.8333 87.8813 43.5C87.8813 40.9 86.9313 39.6 85.0313 39.6ZM99.0813 63.45C99.0813 60.8833 99.8146 58.9 101.281 57.5C102.781 56.0667 104.698 55.35 107.031 55.35C109.365 55.35 111.248 56.0667 112.681 57.5C114.148 58.9 114.881 60.8833 114.881 63.45C114.881 66.0167 114.148 68.0167 112.681 69.45C111.248 70.8833 109.365 71.6 107.031 71.6C104.665 71.6 102.748 70.8833 101.281 69.45C99.8146 68.0167 99.0813 66.0167 99.0813 63.45ZM106.981 59.55C105.081 59.55 104.131 60.85 104.131 63.45C104.131 66.0833 105.081 67.4 106.981 67.4C108.848 67.4 109.781 66.0833 109.781 63.45C109.781 60.85 108.848 59.55 106.981 59.55Z" fill="#651520"/>
<path d="M127.056 47.144C126.235 47.144 125.488 46.9573 124.816 46.584C124.155 46.2107 123.632 45.6827 123.248 45C122.875 44.3067 122.688 43.5067 122.688 42.6C122.688 41.704 122.88 40.9147 123.264 40.232C123.659 39.5387 124.192 39.0107 124.864 38.648C125.536 38.2747 126.288 38.088 127.12 38.088C127.952 38.088 128.704 38.2747 129.376 38.648C130.048 39.0107 130.576 39.5333 130.96 40.216C131.355 40.8987 131.552 41.6933 131.552 42.6C131.552 43.5067 131.349 44.3067 130.944 45C130.549 45.6827 130.011 46.2107 129.328 46.584C128.645 46.9573 127.888 47.144 127.056 47.144ZM127.056 45.864C127.579 45.864 128.069 45.7413 128.528 45.496C128.987 45.2507 129.355 44.8827 129.632 44.392C129.92 43.9013 130.064 43.304 130.064 42.6C130.064 41.896 129.925 41.2987 129.648 40.808C129.371 40.3173 129.008 39.9547 128.56 39.72C128.112 39.4747 127.627 39.352 127.104 39.352C126.571 39.352 126.08 39.4747 125.632 39.72C125.195 39.9547 124.843 40.3173 124.576 40.808C124.309 41.2987 124.176 41.896 124.176 42.6C124.176 43.3147 124.304 43.9173 124.56 44.408C124.827 44.8987 125.179 45.2667 125.616 45.512C126.053 45.7467 126.533 45.864 127.056 45.864ZM137.034 39.432H135.194V47H133.738V39.432H132.602V38.232H133.738V37.608C133.738 36.6267 133.989 35.912 134.49 35.464C135.002 35.0053 135.818 34.776 136.938 34.776V35.992C136.298 35.992 135.845 36.12 135.578 36.376C135.322 36.6213 135.194 37.032 135.194 37.608V38.232H137.034V39.432ZM150.774 38.232V47H149.318V45.704C149.04 46.152 148.651 46.504 148.15 46.76C147.659 47.0053 147.115 47.128 146.518 47.128C145.835 47.128 145.222 46.9893 144.678 46.712C144.134 46.424 143.702 45.9973 143.382 45.432C143.072 44.8667 142.918 44.1787 142.918 43.368V38.232H144.358V43.176C144.358 44.04 144.576 44.7067 145.014 45.176C145.451 45.6347 146.048 45.864 146.806 45.864C147.584 45.864 148.198 45.624 148.646 45.144C149.094 44.664 149.318 43.9653 149.318 43.048V38.232H150.774ZM156.336 47.144C155.664 47.144 155.061 47.032 154.528 46.808C153.995 46.5733 153.573 46.2533 153.264 45.848C152.955 45.432 152.784 44.9573 152.752 44.424H154.256C154.299 44.8613 154.501 45.2187 154.864 45.496C155.237 45.7733 155.723 45.912 156.32 45.912C156.875 45.912 157.312 45.7893 157.632 45.544C157.952 45.2987 158.112 44.9893 158.112 44.616C158.112 44.232 157.941 43.9493 157.6 43.768C157.259 43.576 156.731 43.3893 156.016 43.208C155.365 43.0373 154.832 42.8667 154.416 42.696C154.011 42.5147 153.659 42.2533 153.36 41.912C153.072 41.56 152.928 41.1013 152.928 40.536C152.928 40.088 153.061 39.6773 153.328 39.304C153.595 38.9307 153.973 38.6373 154.464 38.424C154.955 38.2 155.515 38.088 156.144 38.088C157.115 38.088 157.899 38.3333 158.496 38.824C159.093 39.3147 159.413 39.9867 159.456 40.84H158C157.968 40.3813 157.781 40.0133 157.44 39.736C157.109 39.4587 156.661 39.32 156.096 39.32C155.573 39.32 155.157 39.432 154.848 39.656C154.539 39.88 154.384 40.1733 154.384 40.536C154.384 40.824 154.475 41.064 154.656 41.256C154.848 41.4373 155.083 41.5867 155.36 41.704C155.648 41.8107 156.043 41.9333 156.544 42.072C157.173 42.2427 157.685 42.4133 158.08 42.584C158.475 42.744 158.811 42.9893 159.088 43.32C159.376 43.6507 159.525 44.0827 159.536 44.616C159.536 45.096 159.403 45.528 159.136 45.912C158.869 46.296 158.491 46.6 158 46.824C157.52 47.0373 156.965 47.144 156.336 47.144ZM169.591 42.28C169.591 42.5573 169.575 42.8507 169.543 43.16H162.535C162.589 44.024 162.882 44.7013 163.415 45.192C163.959 45.672 164.615 45.912 165.383 45.912C166.013 45.912 166.535 45.768 166.951 45.48C167.378 45.1813 167.677 44.7867 167.847 44.296H169.415C169.181 45.1387 168.711 45.8267 168.007 46.36C167.303 46.8827 166.429 47.144 165.383 47.144C164.551 47.144 163.805 46.9573 163.143 46.584C162.493 46.2107 161.981 45.6827 161.607 45C161.234 44.3067 161.047 43.5067 161.047 42.6C161.047 41.6933 161.229 40.8987 161.591 40.216C161.954 39.5333 162.461 39.0107 163.111 38.648C163.773 38.2747 164.53 38.088 165.383 38.088C166.215 38.088 166.951 38.2693 167.591 38.632C168.231 38.9947 168.722 39.496 169.063 40.136C169.415 40.7653 169.591 41.48 169.591 42.28ZM168.087 41.976C168.087 41.4213 167.965 40.9467 167.719 40.552C167.474 40.1467 167.138 39.8427 166.711 39.64C166.295 39.4267 165.831 39.32 165.319 39.32C164.583 39.32 163.954 39.5547 163.431 40.024C162.919 40.4933 162.626 41.144 162.551 41.976H168.087ZM172.969 39.656C173.225 39.1547 173.588 38.7653 174.057 38.488C174.537 38.2107 175.119 38.072 175.801 38.072V39.576H175.417C173.785 39.576 172.969 40.4613 172.969 42.232V47H171.513V38.232H172.969V39.656ZM180.586 47.144C179.914 47.144 179.311 47.032 178.778 46.808C178.245 46.5733 177.823 46.2533 177.514 45.848C177.205 45.432 177.034 44.9573 177.002 44.424H178.506C178.549 44.8613 178.751 45.2187 179.114 45.496C179.487 45.7733 179.973 45.912 180.57 45.912C181.125 45.912 181.562 45.7893 181.882 45.544C182.202 45.2987 182.362 44.9893 182.362 44.616C182.362 44.232 182.191 43.9493 181.85 43.768C181.509 43.576 180.981 43.3893 180.266 43.208C179.615 43.0373 179.082 42.8667 178.666 42.696C178.261 42.5147 177.909 42.2533 177.61 41.912C177.322 41.56 177.178 41.1013 177.178 40.536C177.178 40.088 177.311 39.6773 177.578 39.304C177.845 38.9307 178.223 38.6373 178.714 38.424C179.205 38.2 179.765 38.088 180.394 38.088C181.365 38.088 182.149 38.3333 182.746 38.824C183.343 39.3147 183.663 39.9867 183.706 40.84H182.25C182.218 40.3813 182.031 40.0133 181.69 39.736C181.359 39.4587 180.911 39.32 180.346 39.32C179.823 39.32 179.407 39.432 179.098 39.656C178.789 39.88 178.634 40.1733 178.634 40.536C178.634 40.824 178.725 41.064 178.906 41.256C179.098 41.4373 179.333 41.5867 179.61 41.704C179.898 41.8107 180.293 41.9333 180.794 42.072C181.423 42.2427 181.935 42.4133 182.33 42.584C182.725 42.744 183.061 42.9893 183.338 43.32C183.626 43.6507 183.775 44.0827 183.786 44.616C183.786 45.096 183.653 45.528 183.386 45.912C183.119 46.296 182.741 46.6 182.25 46.824C181.77 47.0373 181.215 47.144 180.586 47.144ZM193.675 39.432H191.835V47H190.379V39.432H189.243V38.232H190.379V37.608C190.379 36.6267 190.63 35.912 191.131 35.464C191.643 35.0053 192.459 34.776 193.579 34.776V35.992C192.939 35.992 192.486 36.12 192.219 36.376C191.963 36.6213 191.835 37.032 191.835 37.608V38.232H193.675V39.432ZM203.373 42.28C203.373 42.5573 203.357 42.8507 203.325 43.16H196.317C196.37 44.024 196.663 44.7013 197.197 45.192C197.741 45.672 198.397 45.912 199.165 45.912C199.794 45.912 200.317 45.768 200.733 45.48C201.159 45.1813 201.458 44.7867 201.629 44.296H203.197C202.962 45.1387 202.493 45.8267 201.789 46.36C201.085 46.8827 200.21 47.144 199.165 47.144C198.333 47.144 197.586 46.9573 196.925 46.584C196.274 46.2107 195.762 45.6827 195.389 45C195.015 44.3067 194.829 43.5067 194.829 42.6C194.829 41.6933 195.01 40.8987 195.373 40.216C195.735 39.5333 196.242 39.0107 196.893 38.648C197.554 38.2747 198.311 38.088 199.165 38.088C199.997 38.088 200.733 38.2693 201.373 38.632C202.013 38.9947 202.503 39.496 202.845 40.136C203.197 40.7653 203.373 41.48 203.373 42.28ZM201.869 41.976C201.869 41.4213 201.746 40.9467 201.501 40.552C201.255 40.1467 200.919 39.8427 200.493 39.64C200.077 39.4267 199.613 39.32 199.101 39.32C198.365 39.32 197.735 39.5547 197.213 40.024C196.701 40.4933 196.407 41.144 196.333 41.976H201.869ZM206.751 35.16V47H205.295V35.16H206.751ZM211.008 39.432V44.6C211.008 45.0267 211.099 45.3307 211.28 45.512C211.461 45.6827 211.776 45.768 212.224 45.768H213.296V47H211.984C211.173 47 210.565 46.8133 210.16 46.44C209.755 46.0667 209.552 45.4533 209.552 44.6V39.432H208.416V38.232H209.552V36.024H211.008V38.232H213.296V39.432H211.008ZM227.326 42.28C227.326 42.5573 227.31 42.8507 227.278 43.16H220.27C220.323 44.024 220.616 44.7013 221.15 45.192C221.694 45.672 222.35 45.912 223.118 45.912C223.747 45.912 224.27 45.768 224.686 45.48C225.112 45.1813 225.411 44.7867 225.582 44.296H227.15C226.915 45.1387 226.446 45.8267 225.742 46.36C225.038 46.8827 224.163 47.144 223.118 47.144C222.286 47.144 221.539 46.9573 220.878 46.584C220.227 46.2107 219.715 45.6827 219.342 45C218.968 44.3067 218.782 43.5067 218.782 42.6C218.782 41.6933 218.963 40.8987 219.326 40.216C219.688 39.5333 220.195 39.0107 220.846 38.648C221.507 38.2747 222.264 38.088 223.118 38.088C223.95 38.088 224.686 38.2693 225.326 38.632C225.966 38.9947 226.456 39.496 226.798 40.136C227.15 40.7653 227.326 41.48 227.326 42.28ZM225.822 41.976C225.822 41.4213 225.699 40.9467 225.454 40.552C225.208 40.1467 224.872 39.8427 224.446 39.64C224.03 39.4267 223.566 39.32 223.054 39.32C222.318 39.32 221.688 39.5547 221.166 40.024C220.654 40.4933 220.36 41.144 220.286 41.976H225.822ZM232.816 39.432H230.976V47H229.52V39.432H228.384V38.232H229.52V37.608C229.52 36.6267 229.77 35.912 230.272 35.464C230.784 35.0053 231.6 34.776 232.72 34.776V35.992C232.08 35.992 231.626 36.12 231.36 36.376C231.104 36.6213 230.976 37.032 230.976 37.608V38.232H232.816V39.432ZM238.081 39.432H236.241V47H234.785V39.432H233.649V38.232H234.785V37.608C234.785 36.6267 235.036 35.912 235.537 35.464C236.049 35.0053 236.865 34.776 237.985 34.776V35.992C237.345 35.992 236.892 36.12 236.625 36.376C236.369 36.6213 236.241 37.032 236.241 37.608V38.232H238.081V39.432ZM247.779 42.28C247.779 42.5573 247.763 42.8507 247.731 43.16H240.723C240.776 44.024 241.07 44.7013 241.603 45.192C242.147 45.672 242.803 45.912 243.571 45.912C244.2 45.912 244.723 45.768 245.139 45.48C245.566 45.1813 245.864 44.7867 246.035 44.296H247.603C247.368 45.1387 246.899 45.8267 246.195 46.36C245.491 46.8827 244.616 47.144 243.571 47.144C242.739 47.144 241.992 46.9573 241.331 46.584C240.68 46.2107 240.168 45.6827 239.795 45C239.422 44.3067 239.235 43.5067 239.235 42.6C239.235 41.6933 239.416 40.8987 239.779 40.216C240.142 39.5333 240.648 39.0107 241.299 38.648C241.96 38.2747 242.718 38.088 243.571 38.088C244.403 38.088 245.139 38.2693 245.779 38.632C246.419 38.9947 246.91 39.496 247.251 40.136C247.603 40.7653 247.779 41.48 247.779 42.28ZM246.275 41.976C246.275 41.4213 246.152 40.9467 245.907 40.552C245.662 40.1467 245.326 39.8427 244.899 39.64C244.483 39.4267 244.019 39.32 243.507 39.32C242.771 39.32 242.142 39.5547 241.619 40.024C241.107 40.4933 240.814 41.144 240.739 41.976H246.275ZM249.157 42.6C249.157 41.6933 249.338 40.904 249.701 40.232C250.063 39.5493 250.565 39.0213 251.205 38.648C251.855 38.2747 252.597 38.088 253.429 38.088C254.506 38.088 255.391 38.3493 256.085 38.872C256.789 39.3947 257.253 40.12 257.477 41.048H255.909C255.759 40.5147 255.466 40.0933 255.029 39.784C254.602 39.4747 254.069 39.32 253.429 39.32C252.597 39.32 251.925 39.608 251.413 40.184C250.901 40.7493 250.645 41.5547 250.645 42.6C250.645 43.656 250.901 44.472 251.413 45.048C251.925 45.624 252.597 45.912 253.429 45.912C254.069 45.912 254.602 45.7627 255.029 45.464C255.455 45.1653 255.749 44.7387 255.909 44.184H257.477C257.242 45.08 256.773 45.8 256.069 46.344C255.365 46.8773 254.485 47.144 253.429 47.144C252.597 47.144 251.855 46.9573 251.205 46.584C250.565 46.2107 250.063 45.6827 249.701 45C249.338 44.3173 249.157 43.5173 249.157 42.6ZM261.196 39.432V44.6C261.196 45.0267 261.286 45.3307 261.468 45.512C261.649 45.6827 261.964 45.768 262.411 45.768H263.484V47H262.172C261.361 47 260.753 46.8133 260.348 46.44C259.942 46.0667 259.74 45.4533 259.74 44.6V39.432H258.604V38.232H259.74V36.024H261.196V38.232H263.484V39.432H261.196ZM266 36.808C265.722 36.808 265.488 36.712 265.296 36.52C265.104 36.328 265.008 36.0933 265.008 35.816C265.008 35.5387 265.104 35.304 265.296 35.112C265.488 34.92 265.722 34.824 266 34.824C266.266 34.824 266.49 34.92 266.672 35.112C266.864 35.304 266.96 35.5387 266.96 35.816C266.96 36.0933 266.864 36.328 266.672 36.52C266.49 36.712 266.266 36.808 266 36.808ZM266.704 38.232V47H265.248V38.232H266.704ZM272.449 45.656L275.169 38.232H276.721L273.281 47H271.585L268.145 38.232H269.713L272.449 45.656ZM286.154 42.28C286.154 42.5573 286.138 42.8507 286.106 43.16H279.098C279.151 44.024 279.445 44.7013 279.978 45.192C280.522 45.672 281.178 45.912 281.946 45.912C282.575 45.912 283.098 45.768 283.514 45.48C283.941 45.1813 284.239 44.7867 284.41 44.296H285.978C285.743 45.1387 285.274 45.8267 284.57 46.36C283.866 46.8827 282.991 47.144 281.946 47.144C281.114 47.144 280.367 46.9573 279.706 46.584C279.055 46.2107 278.543 45.6827 278.17 45C277.797 44.3067 277.61 43.5067 277.61 42.6C277.61 41.6933 277.791 40.8987 278.154 40.216C278.517 39.5333 279.023 39.0107 279.674 38.648C280.335 38.2747 281.093 38.088 281.946 38.088C282.778 38.088 283.514 38.2693 284.154 38.632C284.794 38.9947 285.285 39.496 285.626 40.136C285.978 40.7653 286.154 41.48 286.154 42.28ZM284.65 41.976C284.65 41.4213 284.527 40.9467 284.282 40.552C284.037 40.1467 283.701 39.8427 283.274 39.64C282.858 39.4267 282.394 39.32 281.882 39.32C281.146 39.32 280.517 39.5547 279.994 40.024C279.482 40.4933 279.189 41.144 279.114 41.976H284.65ZM293.797 39.656C294.053 39.1547 294.416 38.7653 294.885 38.488C295.365 38.2107 295.947 38.072 296.629 38.072V39.576H296.245C294.613 39.576 293.797 40.4613 293.797 42.232V47H292.341V38.232H293.797V39.656ZM306.31 42.28C306.31 42.5573 306.294 42.8507 306.262 43.16H299.254C299.307 44.024 299.601 44.7013 300.134 45.192C300.678 45.672 301.334 45.912 302.102 45.912C302.731 45.912 303.254 45.768 303.67 45.48C304.097 45.1813 304.395 44.7867 304.566 44.296H306.134C305.899 45.1387 305.43 45.8267 304.726 46.36C304.022 46.8827 303.147 47.144 302.102 47.144C301.27 47.144 300.523 46.9573 299.862 46.584C299.211 46.2107 298.699 45.6827 298.326 45C297.953 44.3067 297.766 43.5067 297.766 42.6C297.766 41.6933 297.947 40.8987 298.31 40.216C298.673 39.5333 299.179 39.0107 299.83 38.648C300.491 38.2747 301.249 38.088 302.102 38.088C302.934 38.088 303.67 38.2693 304.31 38.632C304.95 38.9947 305.441 39.496 305.782 40.136C306.134 40.7653 306.31 41.48 306.31 42.28ZM304.806 41.976C304.806 41.4213 304.683 40.9467 304.438 40.552C304.193 40.1467 303.857 39.8427 303.43 39.64C303.014 39.4267 302.55 39.32 302.038 39.32C301.302 39.32 300.673 39.5547 300.15 40.024C299.638 40.4933 299.345 41.144 299.27 41.976H304.806ZM311.336 47.144C310.664 47.144 310.061 47.032 309.528 46.808C308.995 46.5733 308.573 46.2533 308.264 45.848C307.955 45.432 307.784 44.9573 307.752 44.424H309.256C309.299 44.8613 309.501 45.2187 309.864 45.496C310.237 45.7733 310.723 45.912 311.32 45.912C311.875 45.912 312.312 45.7893 312.632 45.544C312.952 45.2987 313.112 44.9893 313.112 44.616C313.112 44.232 312.941 43.9493 312.6 43.768C312.259 43.576 311.731 43.3893 311.016 43.208C310.365 43.0373 309.832 42.8667 309.416 42.696C309.011 42.5147 308.659 42.2533 308.36 41.912C308.072 41.56 307.928 41.1013 307.928 40.536C307.928 40.088 308.061 39.6773 308.328 39.304C308.595 38.9307 308.973 38.6373 309.464 38.424C309.955 38.2 310.515 38.088 311.144 38.088C312.115 38.088 312.899 38.3333 313.496 38.824C314.093 39.3147 314.413 39.9867 314.456 40.84H313C312.968 40.3813 312.781 40.0133 312.44 39.736C312.109 39.4587 311.661 39.32 311.096 39.32C310.573 39.32 310.157 39.432 309.848 39.656C309.539 39.88 309.384 40.1733 309.384 40.536C309.384 40.824 309.475 41.064 309.656 41.256C309.848 41.4373 310.083 41.5867 310.36 41.704C310.648 41.8107 311.043 41.9333 311.544 42.072C312.173 42.2427 312.685 42.4133 313.08 42.584C313.475 42.744 313.811 42.9893 314.088 43.32C314.376 43.6507 314.525 44.0827 314.536 44.616C314.536 45.096 314.403 45.528 314.136 45.912C313.869 46.296 313.491 46.6 313 46.824C312.52 47.0373 311.965 47.144 311.336 47.144ZM324.367 38.232V47H322.911V45.704C322.634 46.152 322.245 46.504 321.743 46.76C321.253 47.0053 320.709 47.128 320.111 47.128C319.429 47.128 318.815 46.9893 318.271 46.712C317.727 46.424 317.295 45.9973 316.975 45.432C316.666 44.8667 316.511 44.1787 316.511 43.368V38.232H317.951V43.176C317.951 44.04 318.17 44.7067 318.607 45.176C319.045 45.6347 319.642 45.864 320.399 45.864C321.178 45.864 321.791 45.624 322.239 45.144C322.687 44.664 322.911 43.9653 322.911 43.048V38.232H324.367ZM328.282 35.16V47H326.826V35.16H328.282ZM332.539 39.432V44.6C332.539 45.0267 332.63 45.3307 332.811 45.512C332.993 45.6827 333.307 45.768 333.755 45.768H334.827V47H333.515C332.705 47 332.097 46.8133 331.691 46.44C331.286 46.0667 331.083 45.4533 331.083 44.6V39.432H329.947V38.232H331.083V36.024H332.539V38.232H334.827V39.432H332.539ZM339.695 47.144C339.023 47.144 338.421 47.032 337.887 46.808C337.354 46.5733 336.933 46.2533 336.623 45.848C336.314 45.432 336.143 44.9573 336.111 44.424H337.615C337.658 44.8613 337.861 45.2187 338.223 45.496C338.597 45.7733 339.082 45.912 339.679 45.912C340.234 45.912 340.671 45.7893 340.991 45.544C341.311 45.2987 341.471 44.9893 341.471 44.616C341.471 44.232 341.301 43.9493 340.959 43.768C340.618 43.576 340.09 43.3893 339.375 43.208C338.725 43.0373 338.191 42.8667 337.775 42.696C337.37 42.5147 337.018 42.2533 336.719 41.912C336.431 41.56 336.287 41.1013 336.287 40.536C336.287 40.088 336.421 39.6773 336.687 39.304C336.954 38.9307 337.333 38.6373 337.823 38.424C338.314 38.2 338.874 38.088 339.503 38.088C340.474 38.088 341.258 38.3333 341.855 38.824C342.453 39.3147 342.773 39.9867 342.815 40.84H341.359C341.327 40.3813 341.141 40.0133 340.799 39.736C340.469 39.4587 340.021 39.32 339.455 39.32C338.933 39.32 338.517 39.432 338.207 39.656C337.898 39.88 337.743 40.1733 337.743 40.536C337.743 40.824 337.834 41.064 338.015 41.256C338.207 41.4373 338.442 41.5867 338.719 41.704C339.007 41.8107 339.402 41.9333 339.903 42.072C340.533 42.2427 341.045 42.4133 341.439 42.584C341.834 42.744 342.17 42.9893 342.447 43.32C342.735 43.6507 342.885 44.0827 342.895 44.616C342.895 45.096 342.762 45.528 342.495 45.912C342.229 46.296 341.85 46.6 341.359 46.824C340.879 47.0373 340.325 47.144 339.695 47.144ZM122.816 69.832C124.171 68.744 125.232 67.8533 126 67.16C126.768 66.456 127.413 65.7253 127.936 64.968C128.469 64.2 128.736 63.448 128.736 62.712C128.736 62.0187 128.565 61.4747 128.224 61.08C127.893 60.6747 127.355 60.472 126.608 60.472C125.883 60.472 125.317 60.7013 124.912 61.16C124.517 61.608 124.304 62.2107 124.272 62.968H122.864C122.907 61.7733 123.269 60.8507 123.952 60.2C124.635 59.5493 125.515 59.224 126.592 59.224C127.691 59.224 128.56 59.528 129.2 60.136C129.851 60.744 130.176 61.5813 130.176 62.648C130.176 63.5333 129.909 64.3973 129.376 65.24C128.853 66.072 128.256 66.808 127.584 67.448C126.912 68.0773 126.053 68.8133 125.008 69.656H130.512V70.872H122.816V69.832ZM138.515 64.52V65.752H132.131V64.52H138.515ZM140.656 68.424V67.32L146.272 59.544H148.016V67.16H149.616V68.424H148.016V71H146.576V68.424H140.656ZM146.64 61.064L142.336 67.16H146.64V61.064ZM169.592 59.848L166.36 71H164.728L162.136 62.024L159.448 71L157.832 71.016L154.712 59.848H156.264L158.696 69.304L161.384 59.848H163.016L165.576 69.272L168.024 59.848H169.592ZM179.185 66.28C179.185 66.5573 179.169 66.8507 179.137 67.16H172.129C172.182 68.024 172.476 68.7013 173.009 69.192C173.553 69.672 174.209 69.912 174.977 69.912C175.606 69.912 176.129 69.768 176.545 69.48C176.972 69.1813 177.27 68.7867 177.441 68.296H179.009C178.774 69.1387 178.305 69.8267 177.601 70.36C176.897 70.8827 176.022 71.144 174.977 71.144C174.145 71.144 173.398 70.9573 172.737 70.584C172.086 70.2107 171.574 69.6827 171.201 69C170.828 68.3067 170.641 67.5067 170.641 66.6C170.641 65.6933 170.822 64.8987 171.185 64.216C171.548 63.5333 172.054 63.0107 172.705 62.648C173.366 62.2747 174.124 62.088 174.977 62.088C175.809 62.088 176.545 62.2693 177.185 62.632C177.825 62.9947 178.316 63.496 178.657 64.136C179.009 64.7653 179.185 65.48 179.185 66.28ZM177.681 65.976C177.681 65.4213 177.558 64.9467 177.313 64.552C177.068 64.1467 176.732 63.8427 176.305 63.64C175.889 63.4267 175.425 63.32 174.913 63.32C174.177 63.32 173.548 63.5547 173.025 64.024C172.513 64.4933 172.22 65.144 172.145 65.976H177.681ZM189.107 66.28C189.107 66.5573 189.091 66.8507 189.059 67.16H182.051C182.104 68.024 182.398 68.7013 182.931 69.192C183.475 69.672 184.131 69.912 184.899 69.912C185.528 69.912 186.051 69.768 186.467 69.48C186.894 69.1813 187.192 68.7867 187.363 68.296H188.931C188.696 69.1387 188.227 69.8267 187.523 70.36C186.819 70.8827 185.944 71.144 184.899 71.144C184.067 71.144 183.32 70.9573 182.659 70.584C182.008 70.2107 181.496 69.6827 181.123 69C180.75 68.3067 180.563 67.5067 180.563 66.6C180.563 65.6933 180.744 64.8987 181.107 64.216C181.47 63.5333 181.976 63.0107 182.627 62.648C183.288 62.2747 184.046 62.088 184.899 62.088C185.731 62.088 186.467 62.2693 187.107 62.632C187.747 62.9947 188.238 63.496 188.579 64.136C188.931 64.7653 189.107 65.48 189.107 66.28ZM187.603 65.976C187.603 65.4213 187.48 64.9467 187.235 64.552C186.99 64.1467 186.654 63.8427 186.227 63.64C185.811 63.4267 185.347 63.32 184.835 63.32C184.099 63.32 183.47 63.5547 182.947 64.024C182.435 64.4933 182.142 65.144 182.067 65.976H187.603ZM195.925 71L192.485 67.128V71H191.029V59.16H192.485V66.12L195.861 62.232H197.893L193.765 66.6L197.909 71H195.925ZM202.367 71.144C201.695 71.144 201.093 71.032 200.559 70.808C200.026 70.5733 199.605 70.2533 199.295 69.848C198.986 69.432 198.815 68.9573 198.783 68.424H200.287C200.33 68.8613 200.533 69.2187 200.895 69.496C201.269 69.7733 201.754 69.912 202.351 69.912C202.906 69.912 203.343 69.7893 203.663 69.544C203.983 69.2987 204.143 68.9893 204.143 68.616C204.143 68.232 203.973 67.9493 203.631 67.768C203.29 67.576 202.762 67.3893 202.047 67.208C201.397 67.0373 200.863 66.8667 200.447 66.696C200.042 66.5147 199.69 66.2533 199.391 65.912C199.103 65.56 198.959 65.1013 198.959 64.536C198.959 64.088 199.093 63.6773 199.359 63.304C199.626 62.9307 200.005 62.6373 200.495 62.424C200.986 62.2 201.546 62.088 202.175 62.088C203.146 62.088 203.93 62.3333 204.527 62.824C205.125 63.3147 205.445 63.9867 205.487 64.84H204.031C203.999 64.3813 203.813 64.0133 203.471 63.736C203.141 63.4587 202.693 63.32 202.127 63.32C201.605 63.32 201.189 63.432 200.879 63.656C200.57 63.88 200.415 64.1733 200.415 64.536C200.415 64.824 200.506 65.064 200.687 65.256C200.879 65.4373 201.114 65.5867 201.391 65.704C201.679 65.8107 202.074 65.9333 202.575 66.072C203.205 66.2427 203.717 66.4133 204.111 66.584C204.506 66.744 204.842 66.9893 205.119 67.32C205.407 67.6507 205.557 68.0827 205.567 68.616C205.567 69.096 205.434 69.528 205.167 69.912C204.901 70.296 204.522 70.6 204.031 70.824C203.551 71.0373 202.997 71.144 202.367 71.144Z" fill="#651520"/>
<path d="M-25 331C-1.16667 308.5 26 263.5 93.5 263.5C140.5 263.5 179.918 250.148 205.5 223.5C228 200.063 238.759 185.379 284.5 180.5C359.5 172.5 391.5 110.5 477 124" stroke="#CD4E5A" stroke-width="4"/>
<path d="M44.044 237.118C44.116 236.002 44.542 235.132 45.322 234.508C46.114 233.884 47.122 233.572 48.346 233.572C49.186 233.572 49.912 233.722 50.524 234.022C51.136 234.322 51.598 234.73 51.91 235.246C52.222 235.762 52.378 236.344 52.378 236.992C52.378 237.736 52.18 238.372 51.784 238.9C51.388 239.428 50.914 239.782 50.362 239.962V240.034C51.07 240.25 51.622 240.646 52.018 241.222C52.414 241.786 52.612 242.512 52.612 243.4C52.612 244.108 52.45 244.738 52.126 245.29C51.802 245.842 51.322 246.28 50.686 246.604C50.05 246.916 49.288 247.072 48.4 247.072C47.104 247.072 46.036 246.742 45.196 246.082C44.368 245.41 43.924 244.45 43.864 243.202H45.844C45.892 243.838 46.138 244.36 46.582 244.768C47.026 245.164 47.626 245.362 48.382 245.362C49.114 245.362 49.678 245.164 50.074 244.768C50.47 244.36 50.668 243.838 50.668 243.202C50.668 242.362 50.398 241.768 49.858 241.42C49.33 241.06 48.514 240.88 47.41 240.88H46.942V239.188H47.428C48.4 239.176 49.138 239.014 49.642 238.702C50.158 238.39 50.416 237.898 50.416 237.226C50.416 236.65 50.23 236.194 49.858 235.858C49.486 235.51 48.958 235.336 48.274 235.336C47.602 235.336 47.08 235.51 46.708 235.858C46.336 236.194 46.114 236.614 46.042 237.118H44.044ZM56.9815 240.142C55.7335 239.518 55.1095 238.534 55.1095 237.19C55.1095 236.542 55.2715 235.948 55.5955 235.408C55.9195 234.868 56.4055 234.442 57.0535 234.13C57.7015 233.806 58.4935 233.644 59.4295 233.644C60.3535 233.644 61.1395 233.806 61.7875 234.13C62.4475 234.442 62.9395 234.868 63.2635 235.408C63.5875 235.948 63.7495 236.542 63.7495 237.19C63.7495 237.862 63.5755 238.456 63.2275 238.972C62.8915 239.476 62.4415 239.866 61.8775 240.142C62.5615 240.394 63.1015 240.808 63.4975 241.384C63.8935 241.948 64.0915 242.614 64.0915 243.382C64.0915 244.162 63.8935 244.852 63.4975 245.452C63.1015 246.052 62.5495 246.514 61.8415 246.838C61.1335 247.162 60.3295 247.324 59.4295 247.324C58.5295 247.324 57.7255 247.162 57.0175 246.838C56.3215 246.514 55.7755 246.052 55.3795 245.452C54.9835 244.852 54.7855 244.162 54.7855 243.382C54.7855 242.602 54.9835 241.93 55.3795 241.366C55.7755 240.802 56.3095 240.394 56.9815 240.142ZM61.7875 237.442C61.7875 236.77 61.5775 236.254 61.1575 235.894C60.7375 235.534 60.1615 235.354 59.4295 235.354C58.7095 235.354 58.1395 235.534 57.7195 235.894C57.2995 236.254 57.0895 236.776 57.0895 237.46C57.0895 238.06 57.3055 238.552 57.7375 238.936C58.1815 239.308 58.7455 239.494 59.4295 239.494C60.1135 239.494 60.6775 239.302 61.1215 238.918C61.5655 238.534 61.7875 238.042 61.7875 237.442ZM59.4295 241.042C58.6375 241.042 57.9895 241.24 57.4855 241.636C56.9935 242.02 56.7475 242.578 56.7475 243.31C56.7475 243.994 56.9875 244.552 57.4675 244.984C57.9475 245.404 58.6015 245.614 59.4295 245.614C60.2455 245.614 60.8875 245.398 61.3555 244.966C61.8355 244.534 62.0755 243.982 62.0755 243.31C62.0755 242.59 61.8295 242.032 61.3375 241.636C60.8575 241.24 60.2215 241.042 59.4295 241.042ZM65.922 237.046C65.922 236.17 66.174 235.486 66.678 234.994C67.194 234.49 67.854 234.238 68.658 234.238C69.462 234.238 70.116 234.49 70.62 234.994C71.136 235.486 71.394 236.17 71.394 237.046C71.394 237.922 71.136 238.612 70.62 239.116C70.116 239.62 69.462 239.872 68.658 239.872C67.854 239.872 67.194 239.62 66.678 239.116C66.174 238.612 65.922 237.922 65.922 237.046ZM76.902 234.472L69.72 247H67.704L74.886 234.472H76.902ZM68.658 235.48C67.902 235.48 67.524 236.002 67.524 237.046C67.524 238.102 67.902 238.63 68.658 238.63C69.018 238.63 69.294 238.504 69.486 238.252C69.69 237.988 69.792 237.586 69.792 237.046C69.792 236.002 69.414 235.48 68.658 235.48ZM73.248 244.408C73.248 243.532 73.5 242.848 74.004 242.356C74.52 241.852 75.18 241.6 75.984 241.6C76.776 241.6 77.424 241.852 77.928 242.356C78.444 242.848 78.702 243.532 78.702 244.408C78.702 245.284 78.444 245.974 77.928 246.478C77.424 246.982 76.776 247.234 75.984 247.234C75.18 247.234 74.52 246.982 74.004 246.478C73.5 245.974 73.248 245.284 73.248 244.408ZM75.966 242.842C75.21 242.842 74.832 243.364 74.832 244.408C74.832 245.452 75.21 245.974 75.966 245.974C76.722 245.974 77.1 245.452 77.1 244.408C77.1 243.364 76.722 242.842 75.966 242.842Z" fill="#651520"/>
<rect x="53.5" y="259" width="16" height="16" rx="8" fill="white"/>
<rect x="53.5" y="259" width="16" height="16" rx="8" stroke="#CD4E5A" stroke-width="4"/>
<path d="M234.136 158.92C234.004 158.368 233.764 157.954 233.416 157.678C233.068 157.402 232.582 157.264 231.958 157.264C231.01 157.264 230.302 157.63 229.834 158.362C229.366 159.082 229.12 160.282 229.096 161.962C229.408 161.434 229.864 161.026 230.464 160.738C231.064 160.45 231.712 160.306 232.408 160.306C233.2 160.306 233.896 160.48 234.496 160.828C235.108 161.164 235.582 161.656 235.918 162.304C236.266 162.952 236.44 163.726 236.44 164.626C236.44 165.466 236.272 166.216 235.936 166.876C235.612 167.536 235.126 168.058 234.478 168.442C233.83 168.814 233.05 169 232.138 169C230.902 169 229.93 168.73 229.222 168.19C228.526 167.638 228.034 166.864 227.746 165.868C227.47 164.872 227.332 163.63 227.332 162.142C227.332 157.75 228.88 155.554 231.976 155.554C233.176 155.554 234.118 155.878 234.802 156.526C235.498 157.174 235.906 157.972 236.026 158.92H234.136ZM231.958 162.034C231.226 162.034 230.602 162.256 230.086 162.7C229.582 163.132 229.33 163.762 229.33 164.59C229.33 165.418 229.564 166.078 230.032 166.57C230.512 167.05 231.178 167.29 232.03 167.29C232.786 167.29 233.38 167.056 233.812 166.588C234.256 166.12 234.478 165.496 234.478 164.716C234.478 163.9 234.262 163.252 233.83 162.772C233.41 162.28 232.786 162.034 231.958 162.034ZM247.089 157.642H241.059V161.224C241.311 160.888 241.683 160.606 242.175 160.378C242.679 160.15 243.213 160.036 243.777 160.036C244.785 160.036 245.601 160.252 246.225 160.684C246.861 161.116 247.311 161.662 247.575 162.322C247.851 162.982 247.989 163.678 247.989 164.41C247.989 165.298 247.815 166.09 247.467 166.786C247.131 167.47 246.621 168.01 245.937 168.406C245.265 168.802 244.437 169 243.453 169C242.145 169 241.095 168.676 240.303 168.028C239.511 167.38 239.037 166.522 238.881 165.454H240.879C241.011 166.018 241.305 166.468 241.761 166.804C242.217 167.128 242.787 167.29 243.471 167.29C244.323 167.29 244.959 167.032 245.379 166.516C245.811 166 246.027 165.316 246.027 164.464C246.027 163.6 245.811 162.94 245.379 162.484C244.947 162.016 244.311 161.782 243.471 161.782C242.883 161.782 242.385 161.932 241.977 162.232C241.581 162.52 241.293 162.916 241.113 163.42H239.169V155.842H247.089V157.642ZM249.801 159.046C249.801 158.17 250.053 157.486 250.557 156.994C251.073 156.49 251.733 156.238 252.537 156.238C253.341 156.238 253.995 156.49 254.499 156.994C255.015 157.486 255.273 158.17 255.273 159.046C255.273 159.922 255.015 160.612 254.499 161.116C253.995 161.62 253.341 161.872 252.537 161.872C251.733 161.872 251.073 161.62 250.557 161.116C250.053 160.612 249.801 159.922 249.801 159.046ZM260.781 156.472L253.599 169H251.583L258.765 156.472H260.781ZM252.537 157.48C251.781 157.48 251.403 158.002 251.403 159.046C251.403 160.102 251.781 160.63 252.537 160.63C252.897 160.63 253.173 160.504 253.365 160.252C253.569 159.988 253.671 159.586 253.671 159.046C253.671 158.002 253.293 157.48 252.537 157.48ZM257.127 166.408C257.127 165.532 257.379 164.848 257.883 164.356C258.399 163.852 259.059 163.6 259.863 163.6C260.655 163.6 261.303 163.852 261.807 164.356C262.323 164.848 262.581 165.532 262.581 166.408C262.581 167.284 262.323 167.974 261.807 168.478C261.303 168.982 260.655 169.234 259.863 169.234C259.059 169.234 258.399 168.982 257.883 168.478C257.379 167.974 257.127 167.284 257.127 166.408ZM259.845 164.842C259.089 164.842 258.711 165.364 258.711 166.408C258.711 167.452 259.089 167.974 259.845 167.974C260.601 167.974 260.979 167.452 260.979 166.408C260.979 165.364 260.601 164.842 259.845 164.842Z" fill="#651520"/>
<rect x="237" y="181" width="16" height="16" rx="8" fill="white"/>
<rect x="237" y="181" width="16" height="16" rx="8" stroke="#CD4E5A" stroke-width="4"/>
<path d="M411.636 100.436C411.756 101.036 412.014 101.492 412.41 101.804C412.806 102.116 413.34 102.272 414.012 102.272C414.864 102.272 415.488 101.936 415.884 101.264C416.28 100.592 416.478 99.446 416.478 97.826C416.19 98.234 415.782 98.552 415.254 98.78C414.738 98.996 414.174 99.104 413.562 99.104C412.782 99.104 412.074 98.948 411.438 98.636C410.802 98.312 410.298 97.838 409.926 97.214C409.566 96.578 409.386 95.81 409.386 94.91C409.386 93.59 409.77 92.54 410.538 91.76C411.318 90.968 412.386 90.572 413.742 90.572C415.374 90.572 416.532 91.118 417.216 92.21C417.912 93.29 418.26 94.952 418.26 97.196C418.26 98.744 418.128 100.01 417.864 100.994C417.612 101.978 417.168 102.722 416.532 103.226C415.896 103.73 415.014 103.982 413.886 103.982C412.602 103.982 411.612 103.646 410.916 102.974C410.22 102.302 409.83 101.456 409.746 100.436H411.636ZM413.922 97.376C414.642 97.376 415.206 97.154 415.614 96.71C416.034 96.254 416.244 95.654 416.244 94.91C416.244 94.082 416.022 93.44 415.578 92.984C415.146 92.516 414.552 92.282 413.796 92.282C413.04 92.282 412.44 92.522 411.996 93.002C411.564 93.47 411.348 94.088 411.348 94.856C411.348 95.588 411.558 96.194 411.978 96.674C412.41 97.142 413.058 97.376 413.922 97.376ZM427.562 93.92C427.43 93.368 427.19 92.954 426.842 92.678C426.494 92.402 426.008 92.264 425.384 92.264C424.436 92.264 423.728 92.63 423.26 93.362C422.792 94.082 422.546 95.282 422.522 96.962C422.834 96.434 423.29 96.026 423.89 95.738C424.49 95.45 425.138 95.306 425.834 95.306C426.626 95.306 427.322 95.48 427.922 95.828C428.534 96.164 429.008 96.656 429.344 97.304C429.692 97.952 429.866 98.726 429.866 99.626C429.866 100.466 429.698 101.216 429.362 101.876C429.038 102.536 428.552 103.058 427.904 103.442C427.256 103.814 426.476 104 425.564 104C424.328 104 423.356 103.73 422.648 103.19C421.952 102.638 421.46 101.864 421.172 100.868C420.896 99.872 420.758 98.63 420.758 97.142C420.758 92.75 422.306 90.554 425.402 90.554C426.602 90.554 427.544 90.878 428.228 91.526C428.924 92.174 429.332 92.972 429.452 93.92H427.562ZM425.384 97.034C424.652 97.034 424.028 97.256 423.512 97.7C423.008 98.132 422.756 98.762 422.756 99.59C422.756 100.418 422.99 101.078 423.458 101.57C423.938 102.05 424.604 102.29 425.456 102.29C426.212 102.29 426.806 102.056 427.238 101.588C427.682 101.12 427.904 100.496 427.904 99.716C427.904 98.9 427.688 98.252 427.256 97.772C426.836 97.28 426.212 97.034 425.384 97.034ZM431.731 94.046C431.731 93.17 431.983 92.486 432.487 91.994C433.003 91.49 433.663 91.238 434.467 91.238C435.271 91.238 435.925 91.49 436.429 91.994C436.945 92.486 437.203 93.17 437.203 94.046C437.203 94.922 436.945 95.612 436.429 96.116C435.925 96.62 435.271 96.872 434.467 96.872C433.663 96.872 433.003 96.62 432.487 96.116C431.983 95.612 431.731 94.922 431.731 94.046ZM442.711 91.472L435.529 104H433.513L440.695 91.472H442.711ZM434.467 92.48C433.711 92.48 433.333 93.002 433.333 94.046C433.333 95.102 433.711 95.63 434.467 95.63C434.827 95.63 435.103 95.504 435.295 95.252C435.499 94.988 435.601 94.586 435.601 94.046C435.601 93.002 435.223 92.48 434.467 92.48ZM439.057 101.408C439.057 100.532 439.309 99.848 439.813 99.356C440.329 98.852 440.989 98.6 441.793 98.6C442.585 98.6 443.233 98.852 443.737 99.356C444.253 99.848 444.511 100.532 444.511 101.408C444.511 102.284 444.253 102.974 443.737 103.478C443.233 103.982 442.585 104.234 441.793 104.234C440.989 104.234 440.329 103.982 439.813 103.478C439.309 102.974 439.057 102.284 439.057 101.408ZM441.775 99.842C441.019 99.842 440.641 100.364 440.641 101.408C440.641 102.452 441.019 102.974 441.775 102.974C442.531 102.974 442.909 102.452 442.909 101.408C442.909 100.364 442.531 99.842 441.775 99.842Z" fill="#651520"/>
<rect x="419" y="116" width="16" height="16" rx="8" fill="white"/>
<rect x="419" y="116" width="16" height="16" rx="8" stroke="#CD4E5A" stroke-width="4"/>
</g>
<defs>
<clipPath id="clip0_1_110">
<rect width="475" height="335" rx="20" fill="white"/>
</clipPath>
</defs>
</svg>
