<svg width="77" height="37" viewBox="0 0 77 37" fill="none" xmlns="http://www.w3.org/2000/svg">
<g clip-path="url(#clip0_1_155)">
<path d="M32.7632 0.500699C29.3871 0.449996 26.3908 3.16375 26.3908 7.0911V24.7762C26.3943 25.4128 25.916 25.9774 25.2198 25.9774H19.6598C7.62826 25.9917 8.70336 10.6846 18.9444 10.6702C23.4971 10.6638 25.0884 10.6702 25.0884 10.6702V6.38148H18.726C14.7392 6.38789 11.7209 7.8974 9.69072 10.1479C7.66045 12.3984 6.62104 15.3956 6.62266 18.3741C6.62424 21.2415 7.6079 24.2175 9.66262 26.473C11.7173 28.7284 14.8415 30.2709 19.1594 30.2709H29.6539C30.2606 30.2709 30.775 29.76 30.775 29.1641V7.55773C30.7683 6.42786 31.3577 5.5195 32.3054 5.21883H32.3056C33.2249 4.928 34.2346 5.30678 34.8432 6.16746L34.8459 6.1713L34.8483 6.17529C36.3231 8.57807 40.0083 14.4724 43.337 19.7858C45.0013 22.4425 46.5766 24.9541 47.7422 26.8119C48.325 27.7408 48.8055 28.5063 49.1433 29.0447C49.4786 29.5789 49.6649 29.8756 49.6857 29.9092C49.9311 30.2541 50.2401 30.3837 50.4975 30.3031H50.4976L50.4979 30.303C50.644 30.2578 50.7588 30.1556 50.8448 29.9872C50.9307 29.8189 50.9817 29.5852 50.9817 29.3044V7.56083C50.9781 6.43455 51.5639 5.52429 52.5148 5.22534C53.4285 4.93407 54.4413 5.31288 55.0438 6.1744L55.0462 6.1778L55.0483 6.18135C56.5264 8.5826 60.2132 14.477 63.5426 19.7904C66.8701 25.1007 69.8453 29.8382 69.8919 29.912C69.8921 29.9122 69.8921 29.9123 69.8922 29.9124C70.1328 30.2552 70.4614 30.392 70.7357 30.3061C70.8843 30.2593 71.003 30.155 71.0915 29.9865C71.18 29.818 71.2328 29.5859 71.2328 29.3076V0.634611V0.633133H66.8807V17.3771C66.8807 17.3771 64.1856 12.8332 59.5912 4.99062C55.0962 -2.69237 46.6133 0.483138 46.6099 7.0942V17.374C46.6099 17.374 43.9794 12.8268 39.3881 4.98427C37.5607 1.86431 35.0731 0.53539 32.7632 0.500699ZM19.5123 0.633133C-5.49706 0.630038 -5.2598 36.056 19.8492 36.0721H29.6602C33.8824 36.0752 36.5936 33.5854 36.5903 28.9965V20.0233C36.5903 20.0233 42.0928 29.094 44.2521 32.6445C47.9258 38.6815 56.8159 37.4945 56.7936 29.9535V20.0297C56.7936 20.0297 62.2959 29.097 64.4582 32.6523C68.132 38.6875 77.0226 37.4993 77 29.9565V0.633133H72.6545V29.3073V29.3076C72.6575 30.6626 71.8936 31.4199 71.1656 31.6487L71.1652 31.6489C70.2773 31.9303 69.3114 31.5537 68.7108 30.6983L68.7087 30.6954L68.7068 30.6924C68.5826 30.4952 56.8061 11.7451 53.8617 6.95468C53.6174 6.60978 53.2596 6.46808 52.9421 6.56787C52.6124 6.67285 52.4029 7.01977 52.4029 7.56024V29.3008V29.3011C52.4063 30.6616 51.6553 31.4167 50.9305 31.6487L50.9301 31.6489L50.9297 31.649C50.0548 31.9224 49.1042 31.5465 48.5074 30.6918L48.5059 30.6898L48.5046 30.6877C48.4808 30.6509 48.2908 30.3486 47.9509 29.8079C47.6111 29.2672 47.1291 28.4999 46.5449 27.5693C45.3765 25.7081 43.7996 23.1943 42.1346 20.5371C38.8062 15.225 35.1287 9.34303 33.6585 6.94832C33.4145 6.60397 33.0534 6.46478 32.7354 6.56491V6.56476C32.402 6.66993 32.1904 7.01679 32.1935 7.553V7.55344V29.164C32.1935 30.5509 31.0499 31.681 29.6539 31.681H19.1592C14.3843 31.681 10.888 29.9576 8.5942 27.4297C6.30044 24.9019 5.20755 21.577 5.20429 18.3741C5.20102 15.0507 6.35861 11.7055 8.63077 9.18582C10.9029 6.66615 14.2925 4.9777 18.7227 4.97126H18.7229H25.0884V0.633133H19.5123Z" fill="#AB3C3E"/>
</g>
<defs>
<clipPath id="clip0_1_155">
<rect width="76.1143" height="36" fill="white" transform="translate(0.885742 0.5)"/>
</clipPath>
</defs>
</svg>
