<svg width="211" height="35" viewBox="0 0 211 35" fill="none" xmlns="http://www.w3.org/2000/svg">
<path fill-rule="evenodd" clip-rule="evenodd" d="M106.958 19.416L107.426 19.7689C107.367 19.2402 107.456 18.355 107.456 18.355C107.103 18.5898 107.017 19.0318 107.017 19.0318L106.519 19.0908L106.958 19.416ZM126.144 23.2445C126.085 23.1265 125.996 23.0398 125.849 23.0398C125.704 23.0398 125.557 23.1855 125.557 23.3926C125.557 23.5998 125.704 23.7455 125.849 23.7455C126.024 23.7455 126.172 23.5998 126.172 23.3926C126.171 23.3348 126.144 23.3035 126.144 23.2445ZM126.132 21.862C126.139 21.8872 126.144 21.9186 126.144 21.9487C126.142 22.0217 126.119 22.0926 126.077 22.1522C126.035 22.2117 125.976 22.257 125.908 22.2823V22.717C125.989 22.725 126.067 22.7498 126.138 22.7898C126.209 22.8298 126.271 22.8842 126.319 22.9494C126.414 23.0771 126.465 23.2322 126.464 23.3914C126.464 23.7094 126.285 23.9659 126.023 24.0454C126.746 23.9888 127.198 23.9225 127.198 23.9225C126.494 23.7744 126.904 23.3625 126.904 23.3625C127.227 23.0964 127.841 22.8892 127.841 22.8892C127.11 22.8001 126.7 22.2124 126.522 21.8596H126.132V21.862ZM125.763 24.0634C125.483 24.0165 125.265 23.7407 125.265 23.3926C125.265 23.059 125.466 22.7905 125.733 22.7291V22.2967C125.653 22.2843 125.578 22.2466 125.521 22.189C125.463 22.1315 125.425 22.057 125.412 21.9764L125.41 21.9788C125.118 22.0655 124.853 22.0655 124.853 22.0655C124.794 22.2136 124.912 22.2726 124.912 22.2726C125.527 22.7146 125.118 23.1265 125.118 23.1265C124.826 23.3926 124.678 23.3926 124.678 23.3926C124.386 23.4818 123.682 24.1008 123.682 24.1008C124.465 24.1249 125.182 24.1008 125.763 24.0634ZM117.736 21.3309C117.789 21.331 117.841 21.3146 117.884 21.2839L118.468 21.538C118.468 21.7138 118.585 21.8632 118.732 21.8632C118.823 21.8632 118.904 21.8042 118.95 21.7199L119.446 21.7933C119.478 21.9414 119.579 22.0402 119.698 22.0402C119.834 22.0402 119.97 21.9149 119.988 21.7343L120.402 21.5368C120.451 21.6103 120.524 21.6572 120.608 21.6572C120.753 21.6572 120.9 21.5091 120.9 21.3321L121.165 20.8925C121.663 20.9314 122.163 20.9213 122.659 20.8624C123.449 20.4481 124.094 20.2133 124.094 20.2133C123.858 20.3891 123.624 20.5384 123.476 20.7142C123.329 20.8614 123.192 21.0188 123.067 21.1851C122.961 21.2623 122.876 21.3648 122.82 21.4834C122.763 21.6021 122.737 21.733 122.744 21.8644C122.766 22.0325 122.826 22.1934 122.919 22.3352C123.066 22.5111 123.272 22.6014 123.272 22.6014L123.595 22.8953C123.33 23.1024 122.744 23.2481 122.744 23.2481C122.421 23.3685 121.984 23.1614 121.984 23.1614C120.958 22.9266 120.607 23.3962 120.607 23.3962C120.401 23.6311 120.021 23.6624 120.021 23.6624L120.195 23.9286C119.815 24.0466 119.611 23.8984 119.611 23.8984C119.581 23.3975 119.845 22.8965 119.845 22.8965C119.727 22.1016 118.086 22.2473 118.086 22.2473L117.678 21.862L117.589 21.7728L116.652 20.8889C116.652 21.155 116.535 21.538 116.39 21.8632C116.272 22.1269 116.125 22.3642 116.125 22.3642L115.774 22.1859C115.841 22.0877 115.89 21.9785 115.919 21.8632C116.211 21.155 116.417 20.153 116.417 20.153C116.592 20.153 116.741 20.1831 116.857 20.212C116.945 20.2711 117.004 20.3012 117.004 20.3012C117.072 20.3337 117.146 20.365 117.227 20.3975L117.55 20.8588C117.519 20.9131 117.503 20.9745 117.503 21.037C117.502 21.2128 117.589 21.3309 117.736 21.3309ZM121.007 20.872L120.836 21.1165C120.812 21.076 120.779 21.0421 120.739 21.0179C120.699 20.9937 120.654 20.98 120.607 20.978C120.46 20.978 120.343 21.1237 120.343 21.3309C120.343 21.3586 120.345 21.3875 120.352 21.4127L119.979 21.5886C119.939 21.4501 119.819 21.3297 119.698 21.3297C119.554 21.3297 119.436 21.5055 119.436 21.6825L118.99 21.6054C118.995 21.5829 118.997 21.5599 118.997 21.5368C118.997 21.361 118.877 21.1815 118.732 21.1815C118.622 21.1815 118.531 21.2803 118.492 21.4031L117.975 21.1683C117.992 21.1268 118.001 21.0821 118 21.037C118 20.8889 117.883 20.7432 117.735 20.7432C117.712 20.7422 117.689 20.7463 117.667 20.7552L117.529 20.5059H117.527C118.273 20.7504 119.198 20.9202 119.198 20.9202H119.843L120.049 20.595C120.315 20.7444 120.659 20.8299 121.007 20.872ZM117.535 15.8404C117.559 15.8705 117.582 15.8982 117.606 15.9235L117.569 15.9897C117.549 15.9767 117.527 15.9692 117.503 15.9681C117.386 15.9681 117.297 16.0861 117.297 16.2041L117.27 16.1752L117.034 15.9091L116.948 15.8211L116.42 15.2611C115.804 14.4362 114.867 15.2611 114.867 15.2611L114.722 15.1431C115.218 14.8481 114.781 14.4651 114.781 14.4651L115.747 11.9601L115.482 11.6362C115.953 10.6631 114.957 10.6342 114.957 10.6342C114.662 9.75022 114.136 10.1633 114.136 10.1633C113.961 9.30824 113.315 9.75021 113.315 9.75021C113.081 9.16131 112.524 9.51417 112.524 9.51417L112.552 8.12921L111.909 8.15812L111.205 8.12921L111.264 9.54308C110.562 9.19021 110.443 9.89714 110.443 9.89714C109.624 9.42505 109.624 10.3391 109.624 10.3391C108.949 10.132 108.979 10.7811 108.979 10.7811C108.071 10.869 108.189 11.6651 108.189 11.6651L108.89 14.0809C108.715 14.5229 106.636 17.0869 106.636 17.0869L105.756 16.8219L105.698 16.675C105.902 16.793 106.049 16.734 106.049 16.734C105.962 16.4389 106.078 15.85 106.078 15.85C106.343 14.7011 105.874 14.2881 105.874 14.2881C105.902 13.816 105.58 13.2572 105.58 13.2572C106.02 12.6972 105.376 12.1372 105.376 12.1372L105.287 11.989L105.258 10.7811C105.141 10.7811 105.082 10.633 105.082 10.633C104.906 10.132 104.584 10.4571 104.584 10.4571C104.35 9.92725 103.969 10.3391 103.969 10.3391C103.646 9.89714 103.324 10.3391 103.324 10.3391L103.06 9.48406L102.182 9.83692L102.475 10.7799C101.83 10.6318 102.036 11.2809 102.036 11.2809C101.479 11.3098 101.742 11.8108 101.742 11.8108C101.216 11.8698 101.42 12.4599 101.42 12.4599L102.006 13.4318C101.537 13.9617 101.977 14.3158 101.977 14.3158C102.124 14.5819 102.3 14.5819 102.3 14.5819C102.036 15.378 102.388 16.2029 102.388 16.2029C102.007 16.6449 101.45 16.9977 100.952 17.2627C100.221 17.6168 99.5757 17.7938 99.5757 17.7938C98.4325 18.06 96.1784 18.7958 96.1784 18.7958C95.3872 19.0005 94.1278 19.3835 94.1278 19.3835C92.5465 19.8568 92.1359 19.3558 92.1359 19.3558C91.7552 19.1185 92.0485 18.4995 92.0485 18.4995C92.4292 17.7336 93.2205 17.5566 93.2205 17.5566C93.7771 17.9118 93.9818 18.1166 93.9818 18.1166C94.3325 18.4718 94.949 18.4417 94.949 18.4417L94.9778 18.3237C95.2411 18.3538 95.4171 18.2647 95.4171 18.2647C95.2411 18.0889 95.2411 17.8817 95.2411 17.8817C95.2411 17.7348 95.0364 17.4999 95.0364 17.4999L99.1077 17.3229C99.2549 17.2952 99.371 17.2952 99.4883 17.2639C100.894 16.999 101.217 16.675 101.217 16.675C102.183 15.9079 101.774 14.6409 101.774 14.6409C101.246 13.4041 100.221 13.3439 100.221 13.3439C99.4297 13.1379 98.8443 13.256 98.8443 13.256C98.405 13.2861 97.4976 13.05 97.4976 13.05C97.4677 13.2258 97.8483 13.7859 97.8483 13.7859C97.717 13.7977 97.5847 13.7831 97.4591 13.7428C97.3335 13.7024 97.2171 13.6372 97.1169 13.551C96.6477 13.109 95.8863 13.315 95.8863 13.315C96.0037 13.551 96.7075 14.1411 96.7075 14.1411C96.2969 14.17 95.1849 13.6991 95.1849 13.6991C95.3896 14.6722 96.5028 15.3491 96.5028 15.3491C97.8208 15.9091 98.9628 15.3201 98.9628 15.3201C99.5195 14.9673 100.076 14.7601 100.076 14.7601C100.16 14.7216 100.251 14.7018 100.343 14.7022C100.436 14.7026 100.527 14.7232 100.61 14.7625C100.694 14.8018 100.768 14.8588 100.827 14.9298C100.887 15.0007 100.93 15.0837 100.955 15.1732C100.896 16.1752 100.163 16.2041 100.163 16.2041C98.0542 16.6461 95.2423 16.351 95.2423 16.351C95.447 16.0861 95.4769 15.4081 95.4769 15.4081L95.2423 15.4671C94.0129 15.3491 93.6897 15.6152 93.6897 15.6152C93.2504 15.8802 93.0457 16.4402 93.0457 16.4402C92.4891 16.6762 92.0497 16.97 91.7265 17.2651C90.9065 18.0624 90.8191 18.9451 90.8191 18.9451C90.7605 20.0061 91.3459 20.1542 91.3459 20.1542C90.8191 21.1839 91.6092 21.5681 91.6092 21.5681C91.9612 21.3044 92.1072 21.0081 92.1072 21.0081C92.8099 20.4794 94.8605 20.0362 94.8605 20.0362C94.4499 20.3614 94.2152 21.3321 94.2152 21.3321C93.8645 21.4501 93.2779 21.2429 93.2779 21.2429C92.9559 21.2152 92.9559 21.4802 92.9559 21.4802L92.8087 21.8331L92.604 22.4822C91.3447 22.4232 91.5206 23.159 91.5206 23.159L91.3447 25.1329C91.6379 25.8687 92.106 25.7519 92.106 25.7519V25.016H92.428C92.8087 25.8109 93.3952 25.9879 93.3952 25.9879H93.5712C93.7759 25.9289 93.8645 26.2252 93.8645 26.2252L94.0692 26.2529L94.0979 25.7519L94.3313 25.7242C94.4786 25.7832 94.566 26.018 94.566 26.018H94.7407C94.7994 25.9 94.8293 25.576 94.8293 25.576C95.0639 25.4279 95.0041 24.8992 95.0041 24.8992C95.4734 24.8101 95.9713 24.9883 95.9713 24.9883L95.9426 25.4279C96.2933 26.018 96.7339 26.1072 96.7339 26.1072C97.0272 26.1939 97.4653 26.2529 97.9932 26.283C98.9018 26.342 100.044 26.3107 101.098 26.283C102.243 26.2249 103.386 26.1362 104.526 26.0168C104.643 26.1927 104.7 26.165 104.7 26.165C105.198 26.3408 105.755 25.8097 105.755 25.8097L105.58 26.165C105.961 26.1348 106.371 25.8687 106.371 25.8687C106.473 26.0089 106.617 26.1127 106.781 26.165L106.869 26.0758L106.987 26.2517C107.22 26.1336 107.367 25.723 107.367 25.723C107.632 25.9578 108.013 25.8988 108.013 25.8988L108.13 26.0746L108.216 25.9265C108.391 26.0469 108.714 26.1927 108.714 26.1927C109.067 25.7507 108.92 25.104 108.92 25.104L109.009 25.2497L109.095 24.8968C109.27 25.0726 109.565 25.0726 109.565 25.0726C109.009 25.3075 109.329 25.7218 109.329 25.7218C109.398 25.8381 109.501 25.9302 109.624 25.9855C109.717 25.9739 109.81 25.998 109.886 26.0529C109.962 26.1079 110.015 26.1896 110.033 26.2818C110.473 26.4889 110.737 26.0156 110.737 26.0156L110.796 25.6628C110.707 25.4556 110.707 25.1317 110.707 25.1317L110.796 25.5146L110.941 25.6038L111.937 26.3986L112.788 25.6905C113.256 26.0156 113.901 26.0156 113.901 26.0156C114.135 26.0156 113.96 25.7218 113.96 25.7218C114.722 26.3408 115.863 26.1927 115.863 26.1927C116.038 26.0469 115.922 25.9578 115.922 25.9578C116.128 25.8687 116.478 26.165 116.478 26.165C116.77 26.3697 117.21 26.1927 117.21 26.1927C117.182 26.0469 117.035 26.0168 117.035 26.0168C117.241 26.0168 117.124 25.723 117.124 25.723C117.327 25.7507 117.504 25.9867 117.504 25.9867C117.679 26.224 118.002 26.165 118.002 26.165L118.03 26.0168C118.236 26.165 118.703 26.1927 118.703 26.1927C118.822 26.0746 118.732 25.8988 118.732 25.8988C120.842 26.5479 123.974 26.4275 123.974 26.4275C128.047 26.3998 128.604 25.6038 128.604 25.6038C128.751 25.4255 128.662 25.2208 128.662 25.2208V24.9859C128.868 24.8655 129.19 24.9558 129.19 24.9558L128.896 25.5748L128.809 25.782C129.511 26.5768 130.566 25.6929 130.566 25.6929V25.4267C130.771 25.34 130.946 25.104 130.946 25.104L131.417 25.222C131.475 25.4881 131.299 25.782 131.299 25.782C132.031 25.9867 132.293 25.222 132.293 25.222L131.915 23.2457C131.328 22.5689 130.273 22.6857 130.273 22.6857L130.243 22.1847C130.185 22.0089 129.981 21.8909 129.804 21.862L129.578 21.7801L129.365 21.862C129.042 21.8897 128.572 21.8897 128.572 21.8897V21.862L128.631 21.1827V20.418L128.572 20.1518L129.19 20.241C129.658 20.4457 130.743 20.4457 130.743 20.4457C131.093 20.5938 131.093 20.9467 131.093 20.9467L130.976 21.361C131.972 21.2718 131.855 20.1518 131.855 20.1518C132.556 19.5617 132.38 17.9708 132.38 17.9708C132.292 17.5879 132.147 17.3518 132.057 17.2627L132.03 17.235C132.03 16.2318 131.034 15.7898 131.034 15.7898C130.859 15.6417 130.653 15.6417 130.653 15.6417C130.419 15.5839 130.096 15.1997 130.096 15.1997C129.716 15.9066 130.038 16.4365 130.038 16.4365C129.451 16.3185 126.521 16.9086 126.521 16.9086C125.819 17.0857 124.648 16.7027 124.648 16.7027C123.915 16.2896 124.033 15.7597 124.033 15.7597C124.178 14.9047 124.882 15.0227 124.882 15.0227H125.088C125.703 14.9047 126.142 15.1407 126.142 15.1407C127.372 15.7296 129.567 15.1407 129.567 15.1407C130.622 14.7276 130.916 13.3427 130.916 13.3427C130.212 13.9918 129.54 13.8738 129.54 13.8738C129.391 13.9039 129.244 13.9433 129.1 13.9918C129.218 13.4908 129.802 13.2548 129.802 13.2548C129.042 12.9308 128.222 13.4908 128.222 13.4908C127.812 13.9328 126.902 14.0797 126.902 14.0797C127.575 13.8148 127.928 13.0777 127.928 13.0777C127.489 13.3427 126.699 13.2837 126.699 13.2837C125.497 13.0476 124.179 14.1375 124.179 14.1375C122.977 15.2575 123.564 16.4956 123.564 16.4956C123.711 16.8484 124.062 17.1146 124.442 17.2615C124.999 17.5276 125.583 17.5867 125.583 17.5867C126.844 17.7336 129.422 17.4385 129.422 17.4385C129.656 17.3795 129.92 17.3795 129.92 17.3795C129.45 17.7336 129.364 18.5296 129.364 18.5296C129.832 18.3538 130.182 18.3538 130.182 18.3538L130.155 18.4718C130.712 18.3827 131.178 18.4718 131.178 18.4718C131.473 18.4995 131.532 18.237 131.532 18.237C131.882 18.7657 131.178 19.357 131.178 19.357C130.769 19.7689 129.862 19.4437 129.862 19.4437C129.364 19.2089 128.073 19.1185 128.073 19.1185C127.84 18.8247 125.174 18.2948 125.174 18.2948C125.027 18.0286 124.764 18.1467 124.764 18.1467L124.529 18.1166C124.295 17.5565 123.769 17.8817 123.769 17.8817C123.388 17.8227 122.773 17.4698 122.419 17.2627C122.245 17.1748 122.157 17.0869 122.157 17.0869C123.563 15.5249 123.474 13.8461 123.474 13.8461C123.299 11.429 121.337 11.046 121.337 11.046C121.045 10.3391 120.108 10.2801 120.108 10.2801L120.049 10.4282L120.135 10.6342C120.108 10.7823 120.283 11.0473 120.283 11.0473L119.902 11.1352L117.529 9.75021C116.945 9.60329 117.179 10.1031 117.179 10.1031L117.296 10.2801L119.347 11.9011C119.141 12.313 118.439 12.8441 118.439 12.8441L118.175 12.9031L117.851 13.256L117.881 13.7281C117.734 13.8461 117.411 13.8461 117.411 13.8461L117.383 14.1411C117.587 14.4362 118.173 14.4362 118.173 14.4362L118.641 14.9071C118.789 14.9962 118.906 14.8782 118.906 14.8782L119.315 14.4073L119.872 14.1423C120.019 14.2302 120.284 14.2604 120.284 14.2604C119.903 14.4085 119.494 14.9673 119.494 14.9673C119.171 14.8782 118.643 14.9962 118.643 14.9962L118.584 15.3201L118.567 15.3984L118.439 15.3201C118.233 14.4663 117.588 14.9962 117.588 14.9962C117.484 15.1092 117.422 15.255 117.412 15.4088C117.402 15.5627 117.446 15.7152 117.535 15.8404ZM117.549 16.457C117.619 16.4245 117.677 16.3233 117.677 16.2029C117.677 16.1688 117.669 16.1351 117.655 16.1042L117.695 16.0054C117.786 16.0802 117.901 16.1206 118.019 16.1198C118.321 16.1102 118.438 15.6718 118.438 15.6718H118.511L118.438 16.0247C118.143 16.2017 117.881 16.7906 117.881 16.7906L117.549 16.457ZM117.732 15.6152C117.575 15.2876 117.911 15.1419 117.911 15.1419C118.321 15.0829 118.234 15.6128 118.234 15.6128C118.124 15.7513 118.036 15.8031 117.963 15.8091C117.804 15.8223 117.734 15.6176 117.732 15.6152ZM101.742 21.8318C101.508 22.039 101.097 22.3328 100.57 22.3629L100.336 22.7435L100.892 22.8916L101.01 22.9507L101.508 23.0988C101.508 23.0988 101.537 22.7736 101.918 22.8326C101.918 22.8326 102.182 22.1245 103.236 22.3617C103.236 22.3617 103.412 22.3027 103.646 22.4208C103.734 22.4798 103.822 22.5388 103.909 22.6255L103.792 22.2425C103.792 22.2425 103.909 22.0667 104.201 22.1245C104.201 22.1245 104.084 22.0065 103.997 21.8306C103.873 21.6582 103.801 21.4531 103.792 21.2405C103.792 21.2405 104.143 21.0948 104.494 21.1538V20.8287H104.699L104.319 20.5938C104.319 20.5938 103.351 21.6825 101.535 21.1538C101.176 21.0516 100.832 20.9031 100.511 20.7118C100.511 20.7118 100.863 21.5958 101.976 21.5657C101.977 21.5657 101.89 21.6837 101.742 21.8318ZM97.0272 21.8318C97.6125 22.0077 98.6384 22.098 98.6384 22.098C98.5498 22.1847 98.4624 22.2738 98.3751 22.3328C98.053 22.599 97.7897 22.658 97.7897 22.658C97.6137 22.9519 97.7023 23.4842 97.7023 23.4842C97.7897 23.6022 98.053 23.6889 98.2877 23.778C98.5809 23.896 98.873 23.9852 98.873 23.9852C98.5156 24.0583 98.1471 24.0583 97.7897 23.9852C97.4665 23.955 97.263 23.8647 97.263 23.8647L97.409 23.5709C97.2917 22.8037 96.1497 22.717 96.1497 22.717L96.2084 22.3642C96.3544 22.1859 96.5016 21.9812 96.5603 21.8331C96.5967 21.7784 96.6261 21.7193 96.6477 21.6572C96.7063 21.7162 96.8524 21.7752 96.9996 21.8331L97.0272 21.8318ZM117.884 24.2778C117.795 24.3368 117.736 24.3958 117.736 24.5126C117.736 24.5126 117.795 24.6885 118.176 24.8065C118.176 24.8065 118.234 24.4837 118.146 24.1297C118.145 24.1297 118 24.1887 117.884 24.2778ZM104.526 23.7455L104.73 23.6865C104.73 23.6865 104.526 23.5107 104.497 23.3926C104.497 23.3926 104.497 23.1578 104.234 22.9507L104.262 23.1578V23.4516L104.35 23.5408V23.7756L104.526 23.7455ZM105.463 24.7788L105.493 25.2208L105.874 24.8065C105.843 24.8073 105.814 24.7996 105.788 24.7843C105.762 24.769 105.74 24.7466 105.726 24.7198C105.58 24.6018 105.493 24.4259 105.493 24.4259L105.463 24.7788ZM106.787 21.8427C107.01 21.8174 107.196 21.8331 107.302 21.9607C107.299 21.7728 107.381 21.585 107.66 21.5368C107.66 21.5368 107.044 21.4188 106.488 21.2116C106.137 21.0936 105.785 20.9455 105.668 20.7697L105.404 20.8588L105.198 20.9455V21.0346C105.198 21.0346 105.755 21.1213 106.048 21.3598V21.2393C106.048 21.2405 106.581 21.3417 106.787 21.8427ZM108.332 23.0097C108.332 22.9507 108.362 22.8916 108.362 22.8025L108.802 23.2758C108.802 23.2758 108.888 23.5697 108.713 23.7467C108.713 23.7467 108.627 23.66 108.509 23.601C108.436 23.5638 108.356 23.5436 108.274 23.542L108.246 23.159C108.246 23.1578 108.305 23.0988 108.332 23.0097ZM72.7158 6.92009C72.7158 6.92009 77.0804 9.1601 77.6071 9.60208C78.1637 10.0441 77.8704 10.3391 77.8704 10.3391C77.8704 10.3391 77.6657 10.633 77.1677 10.751C76.6686 10.8389 76.817 11.252 76.817 11.252L76.7583 21.7138C78.8089 23.7467 80.7422 22.6568 80.7422 22.6568C81.4748 22.422 81.3874 21.7728 81.3874 21.7728C81.3874 21.7728 81.5347 11.9312 81.4748 11.6061C81.4161 11.2532 81.1241 11.2532 81.1241 11.2532C81.1241 11.2532 79.3081 10.1031 79.0148 9.89834C78.6916 9.69241 79.0435 9.36845 79.0435 9.36845C79.0435 9.36845 82.1188 7.21755 82.5593 6.80447C82.9987 6.4215 83.3506 6.65634 83.3506 6.65634C83.3506 6.65634 88.4178 9.51537 89.0032 9.95735C89.5886 10.3993 89.2965 10.5463 89.2965 10.5463L87.8612 11.9902C87.5679 12.2853 87.7139 12.5502 87.7139 12.5502L87.6553 22.216C87.2746 24.6909 83.4081 25.0461 83.4081 25.0461C78.7503 25.1052 76.5836 23.1012 76.5836 23.1012C74.7377 21.9511 72.5997 22.7459 72.5997 22.7459C69.8764 23.6889 69.6705 25.458 69.6705 25.458C69.5819 26.7262 70.9885 27.344 70.9885 27.344C72.717 28.464 75.2357 27.7558 75.2357 27.7558C77.3736 27.02 80.6835 25.9 80.6835 25.9C82.7629 25.458 84.4028 25.8109 84.4028 25.8109C86.2775 26.2252 87.0101 27.1091 87.0101 27.1091C88.2107 28.346 88.1233 29.9369 88.1233 29.9369C88.2107 33.4161 83.9635 34.5939 83.9635 34.5939C82.0602 34.9769 81.5335 34.5349 81.5335 34.5349C80.1856 34.2387 81.6208 34.0929 81.6208 34.0929C81.6208 34.0929 79.1597 34.2387 81.8255 34.1206C84.4914 34.0339 84.7847 32.7381 84.7847 32.7381C85.7519 30.9978 84.258 30.704 84.258 30.704C82.2074 30.4102 79.982 32.089 79.982 32.089C75.0022 34.3278 71.2243 32.4719 71.2243 32.4719C67.3577 30.9689 67.8557 28.081 67.8557 28.081C67.9431 24.3392 70.287 22.8664 70.287 22.8664L70.1409 11.2845C70.0236 10.9895 69.7303 10.9015 69.7303 10.9015C69.7303 10.9015 68.1191 10.2524 67.8557 9.89955C67.6211 9.54548 68.0018 9.39855 68.0018 9.39855L71.7223 6.92249C72.1592 6.30228 72.7158 6.92009 72.7158 6.92009ZM0.542012 5.15216C-0.0146257 4.76919 0.600669 4.56325 0.600669 4.56325L6.19578 0.437284H20.9868C24.1794 0.731135 23.916 4.8571 23.916 4.8571L23.8574 20.0615C18.6729 21.0635 16.1829 25.4857 16.1829 25.4857C11.3492 24.1008 3.06065 25.3376 3.06065 25.3376C2.32804 25.3966 2.82602 24.8366 2.82602 24.8366C5.6966 19.7677 11.2031 19.9158 11.2031 19.9158C11.5587 19.9086 11.907 19.9182 12.2458 19.9399L12.2745 5.30631L0.542012 5.15216ZM7.92315 5.97711C9.0065 5.47611 8.8018 6.21315 8.8018 6.21315V14.6698C8.71442 18.2358 5.93123 20.1819 5.93123 20.1819C5.11123 21.302 1.9773 22.5978 1.9773 22.5978C0.893951 23.0097 1.53798 21.9487 1.53798 21.9487C2.56267 20.418 2.56267 19.3257 2.56267 19.3257V9.1601C2.56267 8.86505 2.67998 8.74702 2.67998 8.74702L7.92315 5.97711ZM12.7414 19.982C15.3019 20.241 17.1801 21.1538 17.1801 21.1538L17.1418 14.6156L17.1023 14.6457C17.0963 14.6385 15.0469 11.9168 12.7509 14.7457L12.7414 19.982ZM17.137 13.9533L17.1215 11.211C16.3374 11.9493 14.5094 13.1909 12.7569 10.8919L12.7509 13.9966C14.6806 12.0264 16.4164 13.2535 17.137 13.9533ZM17.1167 10.4957L17.0903 5.9181C17.295 5.15216 16.2416 5.35809 16.2416 5.35809L12.7689 5.31233L12.7605 10.0079C14.7249 13.2837 16.9156 10.7426 17.1167 10.4957ZM57.5418 3.32522C57.5418 3.32522 63.9856 1.23333 64.8056 1.02739C65.6543 0.821456 65.5969 1.23334 65.5969 1.23334C65.5969 1.23334 65.4221 19.6797 65.5681 20.3289C65.7142 20.978 66.0074 20.8022 66.0074 20.8022C66.0074 20.8022 67.5014 21.8632 67.8234 22.0089C68.1753 22.157 67.9994 22.5099 67.9994 22.5099L64.3675 25.34C64.3675 25.34 58.4503 22.717 57.9823 22.4232C57.3969 22.0089 57.7776 21.774 57.7776 21.774L58.8322 20.713C58.8322 20.713 59.007 5.62545 58.7149 4.82941C58.4216 4.03336 57.4843 3.7094 57.4843 3.7094C57.2784 3.38423 57.5418 3.32522 57.5418 3.32522ZM50.3079 6.4492C50.5126 6.9502 51.0393 6.86228 51.0393 6.86228C53.3831 5.9193 54.3204 3.67929 54.3204 3.67929C54.9058 1.46938 53.5292 0.880474 53.5292 0.880474C52.2986 0.143437 51.3912 0.732343 51.3912 0.732343C49.9846 1.49828 49.604 2.97236 49.604 2.97236C49.2532 4.91732 50.3079 6.4492 50.3079 6.4492ZM49.2532 7.45118C49.2532 7.45118 45.4454 9.80923 45.1521 10.2512C44.8588 10.6932 45.0946 10.9003 45.0946 10.9003C45.0946 10.9003 46.7346 11.9312 47.1739 12.1083C47.642 12.2552 47.466 12.4912 47.466 12.4912L47.5833 20.153C47.642 20.3602 47.5833 20.8889 47.5833 20.8889C47.5833 20.8889 46.9381 21.42 46.5874 21.715C46.178 22.0679 46.4988 22.4232 46.4988 22.4232L52.3872 25.399C52.3872 25.399 56.3698 22.5111 56.7218 22.3642C57.0725 22.216 56.7218 21.9222 56.7218 21.9222C56.7218 21.9222 54.9932 20.9202 54.7011 20.7721C54.409 20.6239 54.5263 20.3301 54.5263 20.3301C54.5263 20.3301 54.2917 12.755 54.4677 12.107C54.6137 11.488 54.8184 11.694 54.8184 11.694C54.8184 11.694 55.3451 11.547 55.8144 11.252C56.2537 10.9569 55.8443 10.692 55.8443 10.692C55.8443 10.692 50.3665 7.80525 49.9571 7.45118C49.5453 7.09711 49.2532 7.45118 49.2532 7.45118ZM24.985 20.2108C24.9706 20.1518 25.4387 24.6608 31.1799 25.3978L34.9877 22.3051C34.9877 22.3051 35.1924 21.9499 35.4857 22.2437L41.9296 25.3978L45.8548 22.3051C45.8548 22.3051 46.0307 21.9499 45.7374 21.597L43.0129 19.7689V12.254C43.0129 12.254 42.9842 11.9011 43.2176 11.8421L44.2722 10.9882C44.2722 10.9882 44.4482 10.6932 44.0975 10.3102C43.7742 9.89834 37.3603 6.71535 37.3603 6.71535C37.3603 6.71535 37.1257 6.36249 36.5391 6.77436C36.5391 6.77436 29.5387 9.60329 26.7854 13.2271C26.7866 13.2271 24.59 14.6409 24.985 20.2108ZM30.4772 17.795C30.6531 18.1178 29.3052 15.8789 29.9505 13.433C29.9505 13.433 30.039 11.2821 32.5278 10.1922L35.8963 12.4021L35.8377 21.1237C35.8377 21.1237 35.3983 21.862 34.315 21.361C34.315 21.361 31.5318 19.976 30.4772 17.795ZM191.901 7.68602C191.901 7.68602 188.094 10.014 187.8 10.486C187.508 10.928 187.741 11.134 187.741 11.134C187.741 11.134 189.382 12.1649 189.822 12.313C190.29 12.4611 190.114 12.7249 190.114 12.7249L190.231 20.3867C190.29 20.5938 190.231 21.1225 190.231 21.1225C190.231 21.1225 189.586 21.6235 189.235 21.9198C188.826 22.2726 189.149 22.6255 189.149 22.6255L195.036 25.6314C195.036 25.6314 199.02 22.7435 199.371 22.5665C199.722 22.4208 199.371 22.1245 199.371 22.1245C199.371 22.1245 197.671 21.1225 197.35 20.9768C197.056 20.8287 197.173 20.5348 197.173 20.5348C197.173 20.5348 196.94 12.9609 197.114 12.313C197.262 11.7241 197.467 11.9011 197.467 11.9011C197.467 11.9011 197.993 11.753 198.463 11.4591C198.903 11.1641 198.491 10.9292 198.491 10.9292C198.491 10.9292 193.013 8.0413 192.604 7.68723C192.223 7.33317 191.901 7.68602 191.901 7.68602ZM133.67 5.18106C132.762 4.68007 133.407 4.44403 133.407 4.44403L137.975 1.49707C138.209 1.29114 138.415 1.5862 138.415 1.5862L142.575 4.03215C142.575 4.03215 148.197 1.02619 148.579 0.791349C148.812 0.643219 149.018 0.850365 149.018 0.850365L153.765 3.50225L158.539 0.496299C159.064 0.0543175 159.211 0.348168 159.211 0.348168L164.807 3.64918C165.275 3.94423 165.069 4.03215 165.069 4.03215V19.298C165.275 21.1815 166.857 21.921 166.857 21.921C167.296 22.2738 167.091 22.54 167.091 22.54L162.783 25.6326C159.064 24.3645 158.713 21.3309 158.713 21.3309V6.74305C158.625 6.24206 158.274 6.12403 158.274 6.12403L155.399 4.64996L155.42 11.1328H158.509L155.435 15.5911L155.454 20.9575L157.603 22.4208C157.895 22.7736 157.428 22.8326 157.428 22.8326L152.973 25.6314L146.355 22.0956C145.74 21.6813 146.208 21.4465 146.208 21.4465L147.643 20.5336V15.8476H144.491L144.503 21.8632L145.565 22.5388C145.888 22.8916 145.506 23.1265 145.506 23.1265L141.083 25.6314L135.313 22.5665C134.815 22.2413 135.341 21.9788 135.341 21.9788L136.982 21.0358V7.5391L133.818 5.24127L133.67 5.18106ZM155.001 4.46811C154.127 4.19473 154.263 4.74028 154.263 4.74028L154.321 10.6631V11.1352H155.025L155.001 4.46811ZM155.04 15.8488H154.321V20.1819C154.349 20.3 154.702 20.4457 154.702 20.4457L155.055 20.6878L155.04 15.8488ZM144.49 15.0106L147.085 11.134H147.642V6.74305C147.556 6.50821 147.232 6.27217 147.232 6.27217L144.473 4.8282L144.49 15.0106ZM144.077 4.73306C143.268 4.75112 143.221 5.30029 143.221 5.30029L143.16 21.037C143.16 21.1237 143.424 21.1827 143.424 21.1827L144.104 21.6151L144.077 4.73306ZM167.639 20.2108C167.624 20.1518 168.092 24.6608 173.835 25.3978L177.642 22.3051C177.642 22.3051 177.847 21.9499 178.14 22.2437L184.583 25.3978L188.509 22.3051C188.509 22.3051 188.683 21.9499 188.391 21.597L185.668 19.7689V12.254C185.668 12.254 185.64 11.9011 185.874 11.8421L186.928 10.9882C186.928 10.9882 187.103 10.6932 186.754 10.3102C186.43 9.89834 180.015 6.71535 180.015 6.71535C180.015 6.71535 179.782 6.36249 179.194 6.77436C179.194 6.77436 172.194 9.60329 169.44 13.2271C169.439 13.2271 167.244 14.6409 167.639 20.2108ZM173.131 17.795C173.306 18.1178 171.959 15.8789 172.605 13.433C172.605 13.433 172.692 11.2821 175.182 10.1922L178.55 12.4021L178.491 21.1237C178.491 21.1237 178.052 21.862 176.968 21.361C176.968 21.361 174.186 19.976 173.131 17.795ZM200.191 3.32522C200.191 3.32522 206.603 1.23333 207.455 1.02739C208.273 0.821456 208.245 1.23334 208.245 1.23334C208.245 1.23334 208.07 19.8869 208.215 20.536C208.362 21.1827 208.654 21.037 208.654 21.037C208.654 21.037 210.148 22.098 210.471 22.2437C210.822 22.3919 210.646 22.7447 210.646 22.7447L207.015 25.5748C207.015 25.5748 201.098 22.9519 200.63 22.6279C200.044 22.2449 200.424 21.9812 200.424 21.9812L201.479 20.9491C201.479 20.9491 201.654 5.59655 201.361 4.8005C201.069 4.00445 200.132 3.7106 200.132 3.7106C199.927 3.35413 200.191 3.32522 200.191 3.32522ZM192.956 6.68525C193.162 7.18624 193.687 7.09712 193.687 7.09712C196.032 6.12403 196.969 3.88522 196.969 3.88522C197.554 1.70422 196.177 1.11531 196.177 1.11531C194.948 0.349373 194.04 0.967183 194.04 0.967183C192.632 1.73312 192.254 3.2072 192.254 3.2072C191.901 5.15216 192.956 6.68525 192.956 6.68525Z" fill="#AB3C3E"/>
<path fill-rule="evenodd" clip-rule="evenodd" d="M102.475 9.95618L102.886 9.75024V10.0453L103.032 9.89838L103.206 10.3102L102.973 10.3404L103.12 10.4873C103.442 10.7233 103.238 10.9293 103.238 10.9293L103.09 11.0473C102.621 11.2231 102.768 10.4873 102.768 10.4873L102.621 10.6342L102.446 10.1922H102.681L102.475 9.95618Z" fill="#E9AFB0"/>
<path fill-rule="evenodd" clip-rule="evenodd" d="M102.036 11.8119C102.388 11.8408 102.416 12.107 102.416 12.107C102.445 11.606 102.826 12.048 102.826 12.048C102.702 12.0867 102.591 12.1578 102.504 12.2539C102.504 12.549 102.943 12.549 102.943 12.549C103.324 12.3418 103.265 12.107 103.265 12.107C103.324 11.7818 102.943 11.9589 102.943 11.9589L102.796 11.6349L103.031 11.606V11.488L102.826 11.37L103.471 11.046L103.382 11.311L103.441 11.37L103.587 11.1929L103.704 11.665C103.411 11.606 103.528 11.871 103.528 11.871C103.695 12.0516 103.828 12.0685 103.925 12.0299C104.007 11.9901 104.074 11.9235 104.114 11.8409C104.29 11.6349 104.085 11.5458 104.085 11.5458C103.852 11.6337 103.822 11.7228 103.822 11.7228C103.704 11.1038 104.026 11.2206 104.026 11.2206C103.939 10.9268 104.026 10.7786 104.026 10.7786C104.261 10.8967 104.29 11.1315 104.29 11.1315C104.641 10.7485 104.699 11.1604 104.699 11.1604C104.231 11.2495 104.436 11.5145 104.436 11.5145C104.546 11.6891 104.632 11.7168 104.7 11.6735C104.849 11.5759 104.904 11.1279 104.904 11.1279C104.641 10.7449 103.967 10.6763 103.967 10.7148L103.938 10.9545L103.586 11.0135L103.527 10.8365L103.44 10.8076V10.6594C104.289 10.3355 105.051 11.0424 105.051 11.0424L105.08 12.2214C103.821 12.3984 102.268 13.4293 102.268 13.4293L101.653 12.3683C101.859 11.5145 102.649 11.0424 102.649 11.0424L102.766 11.1604L102.619 11.3375L102.677 11.5434L102.327 11.8384L102.033 11.6903C101.908 11.9143 101.786 12.1323 101.829 12.3683L102.033 12.8103C102.444 12.9874 102.298 12.4864 102.298 12.4864C102.181 12.3382 102.033 12.6622 102.033 12.6622C101.77 12.1612 102.122 12.1901 102.122 12.1901C101.977 12.048 102.036 11.8119 102.036 11.8119ZM92.5166 22.5977C92.136 23.5997 92.3407 24.8956 92.3407 24.8956H92.106V23.2746C91.4321 23.1264 91.7254 22.8627 91.7254 22.8627C91.9887 22.5086 92.5166 22.5977 92.5166 22.5977ZM93.8047 25.5736C93.9519 25.8084 93.922 26.1336 93.922 26.1336C93.8633 25.8988 93.6287 25.9265 93.6287 25.9265C93.5126 25.5736 93.8047 25.5736 93.8047 25.5736ZM94.3613 25.5736C94.5086 25.4869 94.5086 25.2797 94.5086 25.2797C94.8318 25.4255 94.6259 25.8988 94.6259 25.8988C94.5672 25.6916 94.3613 25.5736 94.3613 25.5736ZM93.9806 24.4259C94.4499 24.3368 94.5672 24.7787 94.5672 24.7787C94.7719 24.9859 94.7719 24.6896 94.7719 24.6896C94.5074 23.8635 93.9806 24.4259 93.9806 24.4259ZM94.6247 24.9859C94.7707 25.0449 94.8294 24.9269 94.8294 24.9269C94.9467 25.1906 94.7995 25.3978 94.7995 25.3978C94.7707 25.1629 94.6247 25.1629 94.6247 25.1629V24.9859Z" fill="#E9AFB0"/>
<path fill-rule="evenodd" clip-rule="evenodd" d="M94.9766 24.6307C94.6833 23.542 93.9219 24.2778 93.9219 24.2778C93.7172 23.601 94.0105 23.0687 94.0105 23.0687C94.4499 23.1277 95.0352 23.0687 95.0352 23.0687C95.1813 23.0687 95.1226 23.1578 95.1226 23.1578C95.2399 23.6865 94.9179 23.6865 94.9179 23.6865C95.1525 23.8936 95.2112 23.8045 95.2112 23.8045C95.6804 23.8635 96.0898 22.9229 96.0898 22.9229C96.5292 22.8928 97.0571 23.2758 97.0571 23.2758C97.3504 23.542 97.0571 23.6287 97.0571 23.6287C96.6465 23.542 95.9139 23.6877 95.9139 23.6877C95.8265 23.7467 95.8552 23.9249 95.8552 23.9249C95.9139 24.1008 95.9438 24.6897 95.9438 24.6897C95.5631 24.6018 94.9766 24.6307 94.9766 24.6307ZM96.9098 21.3887C97.0272 20.9467 97.9058 20.4758 97.9058 20.4758C98.3451 20.3 98.9892 20.1506 98.9892 20.1506C99.7517 20.1807 100.278 21.0045 100.278 21.0045L99.9851 21.2393L100.102 21.3284C100.367 21.0623 100.659 21.3586 100.659 21.3586C100.922 21.5043 101.566 21.7415 101.566 21.7415C101.273 22.1811 100.366 22.0053 100.366 22.0053C100.395 22.4786 99.8678 22.8001 99.8678 22.8001C100.22 23.0964 101.566 23.3625 101.566 23.3625C102.064 22.6544 102.591 23.1554 102.591 23.1554C102.708 23.2421 102.856 23.3902 102.856 23.3902C102.562 23.5384 102.65 23.9213 102.65 23.9213C102.064 24.0393 100.424 24.0393 100.424 24.0393C98.8132 23.8021 97.9932 23.3902 97.9932 23.3902C97.8471 23.3011 97.9357 23.1831 97.9357 23.1831L97.9058 23.0073C97.8771 22.8001 98.053 22.8314 98.053 22.8314C98.6384 22.7423 99.1364 22.0956 99.1364 22.0956C99.2836 21.7427 98.9604 21.8017 98.9604 21.8017C97.9645 21.7439 96.9098 21.3887 96.9098 21.3887Z" fill="#E9AFB0"/>
<path fill-rule="evenodd" clip-rule="evenodd" d="M102.124 22.8339C102.505 22.3052 103.032 22.6581 103.032 22.6581C103.149 22.7448 103.266 23.011 103.266 23.011C103.032 23.011 102.973 23.2181 102.973 23.2181C102.768 22.8026 102.124 22.8339 102.124 22.8339ZM102.827 23.8636C102.768 23.6288 102.974 23.5409 102.974 23.5409C103.092 23.6276 103.208 23.8347 103.208 23.8347C103.09 23.8636 102.827 23.8636 102.827 23.8636ZM103.032 23.365C103.295 23.4831 103.325 23.8046 103.325 23.8046L103.53 23.7769C103.588 23.3349 103.354 23.1001 103.354 23.1001C103.09 23.1278 103.032 23.365 103.032 23.365ZM103.325 22.5678C103.472 22.6569 103.442 22.9508 103.442 22.9508C103.647 23.0989 103.706 23.3927 103.706 23.3927C103.853 23.3036 104.086 23.3337 104.086 23.3337C103.969 22.5088 103.325 22.5678 103.325 22.5678ZM103.764 23.5108L103.793 23.7456L104.115 23.7179C104.144 23.5421 104.056 23.424 104.056 23.424C103.882 23.3927 103.764 23.5108 103.764 23.5108ZM105.815 17.146C105.873 17.3808 105.815 17.7951 105.815 17.7951C105.726 17.9709 105.493 18.3238 105.493 18.3238L105.902 18.7381L106.899 18.7658C107.017 18.4129 107.601 17.8228 107.601 17.8228C107.982 16.0549 108.948 15.3178 108.948 15.3178V15.1709C108.714 15.1119 108.685 14.8759 108.685 14.8759C108.684 14.7842 108.704 14.6935 108.744 14.6115C108.785 14.5294 108.845 14.4586 108.919 14.405C109.036 14.523 109.036 14.3159 109.036 14.3159C108.978 14.2568 108.889 14.2568 108.889 14.2568L108.83 14.3749L108.568 14.7867C108.451 15.1697 107.717 16.2897 107.717 16.2897C107.484 16.5258 106.721 17.3796 106.721 17.3796L106.604 17.3206C106.343 17.3531 105.815 17.146 105.815 17.146ZM107.515 22.1258L107.718 21.7729L107.865 21.803C107.924 22.2149 108.189 22.5088 108.189 22.5088L108.159 23.0989C108.073 22.8917 107.867 22.8917 107.867 22.8917C108.013 22.3631 107.515 22.1258 107.515 22.1258ZM106.194 24.8656H105.99L105.492 25.4256C105.462 25.7508 105.052 25.8989 105.052 25.8989C105.844 25.8399 105.961 25.546 105.961 25.546C105.92 25.6992 105.861 25.8468 105.785 25.9856C106.282 25.7219 106.166 25.6051 106.166 25.6051C106.254 25.3088 106.224 25.2799 106.224 25.2799C106.254 25.1318 106.282 25.1041 106.282 25.1041C106.343 24.8656 106.194 24.8656 106.194 24.8656ZM106.546 25.1029C106.869 25.1619 107.044 25.1305 107.044 25.1305C107.456 25.5135 107.017 26.0735 107.017 26.0735C106.899 25.8074 106.958 25.6906 106.958 25.6906C107.017 25.5448 106.899 25.3654 106.899 25.3654C106.722 25.6026 106.838 26.0145 106.838 26.0145C106.488 25.8664 106.401 25.5135 106.401 25.5135C106.401 25.2799 106.546 25.1029 106.546 25.1029ZM109.826 21.6838L110.091 21.4791C110.208 21.7729 110.005 22.0668 110.005 22.0668C109.969 21.9292 109.908 21.7994 109.826 21.6838ZM109.417 22.0668C109.505 21.9801 109.623 21.803 109.623 21.803C109.797 22.0668 109.709 22.4221 109.709 22.4221C109.564 22.3329 109.623 22.392 109.623 22.392L109.417 22.0668Z" fill="#E9AFB0"/>
<path fill-rule="evenodd" clip-rule="evenodd" d="M109.328 19.0909V20.0929C110.179 20.0038 110.091 20.6529 110.091 20.6529C110.442 20.7709 110.208 21.3887 110.208 21.3887C110.355 21.744 110.181 22.1559 110.181 22.1559C110.62 23.1856 111.937 23.5697 111.937 23.5697L111.878 19.0608L109.328 19.0909ZM109.153 17.3218L109.183 17.9119C108.713 18.9139 108.978 20.2687 108.978 20.2687C108.927 20.2768 108.88 20.2971 108.839 20.3277C108.799 20.3583 108.766 20.3984 108.744 20.4445C108.421 18.3238 109.153 17.3218 109.153 17.3218ZM111.028 23.2759L110.998 25.487L111.935 26.2517L112.728 25.546V23.542L112.405 23.5697V25.2798L111.935 25.8085L111.409 25.4256V23.542L111.028 23.2759Z" fill="#E9AFB0"/>
<path fill-rule="evenodd" clip-rule="evenodd" d="M111.907 24.3054C111.993 24.3054 112.054 24.2464 112.054 24.1296C112.054 24.0128 111.993 23.9248 111.907 23.9248C111.848 23.9248 111.789 24.0115 111.789 24.1296C111.789 24.2476 111.849 24.3054 111.907 24.3054ZM112.171 24.7787C112.23 24.7787 112.289 24.6896 112.289 24.6029C112.289 24.4848 112.23 24.3957 112.171 24.3957C112.083 24.3957 112.024 24.4848 112.024 24.6029C112.024 24.6896 112.083 24.7787 112.171 24.7787ZM111.936 25.1315C111.994 25.1315 112.055 25.0448 112.055 24.9557C112.055 24.8666 111.994 24.7799 111.936 24.7799C111.849 24.7799 111.791 24.8666 111.791 24.9557C111.791 25.0448 111.849 25.1315 111.936 25.1315ZM111.702 24.7474C111.791 24.7474 111.849 24.6607 111.849 24.5426C111.849 24.4535 111.791 24.3644 111.702 24.3644C111.616 24.3644 111.557 24.4535 111.557 24.5426C111.557 24.6607 111.615 24.7474 111.702 24.7474ZM109.183 22.3628C109.154 22.1256 109.27 22.0967 109.27 22.0967C109.387 22.3905 109.623 22.5676 109.623 22.5676V22.5399C109.709 22.7446 109.974 22.9518 109.974 22.9518C110.003 23.1589 109.799 23.1589 109.799 23.1589C109.417 22.8337 109.183 22.3628 109.183 22.3628ZM109.768 22.5387C109.915 22.3628 109.885 22.2135 109.885 22.2135C109.974 22.3616 110.032 22.3616 110.032 22.3616L110.121 22.3026L110.296 22.5664C110.09 22.5965 109.972 22.8325 109.972 22.8325C109.799 22.7434 109.768 22.5387 109.768 22.5387ZM108.685 22.8024L108.889 23.0987C108.889 22.9807 108.948 22.8915 108.948 22.8915L109.183 22.6567L109.066 22.4496L108.83 22.7157C108.772 22.7434 108.685 22.8024 108.685 22.8024ZM108.363 22.2737L108.538 22.5086C108.568 22.3905 108.627 22.3628 108.627 22.3628L108.919 22.0967L108.744 21.9787L108.363 22.2737ZM107.631 19.0016V19.3268L107.717 19.2979L108.158 19.2678L107.631 19.8856L107.982 20.1216H108.48V19.8856H107.954L108.48 19.2979V19.0317L108.391 19.0606H107.717L107.631 19.0016ZM107.69 18.2658L107.66 18.5596L107.717 18.5006L108.391 18.5897L108.48 18.7078L108.538 18.3549H108.421L107.807 18.2658L107.69 18.1779V18.2658ZM108.215 16.6749L108.421 16.8218L108.274 16.8808C108.04 17.0868 108.188 17.2048 108.188 17.2048C108.332 17.2939 108.362 17.1169 108.362 17.1169C108.596 16.7929 108.772 16.9687 108.772 16.9687C109.066 17.1747 108.86 17.4998 108.86 17.4998L108.772 17.6179L108.744 17.7058L108.511 17.6179L108.628 17.5299C108.745 17.4408 108.714 17.2951 108.714 17.2951C108.656 17.029 108.511 17.2951 108.511 17.2951C108.158 17.648 107.983 17.265 107.983 17.265C107.834 16.9976 108.215 16.6749 108.215 16.6749ZM109.066 15.7018V15.9379C108.713 15.8487 108.743 16.2028 108.743 16.2028C108.829 16.6147 109.124 16.5557 109.124 16.5557V16.7327C108.712 16.7917 108.567 16.4075 108.567 16.4075C108.421 15.7319 109.066 15.7018 109.066 15.7018ZM109.328 18.9426H111.877V15.1719L109.212 15.1418L109.328 18.9426ZM109.125 11.4289C109.8 10.8364 110.617 10.4302 111.495 10.2499V10.8388C110.619 10.722 109.125 11.4289 109.125 11.4289ZM112.289 10.28V10.8099C114.103 10.7509 114.955 11.5469 114.955 11.5469C113.869 10.2198 112.289 10.28 112.289 10.28ZM111.643 10.2499V10.84H112.141V10.2499H111.643ZM108.391 11.8119C108.216 10.9869 108.83 11.3109 108.83 11.3109L108.391 11.8119ZM109.036 11.164C108.978 10.3101 109.534 10.781 109.534 10.781L109.036 11.164ZM109.826 10.604C109.799 9.75011 110.354 10.2511 110.354 10.2511L109.826 10.604ZM110.589 10.1921C110.706 9.07208 111.175 9.95604 111.175 9.95604L110.589 10.1921ZM111.496 9.63088H112.289C112.406 9.80792 112.171 10.0729 112.171 10.0729C111.907 10.162 111.643 10.044 111.643 10.044C111.234 9.95604 111.496 9.63088 111.496 9.63088ZM111.526 8.30493H112.289L112.055 8.65901L112.2 8.80714L112.375 8.56988L112.405 9.30692L112.024 9.01307L112.2 9.45505L111.526 9.42494L111.818 9.07087L111.732 8.98296L111.438 9.24791L111.409 8.54098L111.702 8.80714L111.791 8.71801L111.526 8.30493ZM114.806 10.9279L115.245 11.341C115.394 10.4269 114.806 10.9279 114.806 10.9279ZM114.573 10.7509L114.045 10.4558C114.659 9.83802 114.573 10.7509 114.573 10.7509ZM113.285 10.0151L113.81 10.2511C113.81 9.33703 113.285 10.0151 113.285 10.0151ZM113.079 9.98495C113.02 9.57187 112.787 9.57187 112.787 9.57187C112.522 9.51286 112.492 9.95484 112.492 9.95484L113.079 9.98495ZM109.183 14.4939C111.994 13.9339 114.514 14.4939 114.514 14.4939C114.865 14.5529 114.72 14.8178 114.72 14.8178C114.455 14.9058 114.339 14.8468 114.339 14.8468C112.171 14.4048 109.271 14.9359 109.271 14.9359C108.832 14.9648 108.92 14.7588 108.92 14.7588C109.009 14.4349 109.183 14.4939 109.183 14.4939ZM112.024 15.1719V18.9739H114.455L114.543 15.1719H112.024ZM114.455 19.0907H112.024L112.054 23.5997C113.401 23.3648 113.781 22.5387 113.781 22.5387C113.84 22.1244 114.454 20.4167 114.454 20.4167L114.455 19.0907ZM112.931 23.4829V23.9248C113.459 24.2777 114.103 24.4535 114.103 24.4535C114.368 24.3644 114.251 24.1284 114.251 24.1284C114.165 24.0586 114.065 24.0089 113.959 23.9826C113.402 23.9248 112.931 23.4829 112.931 23.4829ZM113.841 22.6266L113.986 22.7747L113.459 23.5419L113.371 23.3347L113.841 22.6266ZM114.102 22.8638L113.607 23.5696C114.367 24.0706 114.806 22.8927 114.806 22.8927C114.367 23.0096 114.102 22.8638 114.102 22.8638ZM114.603 17.0868V17.7949C114.865 18.2658 114.923 19.2678 114.923 19.2678L115.159 18.8559C115.129 17.8226 114.603 17.0868 114.603 17.0868ZM112.903 25.2484V25.5735C113.136 25.7807 113.751 25.9264 113.751 25.9264C113.899 25.8674 113.751 25.6627 113.751 25.6627C113.402 25.6627 112.903 25.2484 112.903 25.2484Z" fill="#E9AFB0"/>
<path fill-rule="evenodd" clip-rule="evenodd" d="M113.869 25.1317L114.016 24.603C114.514 24.5729 114.339 24.0129 114.339 24.0129C114.749 23.8949 115.215 23.129 115.215 23.129L115.335 23.4252L115.51 23.7781C115.596 23.9539 115.655 24.0442 115.627 24.0442L115.363 24.2791V24.131L114.865 24.5729L115.04 23.6011L114.571 24.6898C114.308 24.986 113.869 25.1317 113.869 25.1317ZM113.957 25.3979C114.367 26.0169 115.716 26.0169 115.716 26.0169C115.569 25.664 115.188 25.5159 115.188 25.5159C115.775 25.2811 116.301 25.8098 116.301 25.8098C116.624 26.106 116.974 26.106 116.974 26.106C116.891 25.9854 116.793 25.8761 116.682 25.7809C116.857 25.8676 117.033 25.8086 117.033 25.8086C116.829 25.4557 116.243 25.1317 116.243 25.1317C116.858 24.8066 117.386 25.546 117.386 25.546C117.648 25.9266 117.884 26.0169 117.884 26.0169L117.707 25.4268C117.884 25.9579 118.585 26.106 118.585 26.106C118.674 26.0169 118.585 25.8399 118.585 25.8399C118.382 25.8399 118.205 25.546 118.205 25.546L118.177 24.9559C117.532 24.8668 117.532 24.5139 117.532 24.5139C117.62 23.9852 118.088 23.9262 118.088 23.9262L118.03 23.247C118.41 22.8941 119.143 23.1013 119.143 23.1013C119.084 22.687 118.762 22.805 118.762 22.805C118.762 22.4823 118.384 22.4521 118.384 22.4521V22.5413L117.327 23.3674C117.474 24.1912 117.094 24.4561 117.094 24.4561C116.362 24.9294 115.836 24.2803 115.836 24.2803L115.424 24.5464C115.804 24.5741 116.069 24.9294 116.069 24.9294L116.01 24.9884C115.821 24.8339 115.601 24.7229 115.365 24.6633L115.014 24.809L114.84 24.9571L113.957 25.3979Z" fill="#E9AFB0"/>
<path fill-rule="evenodd" clip-rule="evenodd" d="M116.3 22.4219C116.623 21.9486 116.768 21.1827 116.768 21.1827L116.888 21.3308L116.713 21.8908L116.83 22.0089L117.034 21.538L117.181 21.7138L116.948 22.0968L117.122 22.2425L117.356 21.9197L117.503 22.0378L117.18 22.3629L117.325 22.5676L117.589 22.1558L117.795 22.3039L117.444 22.6568L117.589 22.7748L117.942 22.4809L118.06 22.5676L117.209 23.2758C116.915 22.6267 116.3 22.4219 116.3 22.4219ZM119.317 23.1277C120.05 22.9518 119.436 22.5676 119.436 22.5676C118.791 22.3328 118.703 22.4496 118.703 22.4496C118.938 22.5387 118.908 22.6845 118.908 22.6845C119.23 22.7158 119.317 23.1277 119.317 23.1277ZM119.347 23.8358L119.611 23.1867C119.199 23.3348 118.938 23.2457 118.938 23.2457C118.499 23.1867 118.321 23.3047 118.321 23.3047C118.059 23.4528 118.264 23.4829 118.264 23.4829C118.585 23.8045 119.347 23.8358 119.347 23.8358ZM120.195 23.7455L120.343 23.9249L121.046 23.6877L120.635 23.9839L121.397 24.0429L121.046 23.5106L120.195 23.7455ZM118.087 10.7221C118.029 10.1922 117.737 9.95612 117.737 9.95612C117.413 9.75018 117.386 9.92721 117.386 9.92721C117.386 10.1922 117.589 10.2801 117.589 10.2801L118.087 10.7221ZM118.76 11.1339C118.701 10.81 118.674 10.7811 118.674 10.7811C118.557 10.5751 118.468 10.4571 118.468 10.4571L118.087 10.1922C118.205 10.4282 118.235 10.7221 118.235 10.7221L118.76 11.1339ZM118.79 10.663C118.965 10.9581 118.937 11.1929 118.937 11.1929L119.405 11.665C119.405 11.1929 119.172 10.8991 119.172 10.8991L118.791 10.604L118.79 10.663ZM117.884 13.934C117.678 14.052 117.531 13.993 117.531 13.993C117.531 14.288 118.059 14.288 118.059 14.288C118.264 14.288 118.439 14.0821 118.439 14.0821V13.9641C118.264 14.0821 118.059 14.1122 118.059 14.1122L117.884 13.934ZM118.527 15.9668L118.585 15.7609C119.142 15.6128 118.733 15.2009 118.733 15.2009C118.938 15.113 118.997 15.172 118.997 15.172C119.259 15.0239 119.348 15.3478 119.348 15.3478C119.554 15.172 119.699 15.2888 119.699 15.2888C119.259 15.7019 119.787 15.8488 119.787 15.8488C120.052 15.8488 120.11 15.5839 120.11 15.5839C119.993 15.4646 119.963 15.3779 119.963 15.3779C120.05 15.4112 120.129 15.4611 120.197 15.5248C120.169 15.3478 120.344 15.3478 120.344 15.3478C120.43 15.4959 120.402 15.6128 120.402 15.6128C120.491 15.5248 120.667 15.6128 120.667 15.6128C120.402 15.9078 120.753 16.1728 120.753 16.1728C121.165 16.4076 121.106 15.7308 121.106 15.7308C121.398 15.7308 121.368 15.9957 121.368 15.9957L121.546 15.8488C121.604 16.0258 121.604 16.1439 121.604 16.1439C121.722 15.9957 121.896 16.115 121.896 16.115C121.426 16.4088 121.749 16.675 121.749 16.675C121.896 16.793 122.014 16.7039 122.014 16.7039L121.986 16.4979L122.364 16.5569L121.986 16.9989C119.992 15.8488 118.527 15.9668 118.527 15.9668ZM119.436 11.046L119.815 11.2821C119.787 11.5181 119.581 11.753 119.581 11.753C119.639 11.5181 119.436 11.046 119.436 11.046ZM121.25 11.2821C122.042 11.0761 122.569 12.1359 122.569 12.1359L121.985 11.9011C121.748 11.6349 121.25 11.2821 121.25 11.2821ZM122.042 12.0769C122.217 12.313 122.305 12.6959 122.305 12.6959C122.51 12.932 123.097 13.286 123.097 13.286C122.95 12.313 122.042 12.0769 122.042 12.0769ZM122.422 13.05C123.448 13.433 123.126 14.5229 123.126 14.5229C122.979 14.1399 122.716 14.0219 122.716 14.0219C122.422 13.728 122.422 13.05 122.422 13.05ZM122.599 14.1989C122.627 14.4349 122.54 14.8468 122.54 14.8468C122.685 15.0829 122.803 15.5538 122.803 15.5538C122.92 15.4357 123.067 14.7288 123.067 14.7288C122.979 14.406 122.599 14.1989 122.599 14.1989ZM122.482 15.1419C122.421 15.4658 122.07 16.0547 122.07 16.0547L122.217 16.2318L122.392 16.3498C122.891 15.7019 122.482 15.1419 122.482 15.1419ZM128.515 24.7198L128.253 23.7178C128.047 23.3926 127.725 23.5997 127.725 23.5997C127.46 23.8045 127.138 23.6865 127.138 23.6865C126.788 23.6274 127.08 23.3926 127.08 23.3926C127.55 23.0988 128.017 22.9506 128.017 22.9506C128.37 23.0988 129.013 23.0686 129.013 23.0686C129.57 22.9819 129.452 23.4516 129.452 23.4516C129.482 23.8936 129.335 24.6607 129.335 24.6607C128.984 24.6607 128.515 24.7198 128.515 24.7198ZM129.452 24.9269L129.6 25.0726L129.16 25.8675L128.954 25.7494C129.246 25.5146 129.452 24.9269 129.452 24.9269ZM129.716 25.1316L129.365 25.8988C130.008 26.0168 130.478 25.5736 130.478 25.5736L130.39 25.1027C130.066 25.2484 129.716 25.1316 129.716 25.1316ZM131.035 24.8065C131.18 24.8366 131.474 24.9546 131.474 24.9546C131.591 24.4259 131.327 23.7756 131.327 23.7756C131.825 23.9514 131.825 23.7455 131.825 23.7455C131.972 23.3336 131.474 23.2168 131.474 23.2168C130.623 22.9506 130.331 23.0096 130.331 23.0096C130.39 23.2445 130.361 23.3926 130.361 23.3926C130.388 23.4516 130.388 23.6865 130.388 23.6865C131.21 23.9839 131.035 24.8065 131.035 24.8065ZM114.631 15.673V15.9078L114.923 15.7019L114.631 16.3799L114.603 16.793L115.071 15.7898L114.923 15.5248L114.631 15.673ZM114.72 16.9399H114.837L115.451 16.4678L115.51 16.3498L115.655 16.675H115.569L115.012 17.1169L115.098 17.353L115.247 17.4999L115.041 17.5878L114.72 16.9399ZM115.247 18.237L115.335 18.5898L115.48 18.5007L115.716 18.414L115.919 18.5597H116.211L115.861 18.3237L116.125 18.0298L116.008 17.677L115.949 17.8227L115.686 18.1779L115.335 18.2659L115.247 18.237ZM115.716 20.3288C115.569 20.3589 115.627 20.4469 115.627 20.4469C115.919 20.8298 116.095 20.5059 116.095 20.5059C116.184 20.33 116.154 20.212 116.154 20.212L116.068 20.1843C116.068 20.5372 115.893 20.4481 115.893 20.4481C115.775 20.4457 115.716 20.3288 115.716 20.3288ZM115.394 20.8876L115.335 21.2718L115.451 21.479L115.51 21.1237L115.802 21.2718L115.655 21.5657L115.569 21.5958L115.775 21.7138L115.978 21.2405L116.067 21.1237H115.978L115.394 20.8298V20.8876ZM109.623 24.1296C109.564 24.3645 109.358 24.3368 109.358 24.3368L109.035 23.9538C108.829 23.6286 109.007 23.5419 109.007 23.5419L109.417 22.9518C109.507 23.008 109.579 23.0897 109.623 23.1867L109.328 23.5696C109.242 23.7768 109.387 23.8358 109.387 23.8358L109.623 24.1296Z" fill="#E9AFB0"/>
<path fill-rule="evenodd" clip-rule="evenodd" d="M110.032 22.8915C110.149 23.3925 109.651 23.2745 109.651 23.2745C109.477 23.6274 109.74 23.6274 109.74 23.6274C110.149 23.6575 110.297 23.2444 110.297 23.2444C110.297 22.9819 110.032 22.8915 110.032 22.8915ZM118.701 14.7299L118.351 14.406C118.351 14.406 118.643 14.1699 118.584 13.8761C118.584 13.8761 118.79 13.8472 118.38 13.8472L118.233 13.9351C118.233 13.9351 118.086 13.8761 118.058 13.7869L118 13.4341L118.264 13.1101L118.498 13.139C118.669 12.9042 119.113 12.5031 119.491 12.178L119.611 12.3141C119.464 12.638 119.639 12.7259 119.639 12.7259C119.872 12.8741 119.962 12.579 119.962 12.579C120.195 12.697 120.109 12.5501 120.109 12.5501C119.873 12.4971 119.611 12.184 119.562 12.1202C119.864 11.8625 120.109 11.6662 120.109 11.6662C120.254 11.3422 120.49 11.1941 120.49 11.1941C120.342 11.0182 120.225 10.5461 120.225 10.5461C120.957 10.5461 121.074 11.3121 121.074 11.3121C123.33 13.1101 121.925 15.939 121.925 15.939C121.25 15.379 119.727 15.025 119.727 15.025C119.933 14.6131 120.429 14.347 120.429 14.347C121.397 14.3771 121.25 13.198 121.25 13.198C121.046 12.785 121.105 13.404 121.105 13.404C120.693 14.7588 119.639 13.5521 119.639 13.5521C119.521 13.463 119.639 13.758 119.639 13.758C119.697 13.905 119.756 13.8761 119.756 13.8761L119.844 13.964L119.113 14.259C118.996 14.4361 118.79 14.7311 118.79 14.7311L118.701 14.7299ZM105.082 12.402C103.853 12.52 102.359 13.6099 102.359 13.6099C102.183 13.7279 102.154 13.6978 102.154 13.6978C101.861 14.2277 102.476 14.4638 102.476 14.4638C102.392 14.9482 102.475 15.447 102.711 15.8776C102.974 16.2028 103.033 17.0277 103.033 17.0277C103.238 16.8796 103.296 16.5557 103.296 16.5557C103.531 17.5564 104.292 17.7636 104.292 17.7636C104.391 17.7854 104.484 17.8282 104.565 17.889C104.646 17.9499 104.713 18.0274 104.761 18.1164C104.849 17.8226 104.82 17.5287 104.82 17.5287C104.907 17.9117 105.259 18.1164 105.259 18.1164C105.318 17.7636 105.435 17.4396 105.435 17.4396C105.699 16.8808 105.494 16.3208 105.494 16.3208C105.611 16.5268 105.875 16.5858 105.875 16.5858C105.699 16.0559 105.875 15.6127 105.875 15.6127C105.963 15.0828 105.757 14.7287 105.757 14.7287L105.701 14.5156C105.574 14.8865 105.639 15.4658 105.639 15.4658C105.493 15.4369 105.346 15.3778 105.346 15.3778C105.434 15.9077 105.082 16.6147 105.082 16.6147C104.877 16.9386 104.848 17.1747 104.848 17.1747C104.584 16.8218 103.764 16.5858 103.764 16.5858C103.632 16.4197 103.515 16.2424 103.413 16.0559C103.296 16.2618 103.179 16.204 103.179 16.204C103.091 15.9089 102.828 15.5549 102.828 15.5549C102.623 15.202 102.623 14.8479 102.623 14.8479C102.888 15.3489 102.975 15.467 102.975 15.467C103.18 15.5862 103.18 15.9968 103.18 15.9968C103.356 15.9089 103.385 15.703 103.385 15.703C103.795 16.3798 104.352 16.499 104.352 16.499C104.587 16.6171 104.791 16.823 104.791 16.823C104.82 16.3509 104.996 16.1462 104.996 16.1462C105.347 15.6151 105.142 14.9672 105.142 14.9672C105.18 15.0503 105.237 15.1232 105.308 15.1796C105.379 15.236 105.463 15.2742 105.553 15.2911C105.494 15.0262 105.524 14.7901 105.524 14.7901C105.572 14.5999 105.593 14.3313 105.603 14.1254L105.524 13.8171C105.348 13.4341 105.319 13.1691 105.319 13.1691C105.609 12.6368 105.082 12.402 105.082 12.402ZM103.882 15.0238C104.115 15.3477 104.438 15.4658 104.438 15.4658C104.613 15.0828 104.555 14.7889 104.555 14.7889C104.292 14.8178 104.175 14.7299 104.175 14.7299C104.086 15.0539 103.882 15.0238 103.882 15.0238ZM102.738 13.7279C103.149 13.846 103.295 13.6689 103.295 13.6689C103.734 13.4919 103.793 13.964 103.793 13.964C103.793 14.1699 103.882 14.3168 103.882 14.3168C104.007 14.3301 104.231 14.2891 104.321 14.1988C104.438 14.0507 104.262 13.9038 104.262 13.9038C104.204 13.6978 104.145 13.5798 104.145 13.5798C104.145 13.1077 104.468 13.1378 104.468 13.1378C104.673 13.1667 104.819 12.9608 104.819 12.9608C104.835 13.0769 104.811 13.1949 104.753 13.2963C104.695 13.3977 104.605 13.4767 104.497 13.5208C104.292 13.6689 104.35 13.846 104.35 13.846C104.554 14.1988 104.378 14.2289 104.378 14.2289C104.358 14.2772 104.327 14.32 104.288 14.3539C104.248 14.3879 104.201 14.4119 104.151 14.424C104.243 14.6697 104.467 14.642 104.467 14.642C104.789 14.4662 104.789 14.1121 104.789 14.1121C104.935 14.524 104.789 14.642 104.789 14.642C104.935 14.9069 104.7 15.025 104.7 15.025C104.7 15.526 104.437 15.762 104.437 15.762C103.441 15.1731 103.412 14.4951 103.412 14.4951C103.734 15.0551 104.056 14.7901 104.056 14.7901C104.12 14.7251 104.107 14.5372 104.095 14.4385C103.955 14.4638 103.822 14.4373 103.822 14.4373C103.646 14.2012 103.676 14.0254 103.676 14.0254C103.528 13.7002 103.441 13.9664 103.441 13.9664C102.914 14.2867 102.738 13.7279 102.738 13.7279ZM95.9725 23.8634C96.7925 24.3644 99.8103 24.3644 99.8103 24.3644C102.71 24.3945 104.292 23.9838 104.292 23.9838C104.643 23.9838 105.229 23.7177 105.229 23.7177C105.347 23.6876 105.287 23.9248 105.287 23.9248C105.112 24.6016 105.258 25.2797 105.258 25.2797C105.258 25.7506 104.76 25.7217 104.76 25.7217C100.513 26.3094 97.1157 26.0155 97.1157 26.0155C96.1197 25.8397 96.0898 25.3074 96.0898 25.3074C96.3244 24.4836 96.0024 24.0115 96.0024 24.0115C95.8839 23.9248 95.9725 23.8634 95.9725 23.8634ZM96.9098 25.6036L96.9984 25.5145V24.6607L96.9397 24.5125C97.5837 24.4848 97.7884 24.7474 97.7884 24.7474C98.2278 25.4856 97.4652 25.6626 97.4652 25.6626C97.2784 25.6991 97.085 25.6785 96.9098 25.6036ZM98.3738 24.6306L98.8131 24.6607C98.6958 24.7197 98.7257 24.8955 98.7257 24.8955L98.697 25.6903L98.8143 25.8662L98.3451 25.8385C98.4624 25.7494 98.4624 25.6903 98.4624 25.6903V24.8365C98.4624 24.7197 98.3738 24.6306 98.3738 24.6306ZM97.2904 24.6607L97.2617 25.4868C97.5837 25.5145 97.6424 25.2496 97.6424 25.2496C97.7011 25.1038 97.5837 24.8967 97.5837 24.8967C97.4664 24.6607 97.2904 24.6607 97.2904 24.6607ZM99.2824 24.7197H100.131L100.16 24.9268C100.043 24.8654 99.8965 24.8654 99.8965 24.8654H99.7205V25.1906H99.8091L100.014 25.1315L99.9851 25.3977L99.839 25.3676H99.7217V25.7229H99.9264C100.044 25.7229 100.131 25.6337 100.131 25.6337V25.8686L99.4871 25.8409H99.3111C99.2824 25.8108 99.3111 25.8108 99.3111 25.8108C99.3698 25.8108 99.4284 25.7518 99.4284 25.7518V24.8389C99.3997 24.7787 99.2824 24.7197 99.2824 24.7197ZM100.6 24.6896L101.04 24.7197C101.012 24.7648 100.993 24.814 100.981 24.8654V25.4555C101.01 25.6903 101.186 25.6626 101.186 25.6626C101.39 25.6325 101.362 25.3664 101.362 25.3664V24.7787L101.303 24.7197H101.625C101.596 24.7474 101.596 24.8064 101.596 24.8064V25.4254C101.566 25.8084 101.157 25.8397 101.157 25.8397C100.718 25.8096 100.718 25.3977 100.718 25.3977V24.8076C100.687 24.7605 100.647 24.7203 100.6 24.6896ZM102.738 24.5715L103.441 24.5125L103.528 24.7197C103.441 24.6896 103.324 24.6896 103.324 24.6896H103.149V24.9858H103.324C103.352 24.9557 103.412 24.9268 103.412 24.9268L103.441 25.1906C103.382 25.1315 103.324 25.1315 103.324 25.1315H103.149V25.4567H103.354C103.412 25.4567 103.501 25.3676 103.501 25.3676V25.5747L102.827 25.6638L102.886 25.6048L102.857 24.6619C102.856 24.6016 102.738 24.5715 102.738 24.5715ZM103.999 24.4535L104.028 24.6884C104.086 24.5703 104.291 24.5703 104.291 24.5703L104.32 25.4242L104.261 25.4856L104.612 25.4242L104.553 25.3965L104.524 24.5426C104.699 24.4836 104.788 24.5703 104.788 24.5703L104.759 24.3355L104.729 24.3632L104.056 24.4246H103.998L103.999 24.4535ZM105.696 23.5105C105.492 23.1276 105.638 22.8638 105.638 22.8638C105.814 22.3327 106.312 22.3905 106.312 22.3905C106.604 22.5664 106.576 22.3315 106.576 22.3315C106.868 21.9196 107.219 22.1557 107.219 22.1557C107.315 22.2757 107.45 22.3587 107.6 22.3905C107.806 22.6567 107.688 22.8024 107.688 22.8024C107.672 22.8954 107.694 22.9909 107.747 23.0686C108.011 23.1276 107.98 23.4238 107.98 23.4238C108.039 23.7466 107.833 24.2777 107.833 24.2777C107.658 24.4258 107.455 24.3054 107.455 24.3054C107.308 24.3355 107.366 24.3945 107.366 24.3945C107.513 24.6293 107.366 24.7474 107.366 24.7474C107.133 25.0135 106.81 24.9846 106.81 24.9846C106.342 24.9846 106.312 24.7474 106.312 24.7474C106.253 24.5426 105.99 24.5426 105.99 24.5426C105.609 24.4246 105.579 24.0416 105.579 24.0416C105.55 23.8345 105.696 23.7454 105.696 23.7454C105.844 23.6587 105.696 23.5105 105.696 23.5105ZM106.488 23.7767C106.605 24.2187 106.343 24.3957 106.343 24.3957C106.107 24.4258 106.078 24.2476 106.078 24.2476C106.078 24.0718 105.931 24.0428 105.931 24.0428C105.844 23.6876 106.019 23.6876 106.019 23.6876C106.313 23.5997 106.488 23.7767 106.488 23.7767ZM107.044 23.5997C107.103 23.8935 107.515 24.1284 107.515 24.1284C107.718 24.1284 107.632 23.8345 107.632 23.8345C107.515 23.6864 107.573 23.5997 107.573 23.5997C107.865 23.5406 107.659 23.2745 107.659 23.2745C107.103 23.1276 107.044 23.5997 107.044 23.5997ZM106.635 23.1276C106.635 22.5676 106.282 22.5989 106.282 22.5989C106.107 22.6266 106.107 22.8036 106.107 22.8036C106.166 23.0999 106.048 23.0999 106.048 23.0999C105.785 23.1589 105.961 23.4527 105.961 23.4527C106.048 23.5708 106.107 23.5418 106.107 23.5418C106.37 23.5418 106.576 23.3937 106.576 23.3937C106.721 23.3648 106.635 23.1276 106.635 23.1276ZM107.017 22.5086C107.103 22.6844 107.25 22.6567 107.25 22.6567C107.573 22.6567 107.367 22.9818 107.367 22.9818C107.193 23.2167 106.958 23.2456 106.958 23.2456C106.635 22.865 106.664 22.6579 106.664 22.6579C106.664 22.1846 107.017 22.5086 107.017 22.5086ZM106.811 23.9248C107.25 23.9838 107.22 24.4535 107.22 24.4535C107.103 24.6607 106.987 24.5715 106.987 24.5715C106.839 24.4258 106.753 24.5438 106.753 24.5438C106.753 24.8076 106.547 24.6306 106.547 24.6306C106.429 24.0115 106.811 23.9248 106.811 23.9248Z" fill="#E9AFB0"/>
<path fill-rule="evenodd" clip-rule="evenodd" d="M107.219 25.1027C107.658 24.9847 107.658 24.5716 107.658 24.5716C107.694 24.5603 107.728 24.5446 107.759 24.5246C108.08 24.7269 108.156 24.9859 108.156 24.9859C108.274 25.0449 108.451 25.3387 108.451 25.3387C108.421 24.9558 108.245 24.8654 108.245 24.8654C108.179 24.6796 108.072 24.5115 107.931 24.3741C108.156 24.0923 108.156 23.6587 108.156 23.6587C108.48 23.5407 108.772 23.9526 108.772 23.9526C108.654 24.0116 108.538 23.9827 108.538 23.9827C109.009 24.1874 108.919 24.9256 108.919 24.9256C108.713 24.9256 108.627 24.8365 108.627 24.8365C108.978 25.2484 108.627 26.0456 108.627 26.0456C108.274 25.8975 108.215 25.4856 108.215 25.4856C108.274 25.7795 108.156 25.8662 108.156 25.8662C107.864 25.8072 107.747 25.4242 107.747 25.4242C107.717 25.7795 107.541 25.6314 107.541 25.6314C107.455 25.5724 107.455 25.3652 107.455 25.3652C107.309 25.3387 107.219 25.1027 107.219 25.1027ZM110.881 24.7787C110.76 24.7511 110.642 24.7124 110.528 24.6631C110.455 24.863 110.261 25.3496 110.032 25.6037C110.032 25.6037 110.292 25.0786 110.444 24.6258C110.188 24.5056 109.951 24.3486 109.74 24.1597C109.71 24.6017 109.242 24.3644 109.242 24.3644C109.009 24.8064 109.446 24.9268 109.446 24.9268C109.799 24.8967 109.974 24.6896 109.974 24.6896C110.383 24.6029 110.091 24.9268 110.091 24.9268C109.944 25.0726 109.623 25.1316 109.623 25.1316C109.183 25.2797 109.417 25.6326 109.417 25.6326C109.65 25.9577 109.885 25.8397 109.885 25.8397C110.091 25.8674 110.091 26.0155 110.091 26.0155C110.238 26.3684 110.472 26.1637 110.472 26.1637C110.736 25.8674 110.589 25.5736 110.589 25.5736C110.442 25.1906 110.53 25.0449 110.53 25.0449C110.442 24.5138 110.677 24.8967 110.677 24.8967C110.736 24.9859 110.795 25.2219 110.795 25.2219C110.881 25.4266 110.912 25.2809 110.912 25.2809L110.881 24.7787ZM106.313 22.2424L106.488 21.9197C106.46 21.5644 106.107 21.3597 106.107 21.3597C106.048 21.4777 106.107 21.6234 106.107 21.6234C105.931 21.3597 105.404 21.1814 105.404 21.1814C105.346 21.3296 105.404 21.6234 105.404 21.6234C105.14 21.1224 104.583 21.0947 104.583 21.0947C104.583 21.3296 104.7 21.4777 104.7 21.4777C104.437 21.2706 103.909 21.3296 103.909 21.3296C103.998 21.8607 104.437 22.2135 104.437 22.2135L104.378 22.3617C104.056 22.1244 103.969 22.3027 103.969 22.3027C103.94 22.3304 103.969 22.3894 103.969 22.3894C104.144 22.6832 104.789 22.9494 104.789 22.9494C104.613 23.0084 104.554 23.1565 104.554 23.1565C104.789 23.6274 105.492 23.5985 105.492 23.5985C105.4 23.2773 105.406 22.9358 105.51 22.6182C105.435 22.5712 105.038 22.3171 104.906 22.1834C104.906 22.1834 104.789 22.0377 104.556 21.8306L104.145 21.5054C104.145 21.5054 104.468 21.6234 104.702 21.8017C104.702 21.8017 105.227 22.2509 105.607 22.4484C105.899 22.1654 106.313 22.2424 106.313 22.2424ZM118.264 23.7767C118.439 24.5126 118.321 25.4869 118.321 25.4869C121.603 26.7526 127.226 25.9854 127.226 25.9854C128.163 25.8674 128.194 25.7217 128.194 25.7217C128.545 25.6916 128.486 25.1617 128.486 25.1617C128.28 24.8955 128.163 23.8345 128.163 23.8345C127.4 24.2765 123.097 24.3945 123.097 24.3945C119.611 24.4849 118.264 23.7767 118.264 23.7767ZM118.674 24.2187L118.997 24.2777L119.172 24.9268L119.523 24.4259L119.815 24.4536L119.787 24.5427V25.4856L119.846 25.6037L119.436 25.5447L119.495 25.4555V24.9545L119.114 25.4555L118.85 24.8365V25.3965L118.616 25.2785L118.644 25.2195L118.674 24.3632V24.2187ZM120.226 24.6607C119.728 25.1316 120.226 25.6627 120.226 25.6627C120.519 25.9264 120.899 25.6627 120.899 25.6627C121.339 25.0437 120.869 24.6607 120.869 24.6607C120.43 24.4259 120.226 24.6607 120.226 24.6607ZM120.548 24.6896C120.05 24.9268 120.401 25.4567 120.401 25.4567C120.519 25.7229 120.693 25.5157 120.693 25.5157C120.929 25.2809 120.752 24.8967 120.752 24.8967C120.693 24.6306 120.548 24.6896 120.548 24.6896ZM121.309 24.6306H121.544L121.925 25.1617L121.895 24.7474L121.865 24.6607L122.246 24.6884L122.187 24.7775V25.7795L122.217 25.8662H122.011L121.602 25.2472V25.6615L121.629 25.7795L121.337 25.7494L121.365 25.6037L121.395 24.7474L121.309 24.6306ZM123.156 24.6896H123.565C124.004 24.6896 124.093 25.2797 124.093 25.2797C124.093 25.9264 123.475 25.8987 123.475 25.8987L123.154 25.8686L123.272 25.7819L123.242 24.7799L123.156 24.6896ZM123.506 24.8377V25.7807C123.887 25.6326 123.799 25.1906 123.799 25.1906C123.712 24.8377 123.506 24.8377 123.506 24.8377ZM124.296 24.6896L124.471 24.6619C124.707 24.5439 124.999 24.6318 124.999 24.6318C125.291 24.957 124.969 25.2508 124.969 25.2508L125.234 25.6651C125.283 25.6776 125.325 25.7087 125.351 25.7518C125.206 25.8108 125.118 25.7518 125.118 25.7518C124.853 25.576 124.794 25.3399 124.794 25.3399H124.65V25.7819L124.677 25.8686H124.385L124.413 25.7819L124.385 24.7498L124.296 24.6896ZM124.65 25.2207V24.7474C124.767 24.6294 124.853 24.7775 124.853 24.7775C125 25.0124 124.853 25.1605 124.853 25.1605C124.794 25.2484 124.65 25.2207 124.65 25.2207ZM125.938 24.4849C126.494 24.4548 126.494 25.1906 126.494 25.1906C126.436 25.7807 125.908 25.7807 125.908 25.7807C125.41 25.7217 125.382 25.1039 125.382 25.1039C125.468 24.4259 125.938 24.4849 125.938 24.4849ZM125.938 24.6607C126.23 24.6884 126.202 25.1316 126.202 25.1316C126.23 25.5459 125.938 25.6326 125.938 25.6326C125.79 25.6627 125.732 25.4567 125.732 25.4567C125.557 24.8967 125.79 24.7209 125.79 24.7209C125.822 24.6607 125.938 24.6607 125.938 24.6607ZM126.669 24.4536L127.078 24.4259L127.02 24.5439L127.05 25.5736L127.108 25.6326L126.758 25.6627L126.785 25.6037L126.758 24.5427L126.669 24.4536ZM127.373 24.3644L127.4 24.6607L127.489 24.5716L127.636 24.5439V25.4869L127.606 25.5736L127.898 25.5145L127.871 25.4254V24.4536H128.074L128.047 24.2187L127.988 24.2464L127.46 24.3644H127.373ZM115.394 23.0409C115.401 23.1156 115.413 23.1866 115.429 23.2529C115.441 23.2449 115.455 23.2376 115.468 23.2312C115.561 22.9698 115.51 22.8639 115.51 22.8639L115.596 22.8024C115.636 22.9036 115.596 23.0842 115.566 23.1902C115.645 23.1651 115.729 23.1565 115.812 23.1649C115.85 23.0279 115.867 22.8857 115.861 22.7434L115.439 22.6917C115.345 22.847 115.394 23.0409 115.394 23.0409ZM115.466 23.3865C115.539 23.6129 115.652 23.7864 115.779 23.92C115.915 23.8165 115.885 23.419 115.868 23.2709C115.724 23.2553 115.58 23.2967 115.466 23.3865ZM115.845 23.9863C115.983 24.1127 116.125 24.1982 116.243 24.2524C116.303 24.1004 116.325 23.9359 116.308 23.7731C116.142 23.7731 115.967 23.8297 115.894 23.8526C115.877 23.9152 115.856 23.9598 115.845 23.9863ZM116.338 24.2922C116.422 24.3247 116.476 24.3367 116.476 24.3367C116.579 24.3512 116.663 24.3488 116.736 24.3367L116.714 24.0682C116.621 24.0634 116.457 24.1452 116.378 24.191L116.338 24.2922ZM116.829 24.3127C116.903 24.2855 116.967 24.2392 117.017 24.1785C117.067 24.1177 117.099 24.0447 117.112 23.967C117.023 23.9336 116.927 23.9253 116.834 23.9429L116.829 24.3127ZM117.121 23.849C117.112 23.4492 116.984 23.1722 116.81 22.9735C116.832 23.0481 116.906 23.3287 116.859 23.5046L117.004 23.4504L117.031 23.5395L116.828 23.5648C116.84 23.661 116.837 23.7583 116.821 23.8538C116.974 23.8044 117.075 23.8285 117.121 23.849ZM116.736 22.8964C116.626 22.7958 116.5 22.714 116.364 22.6543C116.387 22.6892 116.459 22.8217 116.45 23.0168C116.533 22.9522 116.632 22.9107 116.736 22.8964ZM116.194 22.5893C116.058 22.5449 115.917 22.5182 115.775 22.5098C115.672 22.5168 115.574 22.5574 115.497 22.6254L115.927 22.6555L116.194 22.5893ZM115.941 22.7579C115.962 22.8711 115.985 22.9747 115.946 23.0758C116.166 22.9915 116.308 23.0337 116.362 23.0566C116.367 22.9293 116.338 22.803 116.276 22.6917L115.941 22.7579ZM116.474 23.1601C116.513 23.2932 116.507 23.4355 116.457 23.5648C116.618 23.4901 116.719 23.4961 116.773 23.513C116.795 23.3597 116.774 23.2031 116.712 23.0614C116.623 23.0626 116.538 23.0979 116.474 23.1601ZM116.417 23.6876C116.449 23.8211 116.445 23.9604 116.408 24.0923C116.56 23.9273 116.697 23.9225 116.732 23.9225C116.774 23.8634 116.779 23.6732 116.774 23.6238C116.652 23.6249 116.532 23.6464 116.417 23.6876ZM116.373 23.2119C116.226 23.1683 116.069 23.179 115.929 23.242C115.954 23.4419 115.946 23.6069 115.922 23.731C116.051 23.6626 116.198 23.6349 116.343 23.6515C116.394 23.5106 116.404 23.3584 116.373 23.2119ZM109.125 14.2868L108.627 12.6959L108.889 11.9889L109.183 13.1379L108.919 13.0198C109.125 13.9327 109.856 13.4618 109.856 13.4618C110.179 13.109 109.884 12.9909 109.884 12.9909C109.505 12.7838 109.444 13.0198 109.444 13.0198C109.182 12.0178 109.856 12.4008 109.856 12.4008C109.826 11.7517 110.09 11.6939 110.09 11.6939C110.44 11.8119 110.44 12.3719 110.44 12.3719C110.821 11.7529 111.058 12.4008 111.058 12.4008C111.086 12.4899 111.028 12.6658 111.028 12.6658C110.56 12.4899 110.503 12.9909 110.503 12.9909C110.442 13.3149 111.028 13.4028 111.028 13.4028C111.732 13.1969 111.732 12.4297 111.732 12.4297C111.526 12.4598 111.175 12.7826 111.175 12.7826V11.4566C111.35 11.7806 111.791 11.9576 111.791 11.9576C111.702 11.3687 111.379 11.0448 111.379 11.0448L112.611 11.0159C112.199 11.3988 112.23 11.9588 112.23 11.9588C112.581 11.901 112.756 11.547 112.756 11.547L112.785 12.6959C112.521 12.284 112.258 12.461 112.258 12.461C112.14 13.3438 112.903 13.3739 112.903 13.3739C113.428 13.3739 113.459 12.9319 113.459 12.9319C113.342 12.402 112.989 12.6959 112.989 12.6959C112.844 11.8119 113.487 12.1949 113.487 12.1949C113.254 11.606 113.662 11.3988 113.662 11.3988C114.162 11.6939 113.926 12.1949 113.926 12.1949C114.601 11.842 114.483 12.6959 114.483 12.6959C113.84 12.4008 113.926 13.0788 113.926 13.0788C114.221 13.7858 114.805 13.2547 114.805 13.2547C114.922 13.0788 114.952 12.9018 114.952 12.9018L114.688 12.9608L114.952 12.048L115.186 12.52L115.36 12.0191L115.508 12.1949L114.656 14.3458C112.083 13.7569 109.125 14.2868 109.125 14.2868ZM113.488 13.8749C113.343 13.846 113.196 13.7858 113.226 13.7268C113.226 13.6389 113.343 13.6087 113.518 13.6388C113.663 13.6678 113.81 13.7268 113.783 13.7858C113.783 13.8749 113.663 13.9038 113.488 13.8749ZM110.324 13.9038C110.472 13.8749 110.589 13.8159 110.589 13.728C110.589 13.669 110.442 13.6401 110.297 13.669C110.122 13.669 110.005 13.7569 110.005 13.8159C110.005 13.8749 110.15 13.9339 110.324 13.9038ZM111.936 13.3149L112.347 13.669L111.936 13.9339L111.557 13.669L111.936 13.3149ZM117.443 17.9406C117.471 17.5288 117.705 17.0579 117.705 17.0579L117.364 16.6894L117.247 16.9013C117.31 16.9615 117.355 17.0495 117.355 17.1458C117.355 17.2795 117.271 17.3975 117.166 17.4469L117.138 17.5721L117.443 17.9406ZM117.271 16.5894L116.417 15.6729C115.833 14.8179 115.421 15.231 115.421 15.231L115.012 15.3791C115.335 15.585 115.51 15.9391 115.51 15.9391C115.861 15.8801 115.891 16.0571 115.891 16.0571L116.798 17.1615V17.147C116.798 16.97 116.915 16.823 117.063 16.823C117.095 16.823 117.131 16.8303 117.161 16.8447L117.271 16.5894Z" fill="#E9AFB0"/>
<path fill-rule="evenodd" clip-rule="evenodd" d="M116.067 16.4677C115.861 16.2329 115.716 16.0559 115.627 16.1438C115.627 16.1438 115.892 16.6448 116.095 17.2626C116.242 17.7046 116.36 18.2056 116.331 18.6764L116.768 18.7065L116.883 18.721L116.843 18.4946C116.718 18.4693 116.623 18.3344 116.623 18.1767C116.623 17.9695 116.74 17.8214 116.888 17.8214C116.895 17.8214 116.904 17.8214 116.912 17.8238L116.966 17.5697C116.893 17.483 116.818 17.389 116.74 17.2927C116.623 17.1446 116.476 16.9964 116.36 16.8495C116.272 16.7038 116.153 16.5858 116.067 16.4677ZM117.001 18.7355L117.472 18.7969C117.472 18.7969 117.325 18.5596 117.413 18.1176L117.102 17.7419L117.067 17.9021C117.104 17.9382 117.132 17.9814 117.152 18.029C117.171 18.0766 117.181 18.1276 117.18 18.1791C117.179 18.2438 117.16 18.307 117.124 18.3609C117.088 18.4148 117.038 18.4571 116.979 18.4826L117.001 18.7355Z" fill="#E9AFB0"/>
<path fill-rule="evenodd" clip-rule="evenodd" d="M113.986 22.5086C114.192 22.8025 114.807 22.7158 114.807 22.7158C114.896 22.6568 114.866 22.3039 114.866 22.3039C114.807 22.0968 114.838 21.9787 114.838 21.9787C114.983 22.0064 115.013 22.1835 115.013 22.1835C115.013 22.2425 114.925 22.5387 114.925 22.5387C115.57 22.1245 115.013 21.3296 115.013 21.3296C115.16 20.5035 115.364 20.2999 115.364 20.2999C116.037 19.7098 116.39 19.917 116.39 19.917C116.974 19.917 117.942 20.2421 117.942 20.2421C118.321 20.3601 119.67 20.595 119.67 20.595C119.686 20.5071 119.727 20.4256 119.787 20.3601C120.168 20.094 120.43 18.8271 120.43 18.8271C120.43 18.6223 120.519 18.709 120.519 18.709C120.577 18.9439 120.548 19.0342 120.548 19.0342C120.607 19.4762 120.254 20.271 120.254 20.271C120.958 20.6829 122.16 20.5962 122.16 20.5962C123.008 20.5962 123.681 20.1542 123.681 20.1542C124.471 19.8014 125.467 19.8881 125.467 19.8881L125.44 19.7122C124.708 19.3871 125.206 19.0041 125.206 19.0041L124.912 18.5922C124.122 18.5332 121.662 17.2374 121.662 17.2374C119.552 16.0584 118.44 16.2643 118.44 16.2643C117.531 17.2374 117.678 18.8584 117.678 18.8584L118.203 18.9174C118.176 17.7974 118.849 17.2073 118.849 17.2073C119.054 17.1194 118.907 17.3554 118.907 17.3554C118.176 18.4441 118.468 19.2112 118.468 19.2112C118.145 19.0631 116.211 18.9764 116.211 18.9764C116.054 18.9341 115.89 18.9252 115.729 18.9502C115.568 18.9753 115.414 19.0339 115.277 19.1221C114.923 19.4184 114.779 19.8893 114.779 19.8893L114.398 21.2164C114.016 22.0378 113.986 22.5086 113.986 22.5086ZM122.16 19.0607C122.042 19.6797 121.662 20.3589 121.662 20.3589C121.72 20.5637 121.954 20.2409 121.954 20.2409C122.218 19.7676 122.305 19.1185 122.305 19.1185C122.246 18.6211 122.16 19.0607 122.16 19.0607ZM121.191 18.6488C121.046 19.5617 120.607 20.1518 120.607 20.1518C120.518 20.3866 120.782 20.2108 120.782 20.2108C121.163 19.6797 121.28 18.7078 121.28 18.7078C121.25 18.4417 121.191 18.6488 121.191 18.6488ZM121.662 18.915C121.632 19.534 121.105 20.2108 121.105 20.2108C120.988 20.418 121.25 20.2999 121.25 20.2999C121.72 19.8857 121.807 18.8837 121.807 18.8837C121.748 18.5597 121.662 18.915 121.662 18.915ZM124.883 20.1217C125.09 20.0499 125.312 20.0313 125.528 20.0675L125.592 20.383C125.527 20.4171 125.472 20.469 125.435 20.5326C125.398 20.5963 125.379 20.6693 125.381 20.7431C125.381 20.9479 125.526 21.1237 125.704 21.1237H125.732V21.5825C125.417 21.6839 125.093 21.7581 124.766 21.8041C124.268 21.9221 124.618 22.216 124.618 22.216C124.883 22.4508 124.942 22.658 124.942 22.658C125.175 22.9241 124.794 23.1289 124.794 23.1289C124.004 23.277 123.125 24.0718 123.125 24.0718C122.509 24.1308 121.603 24.0441 121.603 24.0441C121.367 23.8659 121.191 23.454 121.191 23.454C121.514 23.1602 121.807 23.513 121.807 23.513C122.071 23.6612 122.569 23.6022 122.569 23.6022C123.008 23.3673 123.654 23.071 123.654 23.071C123.771 22.9843 123.946 23.012 123.946 23.012C124.12 22.953 123.916 22.8049 123.916 22.8049C123.621 22.5965 123.355 22.349 123.126 22.0691C122.892 21.6861 123.126 21.5091 123.126 21.5091C123.476 21.0948 124.883 20.1217 124.883 20.1217ZM125.709 20.1217C125.899 20.1974 126.062 20.3314 126.172 20.5047C126.347 20.8876 126.29 20.978 126.29 20.978C126.231 21.096 126.29 21.3308 126.29 21.3308C126.16 21.4106 126.023 21.4775 125.88 21.5307V21.0599C125.926 21.0209 125.963 20.9722 125.988 20.9172C126.013 20.8623 126.026 20.8024 126.025 20.7419C126.025 20.5444 125.892 20.3722 125.726 20.3589L125.709 20.1217Z" fill="#E9AFB0"/>
<path fill-rule="evenodd" clip-rule="evenodd" d="M132.117 19.2089C132.264 18.5899 132.147 17.9131 132.147 17.9131C131.941 17.4711 131.735 17.382 131.735 17.382C131.735 16.1163 130.975 15.9392 130.975 15.9392C130.975 16.1753 131.12 16.4992 131.12 16.4992C131.178 16.6173 130.975 16.4691 130.975 16.4691C130.945 16.0573 130.563 15.8501 130.563 15.8501C130.271 15.6743 130.124 15.4672 130.124 15.4672C129.801 15.9971 130.652 16.5583 130.652 16.5583C129.332 16.4993 127.048 16.9701 127.048 16.9701C125.437 17.3543 124.529 16.7943 124.529 16.7943C123.594 16.3523 123.944 15.4973 123.944 15.4973C124.384 14.6133 125.35 14.7012 125.35 14.7012C125.828 14.7148 126.301 14.7942 126.758 14.9373C128.163 15.3202 129.657 14.8782 129.657 14.8782C130.388 14.5254 130.623 13.7883 130.623 13.7883C130.184 14.1135 129.568 14.0533 129.568 14.0533C129.19 14.4074 127.957 14.4664 127.957 14.4664C128.778 14.1424 128.75 13.8173 128.75 13.8173C128.808 13.6113 129.128 13.3452 129.128 13.3452C128.63 13.4343 128.046 13.9052 128.046 13.9052C127.695 14.1713 126.785 14.1713 126.785 14.1713C126.64 14.2303 126.376 14.1424 126.376 14.1424C126.96 13.9654 126.991 13.7293 126.991 13.7293C125.614 13.3464 124.413 14.2014 124.413 14.2014C123.241 15.1745 123.594 16.1464 123.594 16.1464C123.797 17.0894 125.466 17.3832 125.466 17.3832C127.019 17.4723 128.866 17.2074 128.866 17.2074C130.271 17.0316 130.652 17.2375 130.652 17.2375C130.826 17.3555 130.652 17.3832 130.652 17.3832C129.801 17.2652 129.538 18.2672 129.538 18.2672C130.123 17.6193 130.915 17.7963 130.915 17.7963C131.06 17.824 130.915 17.8553 130.915 17.8553C130.503 17.7963 130.211 18.0624 130.211 18.0624C130.768 18.4153 131.177 18.2672 131.177 18.2672C131.413 18.2082 131.53 17.9733 131.53 17.9733C131.881 18.502 131.854 18.9163 131.705 19.2101C131.499 19.563 131.118 19.7111 131.118 19.7111C130.27 19.9183 129.068 19.4763 129.068 19.4763C128.717 19.3005 128.102 19.3282 128.102 19.3282C128.013 19.3005 127.868 19.2415 127.751 19.2101C126.872 18.944 125.231 18.7092 125.231 18.7092L125.379 18.9163C125.612 18.9753 125.729 19.0921 125.759 19.2101C125.787 19.3282 125.729 19.445 125.729 19.445C125.671 19.5931 125.582 19.6798 125.582 19.6798L125.702 19.9171C126.639 20.2109 126.462 21.0371 126.462 21.0371C126.55 21.7729 126.99 22.0668 126.99 22.0668C127.986 22.9507 129.01 22.8026 129.01 22.8026C129.364 22.8026 129.422 22.8917 129.422 22.8917C129.773 23.0989 129.714 24.0418 129.714 24.0418C129.714 24.4248 129.54 24.8367 129.54 24.8367C129.657 25.1305 130.241 24.9848 130.241 24.9848C130.33 24.9547 130.361 24.8367 130.361 24.8367C130.419 24.6609 130.272 24.4838 130.272 24.4838C130.214 24.3947 130.272 24.4248 130.272 24.4248C130.653 24.6006 130.623 25.0438 130.623 25.0438C131.209 24.3056 130.389 23.8046 130.389 23.8046C130.272 23.7769 130.184 23.7456 130.184 23.7456C130.097 23.365 130.066 22.5979 130.066 22.5979V22.3907L129.774 22.0656C128.953 22.2727 128.369 21.9789 128.369 21.9789C128.396 21.803 128.396 21.5959 128.396 21.5959C128.455 21.0648 128.279 19.7677 128.279 19.7677C128.512 19.8858 129.862 20.1206 129.862 20.1206C130.182 20.2687 130.828 20.241 130.828 20.241C131.59 20.4169 131.356 20.9468 131.356 20.9468C131.971 20.4458 131.442 20.0929 131.442 20.0929C131.856 19.9448 132.031 19.5919 132.117 19.2089ZM91.1986 19.5028C90.9352 18.8838 91.3446 18.0889 91.3446 18.0889C92.1059 16.881 93.1606 16.586 93.1606 16.586C93.7172 15.7321 94.5671 15.7321 94.5671 15.7321C94.4498 15.9682 94.2439 16.1741 94.2439 16.1741C94.7706 16.0561 95.2399 15.6141 95.2399 15.6141C95.2399 16.2921 94.6246 16.5571 94.6246 16.5571C96.8799 16.8521 99.9551 16.498 99.9551 16.498C101.216 16.2921 101.156 15.1131 101.156 15.1131C100.892 14.0521 99.5745 14.6711 99.5745 14.6711C96.7913 16.2921 95.4446 14.1412 95.4446 14.1412C96.1185 14.4062 97.4365 14.4062 97.4365 14.4062C96.9385 14.2002 96.2945 13.4632 96.2945 13.4632C96.7051 13.5222 96.9098 13.6992 96.9098 13.6992C97.6125 14.0822 98.4037 13.9943 98.4037 13.9943C98.1691 13.7293 97.7884 13.2874 97.7884 13.2874C98.2577 13.4933 98.7258 13.4933 98.7258 13.4933C99.019 13.5222 99.2525 13.5523 99.2525 13.5523C99.7504 13.6402 100.014 13.5523 100.014 13.5523C101.508 13.6992 101.684 15.0842 101.684 15.0842C101.83 16.8521 99.8091 16.999 99.8091 16.999C98.9879 17.2363 94.4486 17.1761 94.4486 17.1761C94.9179 17.382 95.0352 17.824 95.0352 17.824C95.1226 18.0311 95.2399 18.1793 95.2399 18.1793C94.7706 18.207 94.3026 17.5892 94.3026 17.5892C94.4498 17.883 94.8305 18.325 94.8305 18.325C94.5671 18.443 94.0105 17.765 94.0105 17.765C93.1318 17.0291 92.3705 17.7951 92.3705 17.7951C91.5493 18.4418 91.6965 19.0018 91.6965 19.0018C91.6937 19.0951 91.7104 19.188 91.7457 19.2743C91.7809 19.3607 91.834 19.4385 91.9012 19.5028C92.1945 19.8581 92.7212 19.7991 92.7212 19.7991C93.2779 19.7991 93.8345 19.6509 94.3026 19.5028C94.6166 19.4168 94.9211 19.2986 95.2111 19.1499C95.2998 19.15 95.3881 19.1601 95.4745 19.18C95.7379 19.0018 96.1197 19.0319 96.1197 19.0319C97.4078 18.9139 101.098 17.5566 101.098 17.5566C101.598 17.3218 102.505 16.3788 102.505 16.3788C102.827 16.5848 103.032 17.3519 103.032 17.3519C103.126 17.2869 103.197 17.1938 103.236 17.0857C103.412 17.7337 104.291 18.0877 104.291 18.0877C104.554 18.1154 104.76 18.3816 104.76 18.3816L104.848 18.1154C104.965 18.2937 105.844 18.9127 106.752 19.5004C107.369 19.9255 107.994 20.3386 108.627 20.7396C109.417 19.8557 109.973 20.3844 109.973 20.3844C109.856 20.5024 109.709 20.4735 109.709 20.4735C109.299 20.4434 109.036 20.6782 109.036 20.6782C110.005 20.5325 110.179 20.8564 110.179 20.8564C110.383 21.3273 109.709 21.5622 109.709 21.5622C109.709 20.9155 109.094 20.9432 109.094 20.9432C109.219 21.0077 109.326 21.1041 109.403 21.2228C109.48 21.3415 109.525 21.4784 109.533 21.62C109.327 22.18 108.829 21.7404 108.829 21.7404C108.654 21.6513 108.39 21.4152 108.39 21.4152C106.957 21.3261 105.579 20.3241 105.579 20.3241L104.846 20.6493C104.448 20.3462 104.126 19.952 103.909 19.4992C103.822 19.3535 103.763 19.2354 103.763 19.2354V19.4992C103.852 19.9135 104.114 20.2663 104.114 20.2663C102.854 21.7103 100.599 20.4145 100.599 20.4145C100.336 20.3253 99.5146 19.8834 99.5146 19.8834C97.172 19.8557 96.0874 21.9765 96.0874 21.9765L95.9114 22.2703C95.7367 23.5974 95.3261 23.5975 95.3261 23.5975C95.5308 23.0965 95.034 22.8616 95.034 22.8616C94.682 22.9206 93.862 22.8893 93.862 22.8893C93.3353 23.8323 93.7735 24.5103 93.7735 24.5103C94.7982 24.4826 94.3588 25.3052 94.3588 25.3052C94.2714 25.5713 94.0368 25.5713 94.0368 25.5713C94.0656 24.7175 93.2755 24.7765 93.2755 24.7765C93.9482 25.0426 93.8022 25.4533 93.8022 25.4533C93.6274 25.4232 93.4515 25.7194 93.4515 25.7194C92.4555 25.1004 92.6027 23.9226 92.6027 23.9226C92.72 21.8885 93.1594 21.5044 93.1594 21.5044C93.3066 21.4454 93.3641 21.5345 93.3641 21.5345C93.8034 21.7416 94.3888 21.5622 94.3888 21.5622C94.6234 21.5032 94.682 21.0335 94.682 21.0335C94.8293 20.2073 95.3847 19.5582 95.3847 19.5582C95.0041 19.7364 92.8661 20.2964 92.8661 20.2964C91.8701 20.5313 91.6068 21.3851 91.6068 21.3851C90.9627 20.5903 91.9874 20.1483 91.9874 20.1483C91.5493 20.0339 91.286 19.7991 91.1986 19.5028ZM102.651 18.826C102.916 19.3571 103.706 20.0351 103.706 20.0351C103.793 20.1218 103.94 20.2109 103.94 20.2109C103.882 20.2699 103.735 20.2699 103.735 20.2699C103.062 19.887 102.622 19.0909 102.622 19.0909C102.475 18.7971 102.651 18.826 102.651 18.826ZM101.684 19.4438C102.093 19.9448 102.24 20.0628 102.24 20.0628C102.534 20.4181 102.914 20.5939 102.914 20.5939C102.153 20.5939 101.684 19.74 101.684 19.74C101.566 19.5028 101.596 19.4149 101.596 19.4149L101.684 19.4438ZM102.182 19.0608C102.386 19.6509 103.265 20.241 103.265 20.241C103.47 20.3001 103.412 20.4458 103.412 20.4458C103.236 20.4759 103.178 20.3868 103.178 20.3868C102.388 20.1206 102.124 19.2391 102.124 19.2391C101.977 18.9151 102.182 19.0608 102.182 19.0608Z" fill="#E9AFB0"/>
</svg>
