<svg width="115" height="115" viewBox="0 0 115 115" fill="none" xmlns="http://www.w3.org/2000/svg">
<g clip-path="url(#clip0_1_344)">
<path d="M57.5045 111.443C87.2941 111.443 111.443 87.2941 111.443 57.5045C111.443 27.7149 87.2941 3.56561 57.5045 3.56561C27.7149 3.56561 3.56567 27.7149 3.56567 57.5045C3.56567 87.2941 27.7149 111.443 57.5045 111.443Z" fill="url(#paint0_linear_1_344)"/>
<path d="M57.5045 0C25.7972 0 0 25.7972 0 57.5045C0 89.2117 25.7972 115.009 57.5045 115.009C89.2117 115.009 115.009 89.2117 115.009 57.5045C115.009 25.7972 89.2028 0 57.5045 0ZM3.56562 57.5045C3.56562 27.7137 27.7137 3.56562 57.5045 3.56562C87.2952 3.56562 111.443 27.7137 111.443 57.5045C111.443 87.2952 87.2952 111.443 57.5045 111.443C27.7137 111.443 3.56562 87.2863 3.56562 57.5045Z" fill="url(#paint1_linear_1_344)"/>
<g opacity="0.83">
<path d="M34.3191 86.5642C34.3191 86.5642 41.1116 77.5878 46.7363 79.3528C52.3611 81.1177 58.1463 91.9394 58.1463 91.9394C58.1463 91.9394 76.6875 50.9972 103.367 34.3904L105.631 36.5743C105.631 36.5743 70.2248 76.7588 66.4542 101.513L55.7128 110.828C55.7128 110.828 50.2574 96.8154 34.3191 86.582V86.5642Z" fill="url(#paint2_linear_1_344)"/>
</g>
<path d="M16.5356 61.489C17.4002 61.489 18.0777 61.7475 18.559 62.2556C19.0404 62.7726 19.2811 63.5482 19.2811 64.6C19.2811 65.4112 19.1385 66.0798 18.8621 66.5879C18.5858 67.1049 18.149 67.4347 17.5607 67.5773V67.613C18.0777 67.7021 18.461 67.8982 18.7017 68.2102C18.9423 68.5133 19.0939 69.0036 19.1474 69.681C19.1652 69.9039 19.183 70.1535 19.1919 70.4209C19.2009 70.6883 19.2098 70.9825 19.2187 71.3123C19.2365 71.9541 19.2632 72.4444 19.3078 72.7831C19.3613 73.1219 19.495 73.3536 19.6822 73.4784V73.5765H17.427C17.32 73.4071 17.2576 73.211 17.2219 72.9881C17.1952 72.7653 17.1774 72.5424 17.1685 72.3018L17.115 69.9841C17.0971 69.5117 16.9902 69.1373 16.8119 68.8699C16.6247 68.6024 16.3216 68.4598 15.8848 68.4598H14.7706V73.5765H12.6936V61.4801H16.5356V61.489ZM15.6441 66.7751C16.1433 66.7751 16.5266 66.6413 16.803 66.3561C17.0704 66.0798 17.2041 65.6162 17.2041 64.9566C17.2041 63.8423 16.7227 63.2808 15.76 63.2808H14.7795V66.7661H15.6441V66.7751Z" fill="black"/>
<path d="M26.4925 63.4858H22.811V66.3294H26.2785V68.3261H22.811V71.5797H26.644V73.5765H20.734V61.4801H26.5014V63.4769L26.4925 63.4858Z" fill="black"/>
<path d="M31.8142 63.6462C31.6359 63.2451 31.315 63.049 30.8425 63.049C30.584 63.049 30.3701 63.1292 30.2007 63.2986C30.0314 63.4679 29.8976 63.7264 29.7996 64.0919C29.7015 64.4574 29.6391 64.9388 29.5946 65.5271C29.5589 66.1243 29.5411 66.8464 29.5411 67.7021C29.5411 68.6203 29.5678 69.3601 29.6213 69.9217C29.6748 70.4833 29.755 70.9201 29.8709 71.2321C29.9779 71.5441 30.1205 71.7491 30.2899 71.8561C30.4592 71.963 30.6553 72.0165 30.8782 72.0165C31.0654 72.0165 31.2348 71.9808 31.3952 71.9095C31.5557 71.8382 31.6894 71.6867 31.8052 71.4727C31.9211 71.2499 32.0103 70.9379 32.0816 70.5457C32.1529 70.1446 32.1796 69.6186 32.1796 68.959H34.2566C34.2566 69.6097 34.212 70.2337 34.1229 70.822C34.0338 71.4103 33.8733 71.9274 33.6415 72.3642C33.4009 72.8009 33.071 73.1486 32.6432 73.3982C32.2153 73.6478 31.6626 73.7726 30.9762 73.7726C30.1918 73.7726 29.5767 73.6299 29.1132 73.3358C28.6497 73.0416 28.2931 72.6227 28.0524 72.07C27.8028 71.5173 27.6513 70.8577 27.5711 70.0911C27.4998 69.3245 27.4641 68.4776 27.4641 67.5506C27.4641 66.6235 27.4998 65.7945 27.5711 65.019C27.6424 64.2435 27.8028 63.5838 28.0524 63.0312C28.302 62.4785 28.6497 62.0506 29.1132 61.7386C29.5767 61.4266 30.2007 61.2751 30.9762 61.2751C31.7518 61.2751 32.3044 61.4177 32.7323 61.703C33.1602 61.9882 33.4811 62.3448 33.695 62.7816C33.909 63.2183 34.0427 63.6819 34.0962 64.19C34.1496 64.6892 34.1764 65.1616 34.1764 65.6073H32.0994C32.0994 64.7248 32.0103 64.083 31.832 63.6819L31.8142 63.6462Z" fill="black"/>
<path d="M35.3263 65.0012C35.3976 64.2256 35.5581 63.566 35.8077 63.0133C36.0573 62.4607 36.4049 62.0328 36.8685 61.7208C37.332 61.4088 37.956 61.2573 38.7315 61.2573C39.507 61.2573 40.131 61.4088 40.5945 61.7208C41.0581 62.0328 41.4146 62.4607 41.6553 63.0133C41.9049 63.566 42.0564 64.2256 42.1277 65.0012C42.1991 65.7767 42.2347 66.6146 42.2347 67.5327C42.2347 68.4509 42.1991 69.3066 42.1277 70.0732C42.0564 70.8399 41.896 71.4995 41.6553 72.0522C41.4057 72.6048 41.0581 73.0327 40.5945 73.318C40.131 73.6121 39.507 73.7547 38.7315 73.7547C37.956 73.7547 37.332 73.6121 36.8685 73.318C36.4049 73.0238 36.0484 72.6048 35.8077 72.0522C35.5581 71.4995 35.4066 70.8399 35.3263 70.0732C35.255 69.3066 35.2194 68.4598 35.2194 67.5327C35.2194 66.6057 35.255 65.7767 35.3263 65.0012ZM37.3498 69.6097C37.3855 70.1802 37.4479 70.6437 37.5548 71.0003C37.6529 71.3569 37.8044 71.6154 37.9916 71.7758C38.1788 71.9363 38.4284 72.0254 38.7315 72.0254C39.0346 72.0254 39.2842 71.9452 39.4714 71.7758C39.6586 71.6154 39.8012 71.348 39.9081 71.0003C40.0062 70.6437 40.0775 70.1802 40.1132 69.6097C40.1488 69.0392 40.1667 68.3439 40.1667 67.5327C40.1667 66.7216 40.1488 66.0352 40.1132 65.4647C40.0775 64.9031 40.0151 64.4396 39.9081 64.0741C39.8101 63.7086 39.6586 63.4501 39.4714 63.2897C39.2842 63.1292 39.0346 63.0401 38.7315 63.0401C38.4284 63.0401 38.1788 63.1203 37.9916 63.2897C37.8044 63.4501 37.6618 63.7175 37.5548 64.0741C37.4568 64.4396 37.3855 64.8942 37.3498 65.4647C37.3142 66.0263 37.2963 66.7216 37.2963 67.5327C37.2963 68.3439 37.3142 69.0392 37.3498 69.6097Z" fill="black"/>
<path d="M46.6026 61.489L48.0734 70.0287H48.1001L49.5888 61.489H52.6641V73.5854H50.7565V63.9315H50.7298L48.8935 73.5854H47.2711L45.4348 63.9315H45.4081V73.5854H43.5005V61.489H46.5937H46.6026Z" fill="black"/>
<path d="M57.2995 61.489L58.7703 70.0287H58.797L60.2857 61.489H63.361V73.5854H61.4534V63.9315H61.4267L59.5904 73.5854H57.968L56.1317 63.9315H56.105V73.5854H54.1974V61.489H57.2906H57.2995Z" fill="black"/>
<path d="M70.617 63.4858H66.9355V66.3294H70.4031V68.3261H66.9355V71.5797H70.7685V73.5765H64.8585V61.4801H70.6259V63.4769L70.617 63.4858Z" fill="black"/>
<path d="M76.7142 69.7702H76.741V61.489H78.6486V73.5854H76.2775L73.737 65.117H73.7102V73.5854H71.8026V61.489H74.2005L76.7142 69.7702Z" fill="black"/>
<path d="M83.6137 61.489C84.3357 61.489 84.9151 61.6316 85.3608 61.908C85.8065 62.1843 86.1452 62.5765 86.3948 63.0936C86.6444 63.6106 86.8049 64.2256 86.894 64.9477C86.9832 65.6697 87.0277 66.4809 87.0277 67.3723C87.0277 68.4331 86.9743 69.3601 86.8584 70.1446C86.7514 70.929 86.5553 71.5797 86.2879 72.0878C86.0205 72.5959 85.655 72.9703 85.2004 73.2199C84.7457 73.4695 84.1752 73.5943 83.48 73.5943H80.1996V61.4979H83.6137V61.489ZM83.2125 71.7847C83.578 71.7847 83.8722 71.7134 84.095 71.5619C84.3179 71.4193 84.4962 71.1697 84.6209 70.8309C84.7457 70.4922 84.8349 70.0465 84.8795 69.4938C84.924 68.9412 84.9419 68.2548 84.9419 67.4258C84.9419 66.7394 84.924 66.1332 84.8884 65.6162C84.8527 65.0992 84.7725 64.6624 84.6477 64.3237C84.5229 63.985 84.3535 63.7175 84.1128 63.5482C83.8722 63.3699 83.5602 63.2897 83.168 63.2897H82.2855V71.7937H83.2125V71.7847Z" fill="black"/>
<path d="M94.159 63.4858H90.4775V66.3294H93.945V68.3261H90.4775V71.5797H94.3105V73.5765H88.4005V61.4801H94.1679V63.4769L94.159 63.4858Z" fill="black"/>
<path d="M98.8567 61.489C99.5787 61.489 100.158 61.6316 100.604 61.908C101.05 62.1843 101.388 62.5765 101.638 63.0936C101.887 63.6106 102.048 64.2256 102.137 64.9477C102.226 65.6697 102.271 66.4809 102.271 67.3723C102.271 68.4331 102.217 69.3601 102.101 70.1446C101.994 70.929 101.798 71.5797 101.531 72.0878C101.263 72.5959 100.898 72.9703 100.443 73.2199C99.9888 73.4695 99.4183 73.5943 98.723 73.5943H95.4426V61.4979H98.8567V61.489ZM98.4556 71.7847C98.821 71.7847 99.1152 71.7134 99.3381 71.5619C99.5609 71.4193 99.7392 71.1697 99.864 70.8309C99.9888 70.4922 100.078 70.0465 100.122 69.4938C100.167 68.9412 100.185 68.2548 100.185 67.4258C100.185 66.7394 100.167 66.1332 100.131 65.6162C100.096 65.0992 100.016 64.6624 99.8907 64.3237C99.7659 63.985 99.5966 63.7175 99.3559 63.5482C99.1152 63.3699 98.8032 63.2897 98.411 63.2897H97.5285V71.7937H98.4556V71.7847Z" fill="black"/>
<path d="M19.7268 36.6545C21.1173 36.6545 22.2494 36.913 23.0963 37.4211C23.9431 37.9292 24.6116 38.6602 25.093 39.6051C25.5655 40.55 25.8864 41.691 26.0557 43.0192C26.2251 44.3474 26.3053 45.836 26.3053 47.4762C26.3053 49.4284 26.1983 51.1309 25.9844 52.575C25.7705 54.0191 25.405 55.2136 24.8791 56.1495C24.3621 57.0855 23.6578 57.7808 22.7843 58.2443C21.9107 58.699 20.8054 58.9307 19.4682 58.9307H13.1393V36.6545H19.7178H19.7268ZM18.9423 55.6236C19.6465 55.6236 20.217 55.4899 20.6449 55.2136C21.0728 54.9461 21.4115 54.4915 21.6611 53.8765C21.9107 53.2525 22.0801 52.4324 22.1603 51.4073C22.2405 50.3911 22.2851 49.1164 22.2851 47.601C22.2851 46.3352 22.2494 45.2209 22.1692 44.2582C22.0979 43.3044 21.9374 42.5022 21.7057 41.8693C21.4739 41.2364 21.1263 40.755 20.6716 40.4341C20.217 40.1132 19.6109 39.9527 18.8443 39.9527H17.1417V55.6147H18.9245L18.9423 55.6236Z" fill="black"/>
<path d="M28.7388 43.135C28.8815 41.7088 29.1845 40.4876 29.657 39.4714C30.1294 38.4552 30.8158 37.6529 31.7072 37.0824C32.5986 36.5119 33.802 36.2267 35.2996 36.2267C36.7971 36.2267 38.0005 36.5119 38.8919 37.0824C39.7833 37.6529 40.4697 38.4462 40.9422 39.4714C41.4146 40.4876 41.7266 41.7088 41.8603 43.135C42.0029 44.5613 42.0653 46.1123 42.0653 47.7971C42.0653 49.4818 41.994 51.0596 41.8603 52.4769C41.7177 53.8943 41.4146 55.1066 40.9422 56.1317C40.4697 57.1479 39.7833 57.9323 38.8919 58.4672C38.0005 59.002 36.7971 59.2784 35.2996 59.2784C33.802 59.2784 32.5986 59.0109 31.7072 58.4672C30.8158 57.9234 30.1294 57.1479 29.657 56.1317C29.1845 55.1155 28.8725 53.8943 28.7388 52.4769C28.5962 51.0596 28.5338 49.4997 28.5338 47.7971C28.5338 46.0945 28.6051 44.5613 28.7388 43.135ZM32.6432 51.6212C32.7056 52.6731 32.8393 53.5288 33.0354 54.1795C33.2315 54.8303 33.5078 55.3116 33.8733 55.6147C34.2388 55.9178 34.7112 56.0693 35.3085 56.0693C35.9057 56.0693 36.3782 55.9178 36.7436 55.6147C37.1091 55.3116 37.3855 54.8303 37.5816 54.1795C37.7777 53.5288 37.9025 52.6731 37.9738 51.6212C38.0362 50.5693 38.0718 49.2946 38.0718 47.7971C38.0718 46.2995 38.0362 45.0337 37.9738 43.9908C37.9114 42.9478 37.7777 42.101 37.5816 41.4325C37.3855 40.7639 37.1091 40.2825 36.7436 39.9795C36.3782 39.6764 35.9057 39.5248 35.3085 39.5248C34.7112 39.5248 34.2388 39.6764 33.8733 39.9795C33.5078 40.2825 33.2315 40.7639 33.0354 41.4325C32.8393 42.101 32.7056 42.9478 32.6432 43.9908C32.5808 45.0337 32.5451 46.2995 32.5451 47.7971C32.5451 49.2946 32.5808 50.5693 32.6432 51.6212Z" fill="black"/>
<path d="M52.4412 40.6391C52.0936 39.8992 51.4696 39.5338 50.5604 39.5338C50.0612 39.5338 49.6422 39.6853 49.3213 39.9884C48.9915 40.2915 48.7419 40.7817 48.5547 41.4592C48.3675 42.1367 48.2427 43.0191 48.1625 44.1156C48.0912 45.212 48.0555 46.5402 48.0555 48.1269C48.0555 49.8116 48.109 51.1755 48.207 52.2095C48.3051 53.2525 48.4656 54.0547 48.6795 54.6252C48.8934 55.1957 49.1608 55.579 49.4907 55.7751C49.8116 55.9712 50.1949 56.0693 50.6227 56.0693C50.9793 56.0693 51.3091 55.998 51.6122 55.8643C51.9153 55.7306 52.1827 55.4542 52.4056 55.0531C52.6284 54.652 52.8067 54.0726 52.9315 53.3327C53.0652 52.5928 53.1276 51.6212 53.1276 50.4178H57.1389C57.1389 51.6212 57.0587 52.7711 56.8893 53.8497C56.72 54.9283 56.408 55.8732 55.9533 56.6933C55.4987 57.5045 54.8569 58.1374 54.0279 58.6009C53.1989 59.0555 52.1292 59.2873 50.8099 59.2873C49.3035 59.2873 48.109 59.0198 47.2176 58.4761C46.3262 57.9323 45.6398 57.1568 45.1674 56.1406C44.6949 55.1244 44.3829 53.9032 44.2492 52.4859C44.1066 51.0685 44.0442 49.5086 44.0442 47.806C44.0442 46.1034 44.1155 44.5702 44.2492 43.1439C44.3918 41.7177 44.6949 40.4965 45.1674 39.4803C45.6398 38.4641 46.3262 37.6618 47.2176 37.0913C48.109 36.5208 49.3124 36.2356 50.8099 36.2356C52.3075 36.2356 53.3683 36.4941 54.1973 37.02C55.0263 37.537 55.6414 38.1967 56.0514 38.9989C56.4614 39.8012 56.72 40.6658 56.818 41.584C56.9161 42.511 56.9695 43.3757 56.9695 44.1869H52.9582C52.9582 42.5645 52.7889 41.3879 52.4412 40.648V40.6391Z" fill="black"/>
<path d="M71.0806 40.336H66.7305V58.9307H62.7192V40.336H58.3691V36.6545H71.0806V40.336Z" fill="black"/>
<path d="M72.5959 43.135C72.7385 41.7088 73.0416 40.4876 73.514 39.4714C73.9865 38.4552 74.6729 37.6529 75.5643 37.0824C76.4557 36.5119 77.6591 36.2267 79.1566 36.2267C80.6542 36.2267 81.8576 36.5119 82.749 37.0824C83.6404 37.6529 84.3268 38.4462 84.7992 39.4714C85.2717 40.4876 85.5836 41.7088 85.7174 43.135C85.86 44.5613 85.9224 46.1123 85.9224 47.7971C85.9224 49.4818 85.8511 51.0596 85.7174 52.4769C85.5747 53.8943 85.2717 55.1066 84.7992 56.1317C84.3268 57.1479 83.6404 57.9323 82.749 58.4672C81.8576 59.002 80.6542 59.2784 79.1566 59.2784C77.6591 59.2784 76.4557 59.0109 75.5643 58.4672C74.6729 57.9234 73.9865 57.1479 73.514 56.1317C73.0416 55.1155 72.7296 53.8943 72.5959 52.4769C72.4533 51.0596 72.3909 49.4997 72.3909 47.7971C72.3909 46.0945 72.4622 44.5613 72.5959 43.135ZM76.5002 51.6212C76.5626 52.6731 76.6964 53.5288 76.8925 54.1795C77.0886 54.8303 77.3649 55.3116 77.7304 55.6147C78.0959 55.9178 78.5683 56.0693 79.1655 56.0693C79.7628 56.0693 80.2352 55.9178 80.6007 55.6147C80.9662 55.3116 81.2425 54.8303 81.4386 54.1795C81.6347 53.5288 81.7595 52.6731 81.8308 51.6212C81.8932 50.5693 81.9289 49.2946 81.9289 47.7971C81.9289 46.2995 81.8932 45.0337 81.8308 43.9908C81.7684 42.9478 81.6347 42.101 81.4386 41.4325C81.2425 40.7639 80.9662 40.2825 80.6007 39.9795C80.2352 39.6764 79.7628 39.5248 79.1655 39.5248C78.5683 39.5248 78.0959 39.6764 77.7304 39.9795C77.3649 40.2825 77.0886 40.7639 76.8925 41.4325C76.6964 42.101 76.5626 42.9478 76.5002 43.9908C76.4378 45.0337 76.4022 46.2995 76.4022 47.7971C76.4022 49.2946 76.4378 50.5693 76.5002 51.6212Z" fill="black"/>
<path d="M95.719 36.6545C97.3948 36.6545 98.6963 37.127 99.6233 38.0719C100.55 39.0168 101.014 40.4608 101.014 42.3952C101.014 43.8927 100.746 45.114 100.203 46.0589C99.6679 47.0037 98.83 47.6099 97.6979 47.8862V47.9486C98.7052 48.118 99.4361 48.4746 99.8997 49.0361C100.363 49.5977 100.648 50.507 100.764 51.7549C100.8 52.1739 100.827 52.6196 100.845 53.1099C100.862 53.6001 100.88 54.1439 100.898 54.75C100.934 55.9356 100.987 56.8359 101.067 57.4599C101.174 58.0839 101.424 58.5118 101.789 58.7435V58.9307H97.4394C97.2344 58.6187 97.1006 58.2622 97.0472 57.8521C96.9937 57.4421 96.958 57.0231 96.9313 56.5863L96.8243 52.3165C96.7887 51.4429 96.5925 50.7566 96.236 50.2574C95.8794 49.7582 95.2911 49.5086 94.4532 49.5086H92.3049V58.9307H88.2936V36.6545H95.7101H95.719ZM93.9896 46.3887C94.9524 46.3887 95.7011 46.1302 96.2182 45.6221C96.7352 45.114 97.0026 44.2582 97.0026 43.0459C97.0026 40.9868 96.0755 39.9617 94.2125 39.9617H92.3138V46.3887H93.9896Z" fill="black"/>
<path d="M19.1652 36.2177C20.5558 36.2177 21.6879 36.4763 22.5347 36.9844C23.3816 37.4925 24.0501 38.2234 24.5315 39.1683C25.0039 40.1132 25.3248 41.2542 25.4942 42.5824C25.6636 43.9106 25.7438 45.3992 25.7438 47.0394C25.7438 48.9916 25.6368 50.6941 25.4229 52.1382C25.209 53.5823 24.8435 54.7768 24.3175 55.7127C23.8005 56.6487 23.0963 57.344 22.2227 57.8075C21.3492 58.2622 20.2438 58.4939 18.9067 58.4939H12.5778V36.2177H19.1563H19.1652ZM18.3808 55.1868C19.085 55.1868 19.6555 55.0531 20.0834 54.7768C20.5113 54.5093 20.85 54.0547 21.0996 53.4397C21.3492 52.8157 21.5185 51.9956 21.5988 50.9705C21.679 49.9543 21.7236 48.6796 21.7236 47.1642C21.7236 45.8984 21.6879 44.7841 21.6077 43.8214C21.5364 42.8676 21.3759 42.0654 21.1441 41.4325C20.9124 40.7996 20.5647 40.3182 20.1101 39.9973C19.6555 39.6764 19.0494 39.5159 18.2827 39.5159H16.5802V55.1779H18.363L18.3808 55.1868Z" fill="#FFFFFD"/>
<path d="M28.1862 42.6893C28.3288 41.2631 28.6319 40.0419 29.1044 39.0257C29.5768 38.0095 30.2632 37.2072 31.1546 36.6367C32.046 36.0662 33.2494 35.7809 34.747 35.7809C36.2445 35.7809 37.4479 36.0662 38.3393 36.6367C39.2307 37.2072 39.9171 38.0005 40.3895 39.0257C40.862 40.0419 41.174 41.2631 41.3077 42.6893C41.4503 44.1156 41.5127 45.6666 41.5127 47.3514C41.5127 49.0361 41.4414 50.6139 41.3077 52.0312C41.1651 53.4486 40.862 54.6609 40.3895 55.686C39.9171 56.7022 39.2307 57.4866 38.3393 58.0215C37.4479 58.5563 36.2445 58.8326 34.747 58.8326C33.2494 58.8326 32.046 58.5652 31.1546 58.0215C30.2632 57.4777 29.5768 56.7022 29.1044 55.686C28.6319 54.6698 28.3199 53.4486 28.1862 52.0312C28.0436 50.6139 27.9812 49.0539 27.9812 47.3514C27.9812 45.6488 28.0525 44.1156 28.1862 42.6893ZM32.0906 51.1755C32.153 52.2273 32.2867 53.0831 32.4828 53.7338C32.6789 54.3845 32.9552 54.8659 33.3207 55.169C33.6862 55.4721 34.1586 55.6236 34.7559 55.6236C35.3531 55.6236 35.8256 55.4721 36.191 55.169C36.5565 54.8659 36.8328 54.3845 37.029 53.7338C37.2251 53.0831 37.3499 52.2273 37.4212 51.1755C37.4836 50.1236 37.5192 48.8489 37.5192 47.3514C37.5192 45.8538 37.4836 44.588 37.4212 43.5451C37.3588 42.5021 37.2251 41.6553 37.029 40.9867C36.8328 40.3182 36.5565 39.8368 36.191 39.5338C35.8256 39.2307 35.3531 39.0791 34.7559 39.0791C34.1586 39.0791 33.6862 39.2307 33.3207 39.5338C32.9552 39.8368 32.6789 40.3182 32.4828 40.9867C32.2867 41.6553 32.153 42.5021 32.0906 43.5451C32.0282 44.588 31.9925 45.8538 31.9925 47.3514C31.9925 48.8489 32.0282 50.1236 32.0906 51.1755Z" fill="#FFFFFD"/>
<path d="M51.8887 40.1934C51.5411 39.4535 50.9171 39.088 50.0079 39.088C49.5087 39.088 49.0897 39.2396 48.7688 39.5427C48.439 39.8457 48.1894 40.336 48.0022 41.0135C47.815 41.6909 47.6902 42.5734 47.61 43.6699C47.5387 44.7663 47.503 46.0945 47.503 47.6812C47.503 49.3659 47.5565 50.7298 47.6546 51.7638C47.7526 52.8068 47.9131 53.609 48.127 54.1795C48.3409 54.75 48.6084 55.1333 48.9382 55.3294C49.2591 55.5255 49.6424 55.6236 50.0703 55.6236C50.4268 55.6236 50.7566 55.5523 51.0597 55.4186C51.3628 55.2849 51.6302 55.0085 51.8531 54.6074C52.0759 54.2063 52.2542 53.6268 52.379 52.887C52.5127 52.1471 52.5751 51.1755 52.5751 49.9721H56.5864C56.5864 51.1755 56.5062 52.3254 56.3368 53.404C56.1675 54.4826 55.8555 55.4275 55.4009 56.2476C54.9462 57.0588 54.3044 57.6916 53.4754 58.1552C52.6464 58.6098 51.5767 58.8416 50.2575 58.8416C48.751 58.8416 47.5565 58.5741 46.6651 58.0304C45.7737 57.4866 45.0873 56.7111 44.6149 55.6949C44.1424 54.6787 43.8304 53.4575 43.6967 52.0401C43.5541 50.6228 43.4917 49.0629 43.4917 47.3603C43.4917 45.6577 43.563 44.1245 43.6967 42.6982C43.8393 41.272 44.1424 40.0508 44.6149 39.0346C45.0873 38.0184 45.7737 37.2161 46.6651 36.6456C47.5565 36.0751 48.7599 35.7899 50.2575 35.7899C51.755 35.7899 52.8158 36.0484 53.6448 36.5743C54.4738 37.0913 55.0889 37.7509 55.4989 38.5532C55.909 39.3555 56.1675 40.2201 56.2655 41.1383C56.3636 42.0653 56.4171 42.93 56.4171 43.7412H52.4057C52.4057 42.1188 52.2364 40.9422 51.8887 40.2023V40.1934Z" fill="#FFFFFD"/>
<path d="M70.519 39.8992H66.169V58.4939H62.1577V39.8992H57.8076V36.2177H70.519V39.8992Z" fill="#FFFFFD"/>
<path d="M72.0433 42.6893C72.1859 41.2631 72.489 40.0419 72.9614 39.0257C73.4339 38.0095 74.1203 37.2072 75.0117 36.6367C75.9031 36.0662 77.1065 35.7809 78.604 35.7809C80.1016 35.7809 81.305 36.0662 82.1964 36.6367C83.0878 37.2072 83.7742 38.0005 84.2466 39.0257C84.719 40.0419 85.031 41.2631 85.1647 42.6893C85.3074 44.1156 85.3698 45.6666 85.3698 47.3514C85.3698 49.0361 85.2985 50.6139 85.1647 52.0312C85.0221 53.4486 84.719 54.6609 84.2466 55.686C83.7742 56.7022 83.0878 57.4866 82.1964 58.0215C81.305 58.5563 80.1016 58.8326 78.604 58.8326C77.1065 58.8326 75.9031 58.5652 75.0117 58.0215C74.1203 57.4777 73.4339 56.7022 72.9614 55.686C72.489 54.6698 72.177 53.4486 72.0433 52.0312C71.9007 50.6139 71.8383 49.0539 71.8383 47.3514C71.8383 45.6488 71.9096 44.1156 72.0433 42.6893ZM75.9476 51.1755C76.01 52.2273 76.1437 53.0831 76.3398 53.7338C76.536 54.3845 76.8123 54.8659 77.1778 55.169C77.5432 55.4721 78.0157 55.6236 78.6129 55.6236C79.2102 55.6236 79.6826 55.4721 80.0481 55.169C80.4136 54.8659 80.6899 54.3845 80.886 53.7338C81.0821 53.0831 81.2069 52.2273 81.2782 51.1755C81.3406 50.1236 81.3763 48.8489 81.3763 47.3514C81.3763 45.8538 81.3406 44.588 81.2782 43.5451C81.2158 42.5021 81.0821 41.6553 80.886 40.9867C80.6899 40.3182 80.4136 39.8368 80.0481 39.5338C79.6826 39.2307 79.2102 39.0791 78.6129 39.0791C78.0157 39.0791 77.5432 39.2307 77.1778 39.5338C76.8123 39.8368 76.536 40.3182 76.3398 40.9867C76.1437 41.6553 76.01 42.5021 75.9476 43.5451C75.8852 44.588 75.8496 45.8538 75.8496 47.3514C75.8496 48.8489 75.8852 50.1236 75.9476 51.1755Z" fill="#FFFFFD"/>
<path d="M95.1664 36.2177C96.8422 36.2177 98.1436 36.6902 99.0707 37.6351C99.9978 38.58 100.461 40.024 100.461 41.9584C100.461 43.4559 100.194 44.6772 99.6501 45.6221C99.1153 46.5669 98.2774 47.1731 97.1453 47.4494V47.5118C98.1526 47.6812 98.8835 48.0378 99.347 48.5993C99.8106 49.1609 100.096 50.0702 100.212 51.3181C100.247 51.7371 100.274 52.1828 100.292 52.6731C100.31 53.1633 100.328 53.7071 100.345 54.3132C100.381 55.4988 100.435 56.3991 100.515 57.0231C100.622 57.6471 100.871 58.075 101.237 58.3067V58.4939H96.8868C96.6817 58.1819 96.548 57.8254 96.4946 57.4153C96.4411 57.0053 96.4054 56.5863 96.3787 56.1495L96.2717 51.8797C96.236 51.0061 96.0399 50.3197 95.6834 49.8206C95.3268 49.3214 94.7385 49.0718 93.9006 49.0718H91.7523V58.4939H87.741V36.2177H95.1574H95.1664ZM93.437 45.9519C94.3998 45.9519 95.1485 45.6934 95.6655 45.1853C96.1826 44.6772 96.45 43.8214 96.45 42.6091C96.45 40.55 95.5229 39.5249 93.6599 39.5249H91.7612V45.9519H93.437Z" fill="#FFFFFD"/>
<path d="M15.9739 61.0522C16.8386 61.0522 17.516 61.3108 17.9974 61.8189C18.4788 62.3359 18.7194 63.1114 18.7194 64.1632C18.7194 64.9744 18.5768 65.643 18.3005 66.1511C18.0241 66.6681 17.5873 66.9979 16.999 67.1405V67.1762C17.516 67.2653 17.8993 67.4614 18.14 67.7734C18.3807 68.0765 18.5322 68.5668 18.5857 69.2442C18.6035 69.4671 18.6214 69.7167 18.6303 69.9841C18.6392 70.2515 18.6481 70.5457 18.657 70.8755C18.6749 71.5173 18.7016 72.0076 18.7462 72.3463C18.7997 72.6851 18.9334 72.9168 19.1206 73.0416V73.1397H16.8653C16.7583 72.9703 16.6959 72.7742 16.6603 72.5514C16.6335 72.3285 16.6157 72.1057 16.6068 71.865L16.5533 69.5473C16.5355 69.0749 16.4285 68.7005 16.2502 68.4331C16.063 68.1656 15.76 68.023 15.3232 68.023H14.2089V73.1397H12.132V61.0433H15.9739V61.0522ZM15.0825 66.3383C15.5817 66.3383 15.965 66.2046 16.2413 65.9193C16.5087 65.643 16.6425 65.1794 16.6425 64.5198C16.6425 63.4055 16.1611 62.844 15.1984 62.844H14.2178V66.3294H15.0825V66.3383Z" fill="#FFFFFD"/>
<path d="M25.9308 63.049H22.2493V65.8926H25.7169V67.8893H22.2493V71.1429H26.0824V73.1397H20.1724V61.0433H25.9397V63.0401L25.9308 63.049Z" fill="#FFFFFD"/>
<path d="M31.2614 63.2094C31.0831 62.8083 30.7622 62.6122 30.2898 62.6122C30.0313 62.6122 29.8174 62.6924 29.648 62.8618C29.4786 63.0312 29.3449 63.2897 29.2469 63.6551C29.1488 64.0206 29.0864 64.502 29.0418 65.0903C29.0062 65.6875 28.9883 66.4096 28.9883 67.2653C28.9883 68.1835 29.0151 68.9233 29.0686 69.4849C29.1221 70.0465 29.2023 70.4833 29.3182 70.7953C29.4251 71.1073 29.5678 71.3123 29.7371 71.4193C29.9065 71.5262 30.1026 71.5797 30.3255 71.5797C30.5126 71.5797 30.682 71.5441 30.8425 71.4727C31.0029 71.4014 31.1366 71.2499 31.2525 71.036C31.3684 70.8131 31.4575 70.5011 31.5288 70.1089C31.6002 69.7078 31.6269 69.1818 31.6269 68.5222H33.7039C33.7039 69.1729 33.6593 69.7969 33.5702 70.3852C33.481 70.9736 33.3206 71.4906 33.0888 71.9274C32.8481 72.3642 32.5183 72.7118 32.0904 72.9614C31.6626 73.211 31.1099 73.3358 30.4235 73.3358C29.6391 73.3358 29.024 73.1932 28.5605 72.899C28.0969 72.6048 27.7404 72.1859 27.4997 71.6332C27.2501 71.0805 27.0986 70.4209 27.0183 69.6543C26.947 68.8877 26.9114 68.0408 26.9114 67.1138C26.9114 66.1867 26.947 65.3577 27.0183 64.5822C27.0897 63.8067 27.2501 63.147 27.4997 62.5944C27.7493 62.0417 28.0969 61.6138 28.5605 61.3018C29.024 60.9898 29.648 60.8383 30.4235 60.8383C31.199 60.8383 31.7517 60.9809 32.1796 61.2662C32.6074 61.5514 32.9284 61.908 33.1423 62.3448C33.3562 62.7816 33.4899 63.2451 33.5434 63.7532C33.5969 64.2524 33.6236 64.7248 33.6236 65.1705H31.5467C31.5467 64.288 31.4575 63.6462 31.2793 63.2451L31.2614 63.2094Z" fill="#FFFFFD"/>
<path d="M34.7736 64.5644C34.8449 63.7889 35.0054 63.1292 35.255 62.5765C35.5045 62.0239 35.8522 61.596 36.3157 61.284C36.7793 60.972 37.4032 60.8205 38.1788 60.8205C38.9543 60.8205 39.5783 60.972 40.0418 61.284C40.5053 61.596 40.8619 62.0239 41.1026 62.5765C41.3522 63.1292 41.5037 63.7889 41.575 64.5644C41.6463 65.3399 41.682 66.1778 41.682 67.096C41.682 68.0141 41.6463 68.8699 41.575 69.6365C41.5037 70.4031 41.3432 71.0627 41.1026 71.6154C40.853 72.168 40.5053 72.5959 40.0418 72.8812C39.5783 73.1753 38.9543 73.318 38.1788 73.318C37.4032 73.318 36.7793 73.1753 36.3157 72.8812C35.8522 72.587 35.4956 72.168 35.255 71.6154C35.0054 71.0627 34.8538 70.4031 34.7736 69.6365C34.7023 68.8699 34.6666 68.023 34.6666 67.096C34.6666 66.1689 34.7023 65.3399 34.7736 64.5644ZM36.7971 69.1729C36.8327 69.7434 36.8951 70.207 37.0021 70.5635C37.1002 70.9201 37.2517 71.1786 37.4389 71.339C37.6261 71.4995 37.8757 71.5886 38.1788 71.5886C38.4818 71.5886 38.7314 71.5084 38.9186 71.339C39.1058 71.1786 39.2484 70.9112 39.3554 70.5635C39.4535 70.207 39.5248 69.7434 39.5604 69.1729C39.5961 68.6024 39.6139 67.9071 39.6139 67.096C39.6139 66.2848 39.5961 65.5984 39.5604 65.0279C39.5248 64.4663 39.4624 64.0028 39.3554 63.6373C39.2574 63.2718 39.1058 63.0133 38.9186 62.8529C38.7314 62.6924 38.4818 62.6033 38.1788 62.6033C37.8757 62.6033 37.6261 62.6835 37.4389 62.8529C37.2517 63.0133 37.1091 63.2808 37.0021 63.6373C36.904 64.0028 36.8327 64.4574 36.7971 65.0279C36.7614 65.5895 36.7436 66.2848 36.7436 67.096C36.7436 67.9071 36.7614 68.6024 36.7971 69.1729Z" fill="#FFFFFD"/>
<path d="M46.0498 61.0522L47.5207 69.5919H47.5474L49.036 61.0522H52.1114V73.1486H50.2038V63.4947H50.177L48.3407 73.1486H46.7184L44.8821 63.4947H44.8554V73.1486H42.9478V61.0522H46.0409H46.0498Z" fill="#FFFFFD"/>
<path d="M56.7467 61.0522L58.2176 69.5919H58.2443L59.7329 61.0522H62.8083V73.1486H60.9007V63.4947H60.8739L59.0376 73.1486H57.4153L55.579 63.4947H55.5523V73.1486H53.6447V61.0522H56.7378H56.7467Z" fill="#FFFFFD"/>
<path d="M70.0643 63.049H66.3828V65.8926H69.8503V67.8893H66.3828V71.1429H70.2158V73.1397H64.3058V61.0433H70.0732V63.0401L70.0643 63.049Z" fill="#FFFFFD"/>
<path d="M76.1615 69.3334H76.1883V61.0522H78.0959V73.1486H75.7247L73.1842 64.6803H73.1575V73.1486H71.2499V61.0522H73.6478L76.1615 69.3334Z" fill="#FFFFFD"/>
<path d="M83.0609 61.0522C83.783 61.0522 84.3624 61.1949 84.8081 61.4712C85.2538 61.7475 85.5925 62.1398 85.8421 62.6568C86.0917 63.1738 86.2522 63.7889 86.3413 64.5109C86.4304 65.2329 86.475 66.0441 86.475 66.9355C86.475 67.9963 86.4215 68.9233 86.3056 69.7078C86.1987 70.4922 86.0026 71.1429 85.7351 71.651C85.4677 72.1591 85.1022 72.5335 84.6476 72.7831C84.193 73.0327 83.6225 73.1575 82.9272 73.1575H79.6469V61.0612H83.0609V61.0522ZM82.6598 71.348C83.0253 71.348 83.3194 71.2767 83.5423 71.1251C83.7651 70.9825 83.9434 70.7329 84.0682 70.3942C84.193 70.0554 84.2822 69.6097 84.3267 69.0571C84.3713 68.5044 84.3891 67.818 84.3891 66.989C84.3891 66.3026 84.3713 65.6965 84.3356 65.1795C84.3 64.6624 84.2198 64.2256 84.095 63.8869C83.9702 63.5482 83.8008 63.2808 83.5601 63.1114C83.3194 62.9331 83.0074 62.8529 82.6152 62.8529H81.7327V71.3569H82.6598V71.348Z" fill="#FFFFFD"/>
<path d="M93.6062 63.049H89.9247V65.8926H93.3923V67.8893H89.9247V71.1429H93.7578V73.1397H87.8478V61.0433H93.6152V63.0401L93.6062 63.049Z" fill="#FFFFFD"/>
<path d="M98.304 61.0522C99.026 61.0522 99.6054 61.1949 100.051 61.4712C100.497 61.7475 100.836 62.1398 101.085 62.6568C101.335 63.1738 101.495 63.7889 101.584 64.5109C101.673 65.2329 101.718 66.0441 101.718 66.9355C101.718 67.9963 101.665 68.9233 101.549 69.7078C101.442 70.4922 101.246 71.1429 100.978 71.651C100.711 72.1591 100.345 72.5335 99.8907 72.7831C99.4361 73.0327 98.8656 73.1575 98.1703 73.1575H94.8899V61.0612H98.304V61.0522ZM97.9028 71.348C98.2683 71.348 98.5625 71.2767 98.7853 71.1251C99.0082 70.9825 99.1865 70.7329 99.3113 70.3942C99.4361 70.0554 99.5252 69.6097 99.5698 69.0571C99.6143 68.5044 99.6322 67.818 99.6322 66.989C99.6322 66.3026 99.6143 65.6965 99.5787 65.1795C99.543 64.6624 99.4628 64.2256 99.338 63.8869C99.2132 63.5482 99.0438 63.2808 98.8032 63.1114C98.5625 62.9331 98.2505 62.8529 97.8583 62.8529H96.9758V71.3569H97.9028V71.348Z" fill="#FFFFFD"/>
<path d="M67.4169 16.9278H60.4818L57.7719 9.79654L55.0621 16.9278H48.127L53.5378 21.3402L51.6926 29.2648L57.7719 24.4423L64.1455 28.8904L62.0061 21.3402L67.4169 16.9278Z" fill="#FDFAE9"/>
<path d="M82.9005 19.6376H77.4808L75.3682 14.0753L73.2556 19.6376H67.8358L72.07 23.0784L70.6259 29.2648L75.3682 25.5031L80.3422 28.9706L78.6753 23.0784L82.9005 19.6376Z" fill="#F8EF9B"/>
<path d="M95.6476 22.2584H91.4758L89.8445 17.9618L88.2133 22.2584H84.0326L87.2951 24.9058L86.1809 29.6838L89.8445 26.7778L93.6776 29.4609L92.385 24.9058L95.6476 22.2584Z" fill="#F8EF9B"/>
<path d="M31.52 22.2584H27.3393L25.717 17.9618L24.0857 22.2584H19.905L23.1676 24.9058L22.0533 29.6838L25.717 26.7778L29.55 29.4609L28.2575 24.9058L31.52 22.2584Z" fill="#F8EF9B"/>
<path d="M47.494 19.6376H42.0743L39.9617 14.0753L37.8491 19.6376H32.4382L36.6635 23.0784L35.2194 29.2648L39.9617 25.5031L44.9446 28.9706L43.2688 23.0784L47.494 19.6376Z" fill="#F8EF9B"/>
<path d="M102.859 75.1543H12.132V77.668H102.859V75.1543Z" fill="#FDFBF9"/>
<path d="M102.859 31.8677H12.132V34.3814H102.859V31.8677Z" fill="#FDFBF9"/>
</g>
<defs>
<linearGradient id="paint0_linear_1_344" x1="15.2698" y1="21.0193" x2="99.1776" y2="93.4993" gradientUnits="userSpaceOnUse">
<stop offset="0.14" stop-color="#EC6475"/>
<stop offset="0.56" stop-color="#C22026"/>
<stop offset="0.66" stop-color="#C32329"/>
<stop offset="0.74" stop-color="#C92C34"/>
<stop offset="0.82" stop-color="#D33C47"/>
<stop offset="0.9" stop-color="#E15260"/>
<stop offset="0.95" stop-color="#EC6475"/>
</linearGradient>
<linearGradient id="paint1_linear_1_344" x1="8.75359" y1="76.7231" x2="115.74" y2="34.533" gradientUnits="userSpaceOnUse">
<stop stop-color="#FBCCCC"/>
<stop offset="0.2" stop-color="#EC6475"/>
<stop offset="0.56" stop-color="#C22026"/>
<stop offset="0.67" stop-color="#D7434E"/>
<stop offset="0.78" stop-color="#EC6475"/>
<stop offset="1" stop-color="#FBCCCC"/>
</linearGradient>
<linearGradient id="paint2_linear_1_344" x1="49.6869" y1="95.0147" x2="91.0124" y2="36.8952" gradientUnits="userSpaceOnUse">
<stop stop-color="#FBCCCC"/>
<stop offset="0.58" stop-color="#D55A6A"/>
<stop offset="0.95" stop-color="#FBCCCC"/>
</linearGradient>
<clipPath id="clip0_1_344">
<rect width="115" height="115" fill="white"/>
</clipPath>
</defs>
</svg>
