<svg width="40" height="40" viewBox="0 0 40 40" fill="none" xmlns="http://www.w3.org/2000/svg">
<rect width="40" height="40" rx="20" fill="white"/>
<path fill-rule="evenodd" clip-rule="evenodd" d="M20 11.75C15.4437 11.75 11.75 15.4437 11.75 20C11.75 24.5563 15.4437 28.25 20 28.25C24.5563 28.25 28.25 24.5563 28.25 20C28.25 15.4437 24.5563 11.75 20 11.75ZM10.25 20C10.25 14.6152 14.6152 10.25 20 10.25C25.3848 10.25 29.75 14.6152 29.75 20C29.75 25.3848 25.3848 29.75 20 29.75C14.6152 29.75 10.25 25.3848 10.25 20Z" fill="#B21120"/>
<path fill-rule="evenodd" clip-rule="evenodd" d="M16.25 21.5C16.25 21.0858 16.5858 20.75 17 20.75H23C23.4142 20.75 23.75 21.0858 23.75 21.5C23.75 21.9142 23.4142 22.25 23 22.25H17C16.5858 22.25 16.25 21.9142 16.25 21.5Z" fill="#B21120"/>
<path d="M20 29.585C19.5875 29.585 19.25 29.2475 19.25 28.835V18.785C19.25 16.9775 20.7275 15.5 22.535 15.5H23.7425C24.155 15.5 24.4925 15.8375 24.4925 16.25C24.4925 16.6625 24.155 17 23.7425 17H22.535C21.5525 17 20.75 17.8025 20.75 18.785V28.835C20.75 29.2475 20.4125 29.585 20 29.585Z" fill="#B21120"/>
</svg>
