<svg width="70" height="70" viewBox="0 0 70 70" fill="none" xmlns="http://www.w3.org/2000/svg">
<g clip-path="url(#clip0_1_443)">
<path d="M63.419 11.5H6.2476C3.25343 11.5 0.826172 13.9624 0.826172 17V53C0.826172 56.0376 3.25343 58.5 6.2476 58.5H63.419C66.4132 58.5 68.8405 56.0376 68.8405 53V17C68.8405 13.9624 66.4132 11.5 63.419 11.5Z" fill="white" stroke="#D9D9D9" stroke-width="2"/>
<path fill-rule="evenodd" clip-rule="evenodd" d="M32.9214 42.5162V36.4742H35.9951C37.2547 36.4742 38.3178 36.0461 39.1845 35.2016L39.3925 34.9876C40.9756 33.2392 40.8716 30.5156 39.1845 28.8981C38.3409 28.0417 37.1854 27.5779 35.9951 27.6017H31.0609V42.5162H32.9214ZM32.9215 34.6426V29.4333H36.042C36.7124 29.4333 37.3481 29.6949 37.8219 30.1707C38.8275 31.1697 38.8505 32.8348 37.8797 33.8695C37.4059 34.381 36.7355 34.6664 36.042 34.6426H32.9215ZM48.0708 33.1084C47.2734 32.3591 46.1873 31.9785 44.8121 31.9785C43.0441 31.9785 41.7152 32.6445 40.8369 33.9647L42.4779 35.0232C43.0787 34.1193 43.8993 33.6674 44.9393 33.6674C45.5979 33.6674 46.2334 33.9172 46.7303 34.3691C47.2157 34.7973 47.4931 35.4157 47.4931 36.0699V36.5099C46.7766 36.1056 45.8752 35.8915 44.7659 35.8915C43.4716 35.8915 42.4316 36.2007 41.6574 36.8311C40.8832 37.4614 40.4904 38.294 40.4904 39.3525C40.4672 40.3159 40.8716 41.2317 41.5881 41.8501C42.3161 42.5162 43.2406 42.8492 44.3268 42.8492C45.6095 42.8492 46.6263 42.2664 47.4006 41.1008H47.4814V42.5162H49.261V36.2245C49.261 34.9043 48.8681 33.8577 48.0708 33.1084ZM43.0213 40.637C42.6399 40.3515 42.4088 39.8877 42.4088 39.3882C42.4088 38.8292 42.6631 38.3653 43.16 37.9966C43.6685 37.6279 44.3042 37.4376 45.0554 37.4376C46.0956 37.4257 46.9046 37.6636 47.4825 38.1393C47.4825 38.9481 47.1704 39.6498 46.5579 40.2445C46.0032 40.8154 45.2519 41.1365 44.466 41.1365C43.9459 41.1484 43.4373 40.97 43.0213 40.637ZM53.2593 47L59.4763 32.3115H57.454L54.5767 39.6379H54.542L51.5953 32.3115H49.5731L53.6522 41.862L51.3411 47H53.2593Z" fill="#3C4043"/>
<path d="M26.4982 35.1659C26.4982 34.5831 26.452 34.0003 26.3596 33.4294H18.5133V36.7239H23.0085C22.8235 37.7825 22.2226 38.734 21.3444 39.3286V41.4695H24.0253C25.5968 39.9828 26.4982 37.7825 26.4982 35.1659Z" fill="#4285F4"/>
<path d="M18.5141 43.539C20.7559 43.539 22.651 42.7778 24.0261 41.4695L21.3452 39.3287C20.5941 39.852 19.635 40.1493 18.5141 40.1493C16.3416 40.1493 14.5043 38.6388 13.8456 36.6169H11.0837V38.8291C12.4936 41.7193 15.3709 43.539 18.5141 43.539Z" fill="#34A853"/>
<path d="M13.8456 36.6169C13.4989 35.5584 13.4989 34.4048 13.8456 33.3343V31.134H11.0834C9.89294 33.5484 9.89294 36.4029 11.0834 38.8172L13.8456 36.6169Z" fill="#FBBC04"/>
<path d="M18.5141 29.802C19.7043 29.7782 20.8483 30.2421 21.7034 31.0865L24.0839 28.6364C22.5701 27.1854 20.5826 26.3886 18.5141 26.4124C15.3709 26.4124 12.4936 28.244 11.0837 31.1341L13.8456 33.3463C14.5043 31.3125 16.3416 29.802 18.5141 29.802Z" fill="#EA4335"/>
</g>
<defs>
<clipPath id="clip0_1_443">
<rect width="69" height="70" fill="white" transform="translate(0.333374)"/>
</clipPath>
</defs>
</svg>
