<svg width="206" height="33" viewBox="0 0 206 33" fill="none" xmlns="http://www.w3.org/2000/svg">
<path fill-rule="evenodd" clip-rule="evenodd" d="M27.6268 31.8028H17.8447V16.4213C17.8447 14.8069 16.6752 13.7721 15.3052 13.7721C13.9686 13.7721 12.3564 14.8483 12.3564 16.4213V31.8028H3.5767V7.29831L0.744873 5.31143C3.98602 4.23525 9.40756 1.9173 12.3564 0.294678V13.143C13.5342 11.6942 16.3995 9.83152 20.0334 9.83152C24.6445 9.83152 26.6243 12.8531 26.6243 16.4626V29.4434C26.6243 29.8411 26.9584 30.619 27.6268 31.8028ZM128.446 31.8028H118.664V16.4213C118.664 14.8069 117.495 13.7721 116.125 13.7721C114.788 13.7721 113.176 14.8483 113.176 16.4213V31.8028H104.396V7.29831L101.565 5.31143C104.806 4.23525 110.227 1.9173 113.176 0.294678V13.143C114.346 11.6942 117.211 9.83152 120.853 9.83152C125.464 9.83152 127.444 12.8531 127.444 16.4626V29.4434C127.444 29.8411 127.778 30.619 128.446 31.8028ZM49.012 28.1437V29.6752C47.0656 31.3392 44.9103 32.7052 40.2908 32.7052C32.9897 32.7052 28.529 27.8539 28.529 21.8768C28.529 14.749 33.1151 9.88955 39.8397 9.88955C46.4976 9.88955 49.012 14.4096 49.012 20.0969H36.8492C37.3753 26.6453 41.0594 29.6338 44.4259 29.6338C46.0465 29.6338 47.8759 29.0955 49.012 28.1437ZM39.4304 18.8054C41.3852 18.8054 41.6107 18.251 41.6107 16.6283C41.6107 15.3865 41.3852 12.3234 39.4304 12.3234C37.4757 12.3234 37.2501 15.3865 37.2501 16.6283C37.2501 18.2509 37.4756 18.8054 39.4304 18.8054ZM205.141 28.1354V29.667C203.195 31.331 201.039 32.6968 196.42 32.6968C189.119 32.6968 184.658 27.8456 184.658 21.8768C184.658 14.7407 189.244 9.88955 195.977 9.88955C202.627 9.88955 205.141 14.4096 205.141 20.0887H192.978C193.504 26.6453 197.188 29.6255 200.555 29.6255C202.175 29.6255 204.005 29.0873 205.141 28.1354ZM195.559 18.7972C197.514 18.7972 197.74 18.2512 197.74 16.6283C197.74 15.3865 197.514 12.3151 195.559 12.3151C193.605 12.3151 193.379 15.3865 193.379 16.6283C193.379 18.2509 193.605 18.7972 195.559 18.7972ZM73.8138 27.9533L74.7912 28.16C74.3487 29.9399 73.0537 32.7048 68.8852 32.7048C65.4102 32.7048 64.4328 30.5856 63.706 28.3504C63.0962 30.42 60.7154 32.7048 56.1877 32.7048C52.1446 32.7048 49.9226 30.9249 49.9226 27.5639C49.9226 23.8302 53.5981 21.09 62.7788 18.3912V14.459C62.7788 12.4225 61.6844 11.7188 60.4732 11.7188C59.3788 11.7188 57.6413 12.8778 57.6413 14.7073C57.6413 15.5766 57.808 16.2389 57.9256 17.1081C57.9256 18.2257 56.6307 19.9311 54.6509 19.9311C52.4706 19.9311 51.418 18.3581 51.418 16.5285C51.418 13.54 54.2082 9.88918 61.5259 9.88918C69.1278 9.88918 71.5503 13.8711 71.5503 17.6876V27.8123C71.5503 28.4331 71.8007 29.0541 72.4859 29.0541C73.0873 29.0541 73.5048 28.7149 73.8138 27.9533ZM62.8206 27.1917V19.6747C59.7464 20.9082 58.6855 23.9713 58.6855 26.3224C58.6855 28.2182 59.2783 29.0875 60.6986 29.0875C61.935 29.0875 62.8206 28.301 62.8206 27.1917ZM86.386 31.8028H76.2949V7.29831L73.605 5.31143C76.6791 4.23525 82.3262 1.9173 85.133 0.294678V29.4434C85.133 29.8159 85.5507 30.6025 86.386 31.8028ZM141.72 31.8028H131.621V7.29831L128.931 5.31143C132.005 4.23525 137.661 1.9173 140.467 0.294678V29.4434C140.467 29.8159 140.885 30.6025 141.72 31.8028ZM101.531 29.2613V30.7928C100.061 32.0429 97.6216 32.7052 94.9902 32.7052C90.6464 32.7052 89.1427 29.5096 89.1427 26.8108V12.3978H87.046L98.0477 2.82789V10.7173H101.531V12.3978H98.0477V28.0195C98.0477 29.2613 98.7828 29.8408 99.6682 29.8408C100.211 29.8408 101.18 29.593 101.531 29.2613ZM150.116 9.55011C147.618 9.55011 145.621 7.49693 145.621 4.9223C145.621 2.34767 147.618 0.294678 150.116 0.294678C152.613 0.294678 154.602 2.34767 154.602 4.9223C154.602 7.49693 152.613 9.55011 150.116 9.55011ZM156.022 31.8028H145.713V16.3716L142.881 14.3765C146.123 13.3003 151.561 10.974 154.518 9.35137V29.4434C154.518 29.8327 155.019 30.619 156.022 31.8028ZM183.998 31.8028H173.898V16.3716C173.898 14.7573 172.737 13.7142 171.359 13.7142C170.022 13.7142 168.41 14.7987 168.41 16.3716V31.8028H159.63V16.3716L156.807 14.3765C160.04 13.3003 165.227 10.974 168.185 9.35137V13.59C169.638 11.6776 172.453 9.76534 176.087 9.76534C180.698 9.76534 182.678 12.8035 182.678 16.4129V29.4434C182.678 29.8243 183.121 30.6107 183.998 31.8028Z" fill="#AB3C3E"/>
</svg>
