<svg width="52" height="52" viewBox="0 0 52 52" fill="none" xmlns="http://www.w3.org/2000/svg">
<rect width="52" height="52" rx="26" fill="#FDF8F8"/>
<path fill-rule="evenodd" clip-rule="evenodd" d="M33.7746 25.3371C34.1407 24.971 34.7343 24.971 35.1004 25.3371L37.25 27.4867L39.3996 25.3371C39.7657 24.971 40.3593 24.971 40.7254 25.3371C41.0915 25.7032 41.0915 26.2968 40.7254 26.6629L37.9129 29.4754C37.5468 29.8415 36.9532 29.8415 36.5871 29.4754L33.7746 26.6629C33.4085 26.2968 33.4085 25.7032 33.7746 25.3371Z" fill="#B21120"/>
<path fill-rule="evenodd" clip-rule="evenodd" d="M14.0871 22.5246C14.4532 22.1585 15.0468 22.1585 15.4129 22.5246L18.2254 25.3371C18.5915 25.7032 18.5915 26.2968 18.2254 26.6629C17.8593 27.029 17.2657 27.029 16.8996 26.6629L14.75 24.5133L12.6004 26.6629C12.2343 27.029 11.6407 27.029 11.2746 26.6629C10.9085 26.2968 10.9085 25.7032 11.2746 25.3371L14.0871 22.5246Z" fill="#B21120"/>
<path fill-rule="evenodd" clip-rule="evenodd" d="M21.754 14.5639C24.2222 13.6465 26.9211 13.5532 29.4468 14.2978C31.9725 15.0425 34.189 16.5852 35.7647 18.6949C37.3403 20.8046 38.1904 23.3679 38.1875 26.0011L37.25 26.0001H38.1875V26.0011V28.8126C38.1875 29.3303 37.7678 29.7501 37.25 29.7501C36.7322 29.7501 36.3125 29.3303 36.3125 28.8126V25.9991C36.3149 23.771 35.5957 21.602 34.2624 19.8169C32.9292 18.0318 31.0536 16.7264 28.9165 16.0963C26.7794 15.4662 24.4957 15.5451 22.4072 16.3214C20.3187 17.0976 18.5378 18.5294 17.331 20.4024C17.0506 20.8376 16.4704 20.9631 16.0352 20.6827C15.5999 20.4023 15.4744 19.8221 15.7549 19.3868C17.181 17.1733 19.2858 15.4812 21.754 14.5639Z" fill="#B21120"/>
<path fill-rule="evenodd" clip-rule="evenodd" d="M14.75 22.25C15.2678 22.25 15.6875 22.6697 15.6875 23.1875L15.6875 26.001C15.6851 28.2291 16.4043 30.398 17.7376 32.1832C19.0708 33.9683 20.9464 35.2736 23.0835 35.9038C25.2206 36.5339 27.5043 36.4549 29.5928 35.6787C31.6813 34.9024 33.4622 33.4707 34.669 31.5977C34.9494 31.1625 35.5296 31.037 35.9648 31.3174C36.4001 31.5978 36.5256 32.178 36.2451 32.6132C34.8189 34.8268 32.7142 36.5188 30.246 37.4362C27.7778 38.3536 25.0789 38.4469 22.5532 37.7022C20.0275 36.9575 17.811 35.4149 16.2353 33.3052C14.6597 31.1956 13.8097 28.6325 13.8125 25.9995C13.8125 25.9993 13.8125 25.9997 13.8125 25.9995V23.1875C13.8125 22.6697 14.2322 22.25 14.75 22.25Z" fill="#B21120"/>
</svg>
