<svg width="52" height="52" viewBox="0 0 52 52" fill="none" xmlns="http://www.w3.org/2000/svg">
<rect width="52" height="52" rx="26" fill="#FDF8F8"/>
<path fill-rule="evenodd" clip-rule="evenodd" d="M28.8125 16.625C28.8125 16.1072 29.2322 15.6875 29.75 15.6875H35.375C35.8928 15.6875 36.3125 16.1072 36.3125 16.625V22.25C36.3125 22.7678 35.8928 23.1875 35.375 23.1875C34.8572 23.1875 34.4375 22.7678 34.4375 22.25V17.5625H29.75C29.2322 17.5625 28.8125 17.1428 28.8125 16.625Z" fill="#B21120"/>
<path fill-rule="evenodd" clip-rule="evenodd" d="M36.0379 15.9621C36.404 16.3282 36.404 16.9218 36.0379 17.2879L29.4754 23.8504C29.1093 24.2165 28.5157 24.2165 28.1496 23.8504C27.7835 23.4843 27.7835 22.8907 28.1496 22.5246L34.7121 15.9621C35.0782 15.596 35.6718 15.596 36.0379 15.9621Z" fill="#B21120"/>
<path fill-rule="evenodd" clip-rule="evenodd" d="M16.625 28.8125C17.1428 28.8125 17.5625 29.2322 17.5625 29.75V34.4375H22.25C22.7678 34.4375 23.1875 34.8572 23.1875 35.375C23.1875 35.8928 22.7678 36.3125 22.25 36.3125H16.625C16.1072 36.3125 15.6875 35.8928 15.6875 35.375V29.75C15.6875 29.2322 16.1072 28.8125 16.625 28.8125Z" fill="#B21120"/>
<path fill-rule="evenodd" clip-rule="evenodd" d="M23.8504 28.1496C24.2165 28.5157 24.2165 29.1093 23.8504 29.4754L17.2879 36.0379C16.9218 36.404 16.3282 36.404 15.9621 36.0379C15.596 35.6718 15.596 35.0782 15.9621 34.7121L22.5246 28.1496C22.8907 27.7835 23.4843 27.7835 23.8504 28.1496Z" fill="#B21120"/>
</svg>
