<svg width="41" height="40" viewBox="0 0 41 40" fill="none" xmlns="http://www.w3.org/2000/svg">
<rect x="0.333374" width="40" height="40" rx="20" fill="white"/>
<path fill-rule="evenodd" clip-rule="evenodd" d="M20.3334 17C18.6765 17 17.3334 18.3431 17.3334 20C17.3334 21.6569 18.6765 23 20.3334 23C21.9902 23 23.3334 21.6569 23.3334 20C23.3334 18.3431 21.9902 17 20.3334 17ZM15.8334 20C15.8334 17.5147 17.8481 15.5 20.3334 15.5C22.8187 15.5 24.8334 17.5147 24.8334 20C24.8334 22.4853 22.8187 24.5 20.3334 24.5C17.8481 24.5 15.8334 22.4853 15.8334 20Z" fill="#B21120"/>
<path fill-rule="evenodd" clip-rule="evenodd" d="M16.2084 12.125C14.1373 12.125 12.4584 13.8039 12.4584 15.875V24.125C12.4584 26.1961 14.1373 27.875 16.2084 27.875H24.4584C26.5294 27.875 28.2084 26.1961 28.2084 24.125V15.875C28.2084 13.8039 26.5294 12.125 24.4584 12.125H16.2084ZM10.9584 15.875C10.9584 12.9755 13.3089 10.625 16.2084 10.625H24.4584C27.3579 10.625 29.7084 12.9755 29.7084 15.875V24.125C29.7084 27.0245 27.3579 29.375 24.4584 29.375H16.2084C13.3089 29.375 10.9584 27.0245 10.9584 24.125V15.875Z" fill="#B21120"/>
<path d="M25.2084 16.25C25.8297 16.25 26.3334 15.7463 26.3334 15.125C26.3334 14.5037 25.8297 14 25.2084 14C24.5871 14 24.0834 14.5037 24.0834 15.125C24.0834 15.7463 24.5871 16.25 25.2084 16.25Z" fill="#B21120"/>
</svg>
