<svg width="120" height="49" viewBox="0 0 120 49" fill="none" xmlns="http://www.w3.org/2000/svg">
<path d="M35.1359 17.2169C33.3616 18.0824 31.1026 19.5162 29.8044 20.6746C29.0572 20.0687 28.0734 19.4484 26.9223 19.4484C25.8404 19.4484 25.5043 19.8264 25.5043 20.1928C25.5043 20.4192 25.8404 20.3947 25.8404 20.7207C25.8342 20.812 25.7934 20.8976 25.7265 20.96C25.6595 21.0224 25.5713 21.057 25.4798 21.0568C25.2259 21.0568 24.9749 20.7914 24.9749 20.3356C24.9749 19.6143 25.3961 18.6868 26.7059 17.2371L28.9374 14.7632L26.0784 13.2976V13.1317C26.3092 13.0654 26.39 12.898 26.39 12.6268V10.4919C26.3881 10.381 26.3585 10.2723 26.3038 10.1758C26.2492 10.0793 26.1711 9.99803 26.0769 9.93944V9.77211C27.9205 8.86045 30.0438 7.67472 31.2642 6.6491C31.5888 7.00684 32.4903 7.5146 33.402 7.5146C34.1694 7.5146 34.2675 7.27803 34.2675 7.00972C34.2675 6.85826 34.1478 6.79623 34.1478 6.69669C34.1478 6.49474 34.2632 6.4082 34.4132 6.4082C34.6397 6.4082 34.8214 6.57841 34.8214 7.00827C34.8214 8.16228 33.8838 9.5543 31.9624 9.5543C30.6987 9.5543 29.9241 9.15328 29.3918 8.52146L29.2721 8.59359V11.7382L31.0247 12.5792L31.7691 11.8349L35.1301 13.537V13.7289C34.9512 13.8039 34.8416 13.977 34.8416 14.1847V16.5389C34.8416 16.8606 34.9786 16.9716 35.1301 17.0438V17.2125L35.1359 17.2169ZM31.9652 18.4661V14.8887L30.3064 14.1198L26.8242 17.8184L26.8718 17.8429C27.4271 17.5544 28.2566 17.3871 29.3933 17.3871C30.3421 17.4281 31.2415 17.8222 31.9148 18.492L31.9624 18.469L31.9652 18.4661ZM24.5104 17.553C22.9236 18.2021 20.3069 19.6908 19.0577 20.6746L14.4706 17.5761V17.4073C14.7591 17.3106 14.8312 17.0467 14.8312 16.686V10.7718C14.8312 10.2207 14.7273 9.99714 14.423 9.93079V9.78654C16.2982 9.04221 18.1937 7.98341 19.8756 6.66352C21.0527 7.60115 23.1905 8.99172 24.4152 9.76201V9.90627C24.1628 10.0072 24.1036 10.2265 24.1036 10.5294V16.7971C24.0991 16.9306 24.1359 17.0622 24.209 17.1739C24.2821 17.2857 24.3878 17.3722 24.5118 17.4217V17.566L24.5104 17.553ZM21.2215 18.681V10.9247C20.2117 10.3246 18.6755 9.26579 17.8604 8.61955L17.7162 8.71476V16.4249C18.7981 17.025 20.2117 18.0579 21.1263 18.7546L21.2215 18.681ZM14.0421 16.2547L11.737 20.6746C10.8513 19.9144 9.54153 19.3763 7.82351 19.3763C5.24432 19.3763 2.0333 20.0442 1.12308 20.6255L0.810059 20.2894C1.81981 19.4051 2.87573 17.1072 2.87573 14.3809C2.87573 11.4728 1.21684 10.101 1.21684 7.22321C1.21684 4.26608 2.53818 2.62451 4.98755 1.38684L5.27605 1.65226C4.86387 1.97571 4.52463 2.38254 4.28052 2.84614C4.03642 3.30974 3.89295 3.81966 3.85951 4.34253L8.08605 0.858887C8.87077 1.6162 10.1056 2.46872 11.2567 2.46872C12.1164 2.46872 12.5549 2.29273 12.5549 1.91624C12.5549 1.71429 12.3861 1.65371 12.3861 1.53109C12.3861 1.32914 12.5333 1.24259 12.6992 1.24259C12.9271 1.24259 13.0843 1.51234 13.0843 1.81959C13.0843 3.41211 11.45 4.74787 9.77089 4.74787C9.21408 4.74787 8.74383 4.70027 8.32839 4.5791V16.6428L8.97751 16.5952C10.5715 16.5952 11.9837 17.2674 12.3645 17.2674C12.9213 17.2674 13.1204 16.8707 13.5661 16.0196L14.0479 16.2591L14.0421 16.2547ZM7.87111 16.6875V4.39302C7.23641 4.11029 6.71711 3.6833 6.18915 3.07168L3.83499 4.96858C3.83499 8.50848 5.68428 10.1097 5.68428 12.9673C5.68428 14.9666 4.27351 17.0452 3.18586 18.1069L3.28251 18.1314C4.72069 17.3092 6.58296 16.8692 7.86967 16.6889L7.87111 16.6875ZM100.255 18.3103C99.2618 19.0863 98.3153 19.92 97.4203 20.8073L94.8267 18.4531V18.3089C95.0546 18.2324 95.2118 17.9684 95.2118 17.5645V5.26718L94.5151 4.73922C94.3636 4.62382 94.215 4.52284 94.0823 4.52284C93.7938 4.52284 93.563 4.72912 93.3611 4.93107L93.0726 4.61949C94.089 3.84492 95.0519 3.0025 95.9547 2.09799L98.5512 4.33387V4.43052C98.2973 4.50553 98.0709 4.8676 98.0709 5.2715V17.5212L98.7676 18.1458C98.9378 18.2973 99.1455 18.3622 99.3446 18.3622C99.5581 18.3622 99.8177 18.218 99.9937 18.0261L100.259 18.3146L100.255 18.3103ZM72.1289 18.3103C71.1282 19.0681 70.1816 19.8948 69.2958 20.7842L66.7022 18.4762V18.3319C66.9474 18.2497 67.1104 18.0247 67.1104 17.4664V11.2204C66.2487 10.5423 65.4152 9.8291 64.612 9.0826L63.7724 9.80385V17.514L64.5427 18.1862C64.8312 18.4502 65.3174 18.3954 65.6968 18.042L65.9377 18.306C65.1443 18.8931 63.8604 20.0283 63.1046 20.7799L60.511 18.4719V18.3276C60.7764 18.2194 60.9192 17.9857 60.9192 17.6063V9.92213L60.2225 9.41726C60.0782 9.30186 59.9599 9.20088 59.8142 9.20088C59.4868 9.20088 59.2661 9.37398 59.0699 9.53554L58.7814 9.22252C59.4666 8.73639 60.6206 7.7555 61.6404 6.77027L63.9225 8.90805L66.3718 6.76882C67.6857 7.86207 69.0478 8.89594 70.4541 9.86732V9.98705C70.0762 10.088 69.9738 10.3679 69.9738 10.5381V17.5054L70.7902 18.2497C70.9302 18.3766 71.3918 18.4401 71.8721 17.9843L72.1375 18.2959L72.1289 18.3103ZM119.133 17.3251C117.359 18.1906 115.1 19.623 113.801 20.7842C113.054 20.1783 112.07 19.5581 110.919 19.5581C109.84 19.5581 109.503 19.936 109.503 20.3024C109.503 20.5303 109.839 20.5043 109.839 20.8303C109.833 20.9217 109.792 21.0072 109.725 21.0696C109.658 21.132 109.57 21.1667 109.478 21.1664C109.224 21.1664 108.973 20.901 108.973 20.4452C108.973 19.7355 109.395 18.7964 110.704 17.3438L112.94 14.8699L110.084 13.4043V13.2356C110.315 13.1692 110.396 13.0019 110.396 12.7307V10.5929C110.396 10.3044 110.3 10.1371 110.084 10.0404V9.87164C111.93 8.95854 114.054 7.77425 115.271 6.74863C115.596 7.10925 116.497 7.61413 117.409 7.61413C118.179 7.61413 118.275 7.379 118.275 7.10925C118.275 6.95635 118.155 6.89287 118.155 6.79623C118.155 6.59428 118.27 6.50773 118.42 6.50773C118.648 6.50773 118.83 6.67794 118.83 7.10781C118.83 8.26181 117.725 9.65238 115.974 9.65238C114.71 9.65238 113.936 9.25137 113.403 8.61955L113.283 8.69168V11.8363L115.038 12.6759L115.783 11.9315L119.144 13.6366V13.8039C118.967 13.8804 118.856 14.0535 118.856 14.2597V16.6399C118.856 16.9616 118.977 17.0957 119.144 17.1447V17.315L119.133 17.3251ZM115.962 18.5743V14.9969L114.303 14.228L110.821 17.9266L110.87 17.9497C111.426 17.6612 112.255 17.4938 113.392 17.4938C114.277 17.4938 115.359 17.9915 115.913 18.5988L115.962 18.5743ZM109.452 11.3185L103.855 14.8497V17.0596C104.556 17.3005 106.055 18.0694 106.784 18.5021L108.2 17.1563C108.295 16.7481 108.416 16.3398 108.849 16.3398C109.051 16.3398 109.161 16.5129 109.161 16.6759C109.161 16.8779 109.067 17.0337 108.968 17.1318L105.295 20.7698C104.232 20.0918 101.833 18.8556 100.611 18.3175V18.1733C100.813 18.0968 100.972 17.8271 100.972 17.5487V10.6318C100.972 10.3433 100.817 10.052 100.587 10.0072V9.86299C102.209 9.09125 104.383 7.84348 106.087 6.78757L109.448 11.3271L109.452 11.3185ZM106.74 12.4004L103.906 8.55752L103.86 8.58205V14.2511L106.742 12.4032L106.74 12.4004ZM93.5775 11.3185L87.9575 14.8526V17.0625C88.6585 17.3034 90.1573 18.0723 90.8857 18.505L92.3023 17.1592C92.3989 16.7264 92.5187 16.3427 92.9759 16.3427C93.1779 16.3427 93.2644 16.5158 93.2644 16.6788C93.2644 16.8808 93.1707 17.0366 93.0726 17.1346L89.3985 20.7698C87.8875 19.8534 86.3235 19.0273 84.7147 18.2959V18.1516C84.9167 18.0752 85.0753 17.8054 85.0753 17.527V10.6102C85.0753 10.3217 84.921 10.0303 84.6902 9.98561V9.84135C86.3145 9.07106 88.5128 7.82474 90.215 6.76882L93.576 11.3084L93.5775 11.3185ZM90.8396 12.4004L88.0065 8.55752L87.9575 8.58205V14.2511L90.8396 12.4004ZM83.6804 19.76C82.4399 27.0331 78.2797 23.9115 73.8325 23.8192C72.6698 23.8192 72.0236 24.2087 71.6947 24.6126L71.3817 24.3486C71.8115 22.2757 73.205 20.9616 75.1783 20.9616C77.3522 20.9616 78.7153 22.3536 81.0147 22.3536C82.0764 22.3536 82.7053 21.8415 83.0082 21.0554L82.9837 21.0078C82.6513 21.1213 82.3022 21.1784 81.9509 21.1765C80.768 21.1765 79.6934 20.3687 79.477 19.0128C78.7009 19.5665 77.9477 20.1516 77.2195 20.7669C75.8303 19.8725 73.6969 18.7301 72.6078 18.2454V18.1011C72.8357 18.0247 72.9929 17.8011 72.9929 17.5241V10.6722C72.9929 10.2683 72.8386 10.052 72.5602 9.99859V9.87742C74.5018 9.13164 76.654 7.83339 78.0604 6.7544C79.2721 7.71222 81.2772 9.10856 82.5755 9.85289V9.97262C82.3995 10.0476 82.2394 10.2409 82.2394 10.6463V18.1733C82.2394 19.1109 82.4731 19.6158 83.1525 19.6158C83.2607 19.6158 83.3833 19.623 83.5131 19.5912L83.6804 19.76ZM79.3818 18.5339V11.1829L75.9832 8.72486L75.8635 8.82006V16.937C76.8242 17.4044 78.5134 18.4228 79.037 18.8094L79.3977 18.5469L79.3818 18.5339ZM59.8791 18.5094C59.0713 19.897 58.2347 20.9328 57.0201 20.9328C56.0608 20.9328 55.3828 20.3846 55.0266 19.346L53.4398 14.7329H47.2774L46.3888 17.3005C47.3741 17.3755 48.2756 17.9713 48.5266 17.9713C48.805 17.9713 49.0416 17.7549 49.3445 17.2501L49.7297 17.4895L47.6885 20.7568C47.1332 20.275 46.2576 19.7701 45.0949 19.7701C43.5024 19.7701 42.4984 20.1985 41.7815 20.7539L41.5189 20.6572C41.8738 18.9262 43.2932 17.4477 45.7714 17.2702L50.0456 4.732L49.9013 4.29926C49.6071 3.41356 49.0358 2.92888 48.3867 2.92888C47.7376 2.92888 47.3885 3.22892 47.1606 3.45683L46.9731 3.31259C47.149 2.32591 48.0578 1.24692 49.4469 1.24692C50.6082 1.24692 51.3943 1.81382 51.8242 2.49468H51.8718C52.0737 1.96529 52.4517 1.53542 52.8556 1.48493L52.9277 1.60466C52.7762 1.72006 52.5916 2.18166 52.5916 2.70961C52.5916 2.96927 52.6493 3.22603 52.7359 3.47703L57.7803 18.3925C57.9 18.7459 58.151 18.9205 58.4294 18.9205C58.8333 18.9205 59.0858 18.6796 59.4132 18.1992L59.8705 18.5122L59.8791 18.5094ZM52.8397 12.9124L50.3903 5.70858H50.3427L47.8934 12.9139H52.8412L52.8397 12.9124ZM70.9864 45.0976C70.0028 45.8673 69.0646 46.6933 68.1764 47.5715L65.5972 45.2404V45.0961C65.9333 44.9995 66.0054 44.6836 66.0054 44.3028V37.9846C65.4039 37.5518 64.1807 36.4844 63.507 35.8713L62.666 36.6157V44.3013L63.3152 44.8754C63.4407 44.9851 63.5936 45.138 63.8201 45.138C64.0985 45.138 64.2889 45.037 64.5644 44.8019L64.8284 45.0904C63.8185 45.8374 62.8706 46.6647 61.9938 47.5643L59.4002 45.2101V45.0904C59.6656 44.9937 59.8085 44.8221 59.8085 44.4167V38.0221L57.3129 35.8843L56.4719 36.6056V44.3157L57.0735 44.8437C57.2826 45.0269 57.4298 45.1567 57.6505 45.1567C57.9159 45.1567 58.0832 45.1091 58.3717 44.8206L58.6371 45.1091C57.6553 45.8898 56.7099 46.7153 55.8041 47.583L53.2076 45.275V45.1308C53.4961 45.0586 53.6158 44.8177 53.6158 44.3864V36.7527L52.945 36.2247C52.7762 36.092 52.619 36.0084 52.4647 36.0084C52.2541 36.0084 52.0233 36.1151 51.7434 36.369L51.478 36.0329C52.2483 35.5136 53.4715 34.3985 54.337 33.5806L56.6162 35.7184L59.0684 33.5792L62.3602 36.1238L65.2669 33.5792L69.3492 36.6546V36.7729C69.0607 36.8695 68.8688 37.0874 68.8688 37.5172V44.2898L69.3968 44.7947C69.58 44.9678 69.792 45.1553 70.0214 45.1553C70.3099 45.1553 70.5306 45.0024 70.7657 44.7947L71.0066 45.1077L70.9864 45.0976ZM51.8184 30.2946L50.8577 31.1601C50.0788 31.8612 49.4542 32.1699 48.8642 32.1699C48.4055 32.1699 47.9698 31.9535 47.4938 31.5453C47.3265 31.401 47.1692 31.2568 46.9413 31.2568C46.6817 31.2568 46.4653 31.3722 46.2446 31.5929L45.9806 31.3044L48.8397 28.8305L50.2822 30.1028C50.4482 30.2501 50.6604 30.3348 50.8822 30.3422C51.0112 30.3354 51.1373 30.302 51.2527 30.2442C51.3681 30.1863 51.4704 30.1053 51.553 30.0061L51.8184 30.2946ZM52.3954 45.1135L49.5609 47.609L46.9456 45.2923V45.1481C47.2241 45.0731 47.3539 44.812 47.3539 44.4744V36.7426L46.7538 36.2608C46.5807 36.1223 46.4768 36.0214 46.2489 36.0214C45.9893 36.0214 45.7238 36.1368 45.5046 36.3575L45.2406 36.0444C46.2531 35.2918 47.2078 34.4643 48.0968 33.5691L50.6904 35.805V35.9247C50.4682 36.0112 50.2086 36.1872 50.2086 36.6214V44.3316L50.8794 44.9317C51.0359 45.0794 51.2412 45.1646 51.4564 45.1712C51.7045 45.1712 51.9122 45.0514 52.13 44.835L52.3925 45.1235L52.3954 45.1135ZM90.3333 44.1297C88.559 44.9952 86.3 46.4261 85.0018 47.5873C84.2517 46.9815 83.2708 46.3612 82.1196 46.3612C81.0378 46.3612 80.7017 46.7391 80.7017 47.1055C80.7017 47.3335 81.0378 47.3075 81.0378 47.6335C81.0315 47.7248 80.9908 47.8104 80.9239 47.8728C80.8569 47.9352 80.7687 47.9698 80.6771 47.9696C80.4247 47.9696 80.1723 47.7042 80.1723 47.2484C80.1723 46.5271 80.5935 45.5996 81.9033 44.1499L84.1348 41.676L81.2758 40.2104V40.0661C81.5066 40.0012 81.5874 39.8108 81.5874 39.5382V37.4033C81.5855 37.2924 81.5559 37.1837 81.5012 37.0872C81.4465 36.9906 81.3685 36.9094 81.2743 36.8508V36.6835C83.1179 35.7718 85.2441 34.5861 86.4616 33.5604C86.7847 33.9211 87.6877 34.4259 88.5994 34.4259C89.3668 34.4259 89.4649 34.1908 89.4649 33.9211C89.4649 33.7696 89.3451 33.7292 89.3451 33.6095C89.3451 33.4075 89.4605 33.321 89.6077 33.321C89.8342 33.321 90.0159 33.4912 90.0159 33.9211C90.0159 35.0751 88.934 36.4685 87.1569 36.4685C85.8932 36.4685 85.1186 36.0675 84.5863 35.4357L84.4666 35.5078V38.6525L86.2192 39.4935L86.9621 38.7491L90.326 40.4542V40.5984C90.1501 40.6749 90.0376 40.848 90.0376 41.0542V43.4776C90.0376 43.7979 90.1746 43.9104 90.326 43.9825V44.1268L90.3333 44.1297ZM87.1626 45.3774V41.8L85.5038 41.0326L82.0216 44.7312L82.0706 44.7543C82.626 44.4658 83.4554 44.2984 84.5921 44.2984C85.541 44.3394 86.4403 44.7335 87.1136 45.4034L87.1626 45.3774ZM80.4839 38.1216L74.8869 41.6529V43.8599C75.588 44.1008 77.0868 44.8697 77.8181 45.3024L79.2346 43.9566C79.3068 43.5469 79.4539 43.1387 79.8838 43.1387C80.0857 43.1387 80.1968 43.3118 80.1968 43.4748C80.1968 43.6767 80.0785 43.8325 79.9804 43.9306L76.3309 47.5571C75.2692 46.8791 72.8689 45.6428 71.6471 45.1077V44.9634C71.8865 44.8682 72.0077 44.6172 72.0077 44.3388V37.4263C72.0077 37.1378 71.8548 36.8465 71.6226 36.8032V36.6589C73.2468 35.8872 75.4207 34.6394 77.1243 33.5835L80.4853 38.1231L80.4839 38.1216ZM77.7691 39.2035L74.9345 35.3607L74.8855 35.3838V41.0528L77.7676 39.2021L77.7691 39.2035Z" fill="#AB3C3E"/>
<path d="M45.6705 29.4565C45.6705 31.3519 44.4011 32.2665 42.836 32.5074V44.5407C43.7159 43.906 44.4141 43.055 44.7805 42.1635C44.8151 42.0798 44.8295 42.0019 44.8295 41.9471C44.8295 41.8216 44.7083 41.7409 44.7083 41.5865C44.7098 41.4221 44.7458 41.2259 44.9723 41.2259C45.1743 41.2259 45.3084 41.3701 45.3084 41.5865C45.3084 44.4643 43.2139 48.1441 37.3314 48.1441C33.125 48.1441 29.6688 44.9706 29.6688 40.5537C29.6688 34.6394 34.5733 32.5709 37.8824 31.8352C36.7717 31.6477 35.2224 31.3793 33.7742 31.3793C31.0074 31.3793 30.1347 32.6891 29.9083 33.6369L29.6198 33.4926C29.6702 32.1569 30.8459 28.4972 34.4478 28.4972C37.9747 28.4972 40.2279 29.9614 42.9586 29.9614C44.7733 29.9614 45.0993 29.1435 45.2637 28.3025L45.5767 28.4222C45.6166 28.7652 45.6407 29.1098 45.6488 29.455L45.6705 29.4565ZM42.3816 44.8523V32.555L41.9488 32.5795C41.3689 32.5795 40.8266 32.4612 40.1457 32.3386C39.2744 32.7714 38.4868 33.67 38.4868 35.0765C38.4868 37.7249 39.9755 38.3466 39.9755 41.034C39.9755 43.1444 38.2012 44.6951 36.7558 45.4048C37.5377 45.6962 38.406 45.813 39.3004 45.813C40.3101 45.813 41.6978 45.3183 42.3729 44.8523H42.3816ZM39.4879 32.1944L39.0076 32.0977C36.0836 32.6401 32.7139 35.2279 32.7139 39.4949C32.7139 42.3049 34.2055 44.2551 36.3159 45.2115C36.9405 44.7716 37.6372 43.9738 37.6372 42.5717C37.6372 40.0762 36.0274 38.7174 36.0274 36.4469C36.0274 34.7447 37.1381 33.2301 39.485 32.1958L39.4879 32.1944Z" fill="#AB3C3E"/>
</svg>
