<svg width="837" height="326" viewBox="0 0 837 326" fill="none" xmlns="http://www.w3.org/2000/svg">
<path d="M135.236 0.604538C120.372 3.40701 108.92 9.1338 98.442 19.2471C89.1826 28.1419 83.3346 37.8896 79.5577 50.9272C75.659 64.6959 76.0245 77.9772 80.7761 92.4769L83.8219 102.103L79.6795 113.069C77.3647 119.04 75.659 124.644 75.9027 125.376C76.2682 126.228 76.8774 125.132 77.3647 123.182C79.4359 115.14 87.7206 101.737 87.7206 106.611C87.7206 107.099 89.4263 109.779 91.4974 112.338L95.1525 117.09L88.6953 123.182C82.1162 129.396 74.3188 139.266 74.3188 141.459C74.3188 142.069 79.4359 137.438 85.7712 131.224L97.2237 119.771L101.975 123.426C109.285 129.275 119.276 134.392 128.901 137.195C145.835 142.312 169.837 138.535 184.822 128.3C208.945 112.094 221.494 81.8763 215.159 55.1919L213.575 48.2466L220.398 43.0072C230.266 35.5745 244.765 26.1923 261.7 15.9572C265.842 13.3984 269.132 11.0834 268.766 10.8397C268.522 10.596 261.821 10.9615 253.902 11.5707C239.038 12.7892 213.332 18.516 205.534 22.1714L201.148 24.2428L194.082 18.1505C185.553 10.7178 175.928 5.23471 166.913 2.67593C158.872 0.238998 142.668 -0.735779 135.236 0.604538ZM165.451 4.50363C176.781 7.42795 189.818 15.2261 195.909 22.9025C197.615 25.0957 199.321 23.9991 174.832 35.4527C168.131 38.6207 158.872 43.0072 154.12 45.2004C139.378 52.1457 137.185 52.9986 136.211 52.3894C134.018 50.9272 143.399 33.9905 154.973 18.7597C158.872 13.6421 162.039 9.1338 162.039 8.89011C162.039 7.5498 151.196 11.6926 145.226 15.2261C141.693 17.2975 138.525 19.0034 138.282 19.0034C137.307 19.0034 118.057 33.8687 112.087 39.3518C102.828 47.6374 96.6145 56.654 94.4215 64.6959C93.4468 68.7168 92.594 72.9815 92.594 74.1999C92.594 76.2713 92.8376 76.2713 94.5433 75.0529C95.518 74.0781 97.1018 71.6412 97.9547 69.5698C101.732 60.7968 125.367 32.4065 129.022 32.4065C130.85 32.4065 125.245 40.4484 115.742 51.2928C106.239 62.0153 92.3503 82.9729 88.4516 92.3551C87.4769 94.9139 86.0149 96.9853 85.4057 96.9853C84.6747 96.9853 82.9691 92.9643 81.3852 88.0905C72.8568 60.4313 85.0402 28.3856 110.26 12.3018C118.666 6.81871 121.225 5.84395 134.018 3.04147C145.47 0.604538 151.196 0.848236 165.451 4.50363ZM218.692 29.8477C216.743 31.6754 209.067 34.4779 207.483 33.9905C204.681 33.0158 205.778 31.3099 209.92 30.0914C215.159 28.6293 220.154 28.3856 218.692 29.8477ZM204.559 36.793C203.828 37.7678 202.488 38.4989 201.757 38.4989C200.539 38.4989 188.965 45.3223 162.892 61.406C148.638 70.179 122.931 89.7963 109.042 102.712C104.412 106.977 99.5385 111.485 98.442 112.46C96.4926 114.288 96.1271 114.288 94.1778 112.46C92.9595 111.363 91.0101 108.683 89.6699 106.246C87.4769 102.103 87.4769 101.981 90.1573 98.3256C92.8376 94.4265 101.488 89.6745 105.874 89.6745C110.382 89.6745 114.159 87.4812 129.266 76.0276C149.125 60.9186 160.09 53.7297 174.832 45.6878C191.645 36.5493 202.366 32.2847 204.316 33.8687C205.534 34.8435 205.534 35.5745 204.559 36.793ZM214.306 61.1623C217.23 81.1452 209.189 103.443 194.082 117.821C184.701 126.838 180.071 129.762 169.228 133.539C149.125 140.606 126.707 137.804 108.798 125.863C104.534 123.06 100.879 120.014 100.391 118.918C99.6603 116.968 107.823 108.804 115.986 103.443L120.372 100.397L126.098 102.956C129.266 104.296 134.87 106.124 138.647 106.855C144.861 108.073 146.323 107.951 152.78 105.515C162.161 101.981 172.761 92.8425 183.36 79.3175C187.99 73.2252 196.153 64.0867 201.514 58.8473C212.479 48.0029 212.479 48.0029 214.306 61.1623Z" fill="white"/>
<path d="M423.983 118.308C421.302 124.279 418.256 130.615 417.282 132.321C416.429 134.026 414.601 138.291 413.261 141.825L410.824 148.161H413.505C415.454 148.161 416.916 146.698 418.866 142.678L421.546 137.073L429.221 137.438L436.775 137.804L439.212 142.921C441.039 146.698 442.379 148.161 444.451 148.161C445.913 148.161 447.131 147.795 447.131 147.43C447.131 146.455 437.872 125.619 432.633 114.653L429.1 107.342L423.983 118.308ZM429.831 132.077C427.15 132.321 424.714 132.199 424.348 131.955C424.104 131.589 425.079 128.543 426.541 125.132L429.343 118.917L432.024 125.253L434.704 131.711L429.831 132.077Z" fill="white"/>
<path d="M452.004 128.056V148.161H462.482C472.594 148.161 472.838 148.039 472.473 145.358C472.107 143.043 471.254 142.678 465.162 142.312L458.096 141.946V125.01V107.951H455.05H452.004V128.056Z" fill="white"/>
<path d="M477.59 128.056V148.161H488.067C498.18 148.161 498.423 148.039 498.058 145.358C497.692 143.043 496.839 142.678 490.748 142.312L483.681 141.946V125.01V107.951H480.635H477.59V128.056Z" fill="white"/>
<path d="M520.231 128.056V148.161H523.277H526.323V134.514V120.745L540.09 134.514C547.644 141.946 554.223 148.161 554.71 148.161C555.198 148.161 555.563 139.144 555.563 128.056V107.951H552.517C549.593 107.951 549.593 107.951 549.228 121.354L548.862 134.758L536.679 122.573C529.978 115.749 523.521 109.779 522.424 109.048C520.353 107.951 520.231 109.17 520.231 128.056Z" fill="white"/>
<path d="M573.229 117.212C570.792 122.451 567.747 129.031 566.528 131.711C565.31 134.392 563.239 139.144 561.899 142.312L559.34 148.161H562.264C564.579 148.161 565.675 147.064 567.137 143.652C569.574 137.926 570.671 137.194 578.103 137.194C585.291 137.194 586.753 137.926 587.849 142.312C588.946 146.455 591.261 148.526 594.428 147.917C596.621 147.551 596.499 147.064 592.601 138.413C590.164 133.417 586.265 124.888 583.829 119.527C581.514 114.165 579.077 109.292 578.468 108.682C577.981 108.073 575.544 111.85 573.229 117.212ZM581.027 125.863L583.585 132.321H577.981C573.96 132.321 572.498 131.833 572.986 130.737C576.519 121.842 577.859 118.917 578.103 119.161C578.346 119.405 579.686 122.451 581.027 125.863Z" fill="white"/>
<path d="M593.332 110.266C593.332 112.216 594.307 112.703 598.571 113.069L603.688 113.434L604.053 130.737L604.419 148.161H607.343H610.389V130.493V112.825H615.262C619.283 112.825 620.135 112.46 620.135 110.388C620.135 108.073 619.283 107.951 606.734 107.951C594.307 107.951 593.332 108.073 593.332 110.266Z" fill="white"/>
<path d="M625.131 121.598C625.131 143.287 628.542 148.77 641.944 148.77C655.224 148.77 657.904 144.262 657.904 121.598V107.951H654.858H651.812V122.451C651.812 135.854 651.569 137.316 649.132 140.241C645.842 144.018 639.994 144.627 635.487 141.581C632.319 139.632 632.319 139.388 632.319 123.791V107.951H628.664H625.009L625.131 121.598Z" fill="white"/>
<path d="M666.432 127.934V148.161H669.478C672.402 148.161 672.524 147.917 672.524 139.631C672.524 134.879 673.011 131.102 673.499 131.102C674.108 131.102 677.154 134.879 680.443 139.631L686.291 148.161H692.505C698.718 148.161 698.84 148.039 701.155 142.921C703.47 138.169 703.957 137.804 708.952 137.438C717.359 136.829 719.43 137.804 721.623 143.287C723.085 147.186 724.06 148.161 726.618 148.161C728.324 148.161 729.786 147.917 729.786 147.795C729.786 146.698 712.364 109.657 711.389 108.682C710.78 107.951 709.318 110.023 707.856 113.556C703.957 122.451 700.424 130.493 696.282 139.388L692.505 147.308L686.169 138.657C682.636 133.783 680.443 129.884 681.052 129.884C681.783 129.884 683.733 128.543 685.317 126.837C689.094 123.182 689.459 115.628 686.048 111.485C684.098 109.17 682.393 108.56 675.083 108.195L666.432 107.708V127.934ZM681.052 115.262C682.393 116.602 683.489 118.43 683.489 119.405C683.489 122.329 679.956 125.01 676.057 125.01C672.646 125.01 672.524 124.766 672.524 119.77C672.524 116.846 672.89 114.044 673.377 113.678C674.961 112.094 678.616 112.825 681.052 115.262ZM713.826 124.644C714.8 127.203 715.775 130.005 716.019 130.737C716.506 131.833 715.044 132.321 711.145 132.321H705.541L708.1 126.228C709.44 122.817 711.024 120.136 711.389 120.136C711.876 120.136 712.973 122.207 713.826 124.644Z" fill="white"/>
<path d="M734.659 128.056V148.161H744.406C754.031 148.161 754.153 148.161 754.153 145.114C754.153 142.19 753.787 142.068 746.843 142.068H739.533V125.01C739.533 108.804 739.411 107.951 737.096 107.951C734.781 107.951 734.659 108.804 734.659 128.056Z" fill="white"/>
<path d="M64.0847 182.644C62.1354 186.786 58.4804 194.828 55.8 200.555C53.1197 206.282 49.7083 213.593 48.1245 217.004C45.4441 222.975 43.2511 227.605 32.8952 249.903C30.093 255.874 26.438 263.915 24.7323 267.571C23.0266 271.226 19.859 278.05 17.6659 282.802C15.4729 287.432 11.9397 295.108 9.74673 299.86C7.55371 304.49 4.50786 311.192 2.92402 314.604C1.34017 318.015 0 321.183 0 321.549C0 322.036 5.11703 322.402 11.3306 322.402H22.5393L28.631 308.633C31.9205 301.201 35.8192 292.793 37.2812 290.112L39.8397 285.239L67.8616 284.873L95.8834 284.629L97.4672 287.919C98.9293 291.087 105.874 306.927 110.503 317.772L112.453 322.402H123.905C130.119 322.402 135.236 322.036 135.236 321.671C135.236 321.305 133.53 317.284 131.459 312.776C122.687 294.255 114.159 275.856 102.95 251.122C101.122 247.101 97.3454 239.181 94.7869 233.454C92.1066 227.727 88.6952 220.294 87.1114 217.004C83.7 209.572 75.9026 192.879 71.1511 182.644L67.6179 175.089L64.0847 182.644ZM71.6384 227.605C73.7096 233.21 78.0956 243.689 81.507 251C84.9183 258.189 87.7205 264.647 87.7205 265.256C87.7205 265.865 78.583 266.352 67.4961 266.352C56.4092 266.352 47.5153 265.987 47.759 265.378C51.9013 257.336 61.648 234.672 64.6939 225.777C66.2777 221.269 67.7397 217.614 67.7397 217.614C67.8616 217.614 69.6891 222.122 71.6384 227.605Z" fill="white"/>
<path d="M300.686 177.404C288.99 179.475 277.538 188.248 272.055 199.215C269.01 205.185 269.01 225.046 271.934 230.529C277.294 240.277 286.066 247.344 305.803 257.214C322.617 265.743 329.439 271.104 332.12 278.049C333.947 282.923 334.069 284.385 332.729 289.381C330.048 299.738 322.129 305.343 310.311 305.343C298.493 305.343 289.478 300.469 284.97 291.818C282.29 286.335 281.68 286.335 271.324 291.574C264.867 294.742 264.745 295.108 269.375 304.978C279.853 327.154 320.058 333.368 341.379 315.944C350.638 308.267 354.903 299.494 355.512 286.091C356.608 263.306 350.76 255.995 318.962 239.79C296.666 228.58 290.209 220.416 293.62 207.988C296.544 196.9 312.992 192.026 324.688 198.727C327.612 200.433 330.901 203.236 331.876 204.82C332.972 206.525 334.435 207.866 335.044 207.866C335.653 207.866 339.673 205.916 344.059 203.601C351.369 199.458 351.857 199.093 350.517 196.534C346.618 189.223 342.963 185.811 334.678 181.669C327.49 178.257 324.2 177.282 316.159 176.917C310.799 176.551 303.854 176.795 300.686 177.404Z" fill="white"/>
<path d="M624.399 177.404C615.871 178.744 601.007 184.715 594.794 189.223C569.33 207.744 558.487 232.723 562.873 263.184C566.894 291.696 589.433 316.066 618.673 323.498C658.269 333.733 700.546 309.242 710.292 270.373C721.989 223.95 689.215 179.232 641.822 176.917C635.608 176.551 627.811 176.795 624.399 177.404ZM654.493 199.946C662.777 202.626 673.377 210.546 679.225 218.588C691.53 235.403 693.114 259.041 683.124 278.049C678.859 286.213 668.869 295.474 659.366 300.104C650.472 304.612 649.619 304.734 637.192 304.734C625.009 304.734 623.912 304.49 615.993 300.591C605.759 295.595 599.18 289.869 593.21 280.73C579.077 258.798 583.585 226.752 603.444 209.693C609.901 204.089 614.044 201.895 623.181 199.093C632.075 196.412 644.502 196.778 654.493 199.946Z" fill="white"/>
<path d="M141.328 251.122V322.402H177.878H214.428V312.654V302.906L189.208 302.663L163.867 302.297L163.501 241.008L163.258 179.841H152.293H141.328V251.122Z" fill="white"/>
<path d="M225.393 251.122V322.402H236.967H248.541V251.122V179.841H236.967H225.393V251.122Z" fill="white"/>
<path d="M358.192 188.98V197.996L376.833 198.362L395.352 198.727L395.717 260.626L395.961 322.402H406.926H417.891V260.991C417.891 206.16 418.135 199.459 419.84 198.849C420.937 198.484 429.343 198.118 438.724 198.118H455.659V188.98V179.841H406.926H358.192V188.98Z" fill="white"/>
<path d="M465.406 251V322.402H475.762H486.118V290.844C486.118 270.008 486.605 258.92 487.458 258.432C488.92 257.458 490.26 258.92 501.956 274.76C521.45 301.201 527.785 309.73 529.613 311.923C530.709 313.263 532.537 316.066 533.877 318.381L536.314 322.402H548.984H561.533L558.853 318.503C557.391 316.31 550.446 306.927 543.38 297.545C536.314 288.285 529.735 279.512 528.76 278.05C527.785 276.709 524.13 271.835 520.597 267.327C517.064 262.819 514.14 258.676 514.14 258.067C514.14 257.458 517.795 255.995 522.181 254.777C528.638 253.071 531.318 251.487 535.948 246.857C543.014 239.79 545.207 233.21 545.207 219.441C545.207 205.429 543.014 198.849 535.583 191.295C526.445 181.913 521.815 180.816 490.748 180.085L465.406 179.598V251ZM509.876 200.677C516.211 202.383 519.622 205.673 522.181 212.374C524.617 218.71 523.886 226.996 520.231 232.845C517.064 237.962 507.073 241.13 495.865 240.521L487.945 240.155L487.58 219.685L487.336 199.337H496.108C500.982 199.337 507.195 199.946 509.876 200.677Z" fill="white"/>
<path d="M731.004 251.122V322.402H768.164H805.323V312.654V302.906L779.494 302.663L753.544 302.297L753.178 241.008L752.935 179.841H741.969H731.004V251.122Z" fill="white"/>
<path d="M807.5 182C809.693 182.975 810.197 184.35 810.197 188.98C810.197 192.026 810.806 194.463 811.415 194.463C812.146 194.463 812.633 191.782 812.633 188.492C812.633 183.74 813.5 181.5 815.5 181.5C817 181 814.411 181 811 181C806.248 180.878 804.735 181.025 807.5 182Z" fill="white"/>
<path d="M820.386 189.832C819.981 196.328 822.5 195 822.014 189.832C822.623 183.984 824.329 183.131 826.157 188.005C826.766 189.954 827.619 192.269 827.984 193.244C828.471 194.462 829.568 193.244 831.274 189.589L833.832 184.106L834.319 189.223C834.929 196.778 837 195.681 837 187.761C837 179.719 834.441 178.622 831.639 185.324C830.664 187.639 829.568 189.589 829.202 189.589C828.837 189.589 827.74 187.639 826.766 185.324C825.791 183.009 824.085 181.059 823.111 181.059C821.527 181.059 820.143 184.227 820.386 189.832Z" fill="white"/>
</svg>
