<svg width="71" height="70" viewBox="0 0 71 70" fill="none" xmlns="http://www.w3.org/2000/svg">
<g clip-path="url(#clip0_1_424)">
<path d="M70.3334 12.5642H0.333374V57.436H70.3334V12.5642Z" fill="#16366F"/>
<path d="M40.6291 35.0001C40.6291 43.8975 33.4164 51.1091 24.5193 51.1091C15.6221 51.1091 8.41028 43.8972 8.41028 35.0001C8.41028 26.1035 15.6223 18.8911 24.5193 18.8911C33.4162 18.8911 40.6291 26.1038 40.6291 35.0001Z" fill="#D9222A"/>
<path d="M46.1466 18.8906C41.9843 18.8906 38.1914 20.4698 35.3325 23.0607C34.75 23.5892 34.2064 24.1588 33.7059 24.7654H36.9605C37.4062 25.3072 37.8163 25.8772 38.1887 26.4717H32.4778C32.1344 27.021 31.8245 27.5907 31.5498 28.1776H39.1162C39.3759 28.7326 39.6036 29.302 39.7983 29.883H30.8677C30.6801 30.4426 30.5238 31.0121 30.3995 31.589H40.2659C40.5073 32.7099 40.6289 33.8533 40.6286 35C40.6286 36.7889 40.3366 38.5101 39.7981 40.1171H30.8675C31.0618 40.6986 31.2893 41.2681 31.5492 41.8232H39.1161C38.8411 42.4101 38.5309 42.9799 38.1875 43.5295H32.4775C32.8503 44.1244 33.261 44.6942 33.7057 45.2342H36.9596C36.4597 45.842 35.9159 46.4122 35.3326 46.9404C38.1918 49.5311 41.9842 51.1094 46.1467 51.1094C55.0437 51.1093 62.2565 43.8974 62.2565 35.0004C62.2565 26.1041 55.0438 18.8914 46.1467 18.8914" fill="#EE9F2D"/>
<path d="M60.1098 43.9797C60.1098 43.6925 60.3424 43.4591 60.6299 43.4591C60.9174 43.4591 61.1501 43.6925 61.1501 43.9797C61.1501 44.2668 60.9174 44.5002 60.6299 44.5002C60.3425 44.5001 60.1097 44.267 60.1098 43.9797ZM60.6299 44.3753C60.8484 44.3752 61.0254 44.1981 61.0255 43.9797C61.0255 43.7614 60.8485 43.5845 60.6303 43.5845H60.6299C60.4119 43.5841 60.235 43.7607 60.2347 43.9787V43.9798C60.2344 44.1981 60.4112 44.3752 60.6295 44.3754C60.6295 44.3753 60.6297 44.3753 60.6299 44.3753ZM60.5596 44.2084H60.453V43.7512H60.6459C60.6863 43.7512 60.7274 43.7512 60.763 43.774C60.8001 43.799 60.821 43.8431 60.821 43.8887C60.821 43.9399 60.7907 43.9878 60.7417 44.0065L60.8258 44.2084H60.7078L60.6378 44.0275H60.5597L60.5596 44.2084ZM60.5596 43.949H60.6187C60.6408 43.949 60.6639 43.9508 60.6838 43.9401C60.7013 43.9288 60.7103 43.9078 60.7103 43.8876C60.7103 43.8701 60.6995 43.85 60.6845 43.8413C60.6659 43.8296 60.6364 43.8323 60.6164 43.8323H60.5596V43.949ZM20.7584 36.7639C20.5748 36.7426 20.4941 36.7369 20.368 36.7369C19.3767 36.7369 18.8749 37.0769 18.8749 37.7481C18.8749 38.1619 19.1199 38.4253 19.5019 38.4253C20.2143 38.4253 20.7277 37.7469 20.7584 36.7639ZM22.0301 39.7251H20.5811L20.6144 39.0362C20.1724 39.5807 19.5827 39.8394 18.7814 39.8394C17.8335 39.8394 17.1836 39.099 17.1836 38.024C17.1836 36.4064 18.314 35.4627 20.2544 35.4627C20.4525 35.4627 20.7067 35.4806 20.967 35.5138C21.0213 35.2947 21.0355 35.2009 21.0355 35.083C21.0355 34.6425 20.7307 34.4783 19.9137 34.4783C19.0582 34.4686 18.3525 34.6821 18.0627 34.7775C18.081 34.6671 18.305 33.2826 18.305 33.2826C19.1766 33.0271 19.7514 32.931 20.3983 32.931C21.9 32.931 22.6954 33.6052 22.6939 34.8795C22.6968 35.221 22.6404 35.6424 22.5521 36.1962C22.4003 37.1592 22.0747 39.2221 22.0301 39.7251ZM16.4518 39.7251H14.7029L15.7047 33.4433L13.4678 39.7251H12.2761L12.1289 33.4792L11.0758 39.7251H9.43872L10.8062 31.5536H13.3208L13.4734 36.1274L15.0073 31.5536H17.8043L16.4518 39.7251ZM48.309 36.7639C48.1262 36.7426 48.045 36.7369 47.9193 36.7369C46.9285 36.7369 46.4265 37.0769 46.4265 37.7481C46.4265 38.1619 46.6712 38.4253 47.0532 38.4253C47.7657 38.4253 48.2795 37.7469 48.309 36.7639ZM49.5818 39.7251H48.1329L48.1657 39.0362C47.7237 39.5807 47.1336 39.8394 46.3331 39.8394C45.3849 39.8394 44.7357 39.099 44.7357 38.024C44.7357 36.4064 45.8653 35.4627 47.806 35.4627C48.0042 35.4627 48.258 35.4806 48.518 35.5138C48.5722 35.2947 48.5865 35.2009 48.5865 35.083C48.5865 34.6425 48.2821 34.4783 47.4651 34.4783C46.6095 34.4686 45.9046 34.6821 45.6136 34.7775C45.632 34.6671 45.8568 33.2826 45.8568 33.2826C46.7284 33.0271 47.3028 32.931 47.9489 32.931C49.4513 32.931 50.2467 33.6052 50.2452 34.8795C50.2481 35.221 50.1916 35.6424 50.1034 36.1962C49.9525 37.1592 49.626 39.2221 49.5818 39.7251ZM29.8032 39.6241C29.3246 39.7749 28.9514 39.8394 28.5468 39.8394C27.6527 39.8394 27.1648 39.3256 27.1648 38.3795C27.152 38.0861 27.2934 37.3135 27.4044 36.6083C27.5054 35.9875 28.1627 32.0735 28.1627 32.0735H29.9012L29.6982 33.0795H30.7482L30.511 34.6765H29.4572C29.2553 35.9404 28.9677 37.5147 28.9644 37.7233C28.9644 38.0659 29.1472 38.2154 29.563 38.2154C29.7623 38.2154 29.9167 38.1951 30.0346 38.1526L29.8032 39.6241ZM35.1332 39.5703C34.5361 39.7527 33.9598 39.841 33.3492 39.8395C31.4033 39.8376 30.3888 38.8213 30.3888 36.8751C30.3888 34.6034 31.6793 32.9311 33.4311 32.9311C34.8643 32.9311 35.7797 33.8674 35.7797 35.3359C35.7797 35.8231 35.7169 36.2988 35.5655 36.9703H32.1036C31.9866 37.9343 32.6035 38.3359 33.6147 38.3359C34.237 38.3359 34.7982 38.2076 35.4223 37.9175L35.1332 39.5703ZM34.1562 35.6305C34.1658 35.492 34.3405 34.4444 33.3473 34.4444C32.7935 34.4444 32.3976 34.8665 32.2363 35.6305H34.1562ZM23.08 35.1803C23.08 36.0209 23.4875 36.6005 24.4119 37.0358C25.1202 37.3687 25.2297 37.4674 25.2297 37.769C25.2297 38.1834 24.9174 38.3703 24.2253 38.3703C23.7037 38.3703 23.2184 38.2889 22.6586 38.1083C22.6586 38.1083 22.4286 39.5729 22.4181 39.643C22.8156 39.7296 23.1701 39.81 24.2381 39.8395C26.0834 39.8395 26.9356 39.1369 26.9356 37.6183C26.9356 36.7052 26.5788 36.1693 25.7028 35.7667C24.9695 35.4301 24.8853 35.3549 24.8853 35.0446C24.8853 34.6853 25.1759 34.502 25.7413 34.502C26.0845 34.502 26.5535 34.5386 26.9977 34.6019L27.2467 33.0605C26.7939 32.9887 26.1073 32.9311 25.7076 32.9311C23.7512 32.9311 23.074 33.953 23.08 35.1803ZM43.6394 33.1058C44.1252 33.1058 44.578 33.2332 45.2021 33.5473L45.4881 31.7738C45.232 31.6733 44.33 31.0828 43.5661 31.0828C42.3957 31.0828 41.4064 31.6634 40.7105 32.6219C39.6955 32.2857 39.2783 32.9651 38.7668 33.642L38.3125 33.7478C38.3468 33.525 38.378 33.3036 38.3675 33.0796H36.7614C36.542 35.1362 36.1531 37.2194 35.8486 39.2786L35.7693 39.7252H37.519C37.811 37.8277 37.9711 36.6128 38.0683 35.7906L38.7272 35.4241C38.8255 35.058 39.1336 34.9343 39.7517 34.9492C39.6686 35.3986 39.627 35.8547 39.6276 36.3119C39.6276 38.4859 40.8006 39.8395 42.6833 39.8395C43.1683 39.8395 43.5845 39.7756 44.2288 39.601L44.5367 37.738C43.957 38.0234 43.4813 38.1576 43.0505 38.1576C42.0339 38.1576 41.4187 37.4072 41.4187 36.1667C41.4186 34.3674 42.3336 33.1058 43.6394 33.1058Z" fill="black"/>
<path d="M16.9548 39.2395H15.2056L16.208 32.9586L13.9711 39.2395H12.7792L12.6318 32.9945L11.5788 39.2395H9.94165L11.3092 31.0691H13.8238L13.8945 36.1272L15.591 31.0691H18.3073L16.9548 39.2395Z" fill="white"/>
<path d="M58.4441 31.554L58.0565 33.9149C57.5782 33.2856 57.0645 32.8302 56.3862 32.8302C55.5037 32.8302 54.7005 33.4991 54.1747 34.4837C53.4426 34.3319 52.6853 34.0742 52.6853 34.0742L52.6849 34.0802C52.744 33.5298 52.7675 33.194 52.7623 33.08H51.1559C50.9371 35.1366 50.5483 37.2198 50.2443 39.279L50.1642 39.7256H51.9135C52.1498 38.1912 52.3308 36.9172 52.4639 35.9069C53.0615 35.3669 53.3606 34.8957 53.9645 34.9271C53.6971 35.5738 53.5404 36.3185 53.5404 37.0825C53.5404 38.7439 54.3811 39.8399 55.6525 39.8399C56.2933 39.8399 56.785 39.6189 57.2648 39.1067L57.1829 39.7245H58.8372L60.1692 31.554H58.4441ZM56.2571 38.1898C55.6617 38.1898 55.3611 37.7492 55.3611 36.8798C55.3611 35.5738 55.9239 34.6474 56.7174 34.6474C57.3182 34.6474 57.6435 35.1055 57.6435 35.9494C57.6436 37.2669 57.0719 38.1898 56.2571 38.1898Z" fill="black"/>
<path d="M21.2607 36.2797C21.0774 36.2585 20.9963 36.2528 20.8707 36.2528C19.8793 36.2528 19.3779 36.5927 19.3779 37.2639C19.3779 37.6771 19.6229 37.9412 20.0043 37.9412C20.7173 37.9411 21.2307 37.2628 21.2607 36.2797ZM22.5332 39.2398H21.0842L21.1171 38.5521C20.6755 39.0954 20.085 39.3553 19.2844 39.3553C18.3361 39.3553 17.6866 38.6149 17.6866 37.5399C17.6866 35.9216 18.8166 34.9784 20.7573 34.9784C20.9556 34.9784 21.2098 34.9964 21.4697 35.0297C21.5239 34.8105 21.5381 34.7167 21.5381 34.5982C21.5381 34.1577 21.2338 33.9942 20.4166 33.9942C19.5608 33.9845 18.8556 34.1981 18.5653 34.2923C18.5836 34.1823 18.8076 32.7992 18.8076 32.7992C19.679 32.5427 20.2544 32.4465 20.9005 32.4465C22.4027 32.4465 23.1983 33.1212 23.1969 34.3944C23.1995 34.7372 23.1426 35.1583 23.0547 35.7113C22.9034 36.6738 22.5773 38.738 22.5332 39.2398ZM45.9903 31.2892L45.7039 33.0632C45.0802 32.7495 44.627 32.6216 44.1417 32.6216C42.8358 32.6216 41.9206 33.8832 41.9206 35.6825C41.9206 36.9228 42.5359 37.6731 43.5524 37.6731C43.9831 37.6731 44.4584 37.5392 45.038 37.2533L44.7311 39.1155C44.0863 39.2913 43.6706 39.3553 43.1851 39.3553C41.3027 39.3553 40.1294 38.0016 40.1294 35.8276C40.1294 32.9064 41.75 30.8647 44.068 30.8647C44.8315 30.8648 45.7338 31.1886 45.9903 31.2892ZM48.8121 36.2797C48.6289 36.2585 48.5481 36.2528 48.422 36.2528C47.4311 36.2528 46.9292 36.5927 46.9292 37.2639C46.9292 37.6771 47.1741 37.9412 47.556 37.9412C48.2683 37.9411 48.7821 37.2628 48.8121 36.2797ZM50.0845 39.2398H48.6352L48.6684 38.5521C48.2265 39.0954 47.6363 39.3553 46.8358 39.3553C45.8878 39.3553 45.238 38.6149 45.238 37.5399C45.238 35.9216 46.3683 34.9784 48.3083 34.9784C48.5069 34.9784 48.7608 34.9964 49.021 35.0297C49.0749 34.8105 49.0895 34.7167 49.0895 34.5982C49.0895 34.1577 48.785 33.9942 47.968 33.9942C47.1125 33.9845 46.4068 34.1981 46.1167 34.2923C46.135 34.1823 46.3594 32.7992 46.3594 32.7992C47.2307 32.5427 47.8057 32.4465 48.4518 32.4465C49.9543 32.4465 50.7496 33.1212 50.7477 34.3944C50.7508 34.7372 50.6943 35.1583 50.606 35.7113C50.4551 36.6738 50.1282 38.738 50.0845 39.2398ZM30.3059 39.1391C29.8269 39.2899 29.4537 39.3553 29.0495 39.3553C28.1554 39.3553 27.6675 38.8414 27.6675 37.8955C27.6551 37.6011 27.7964 36.8293 27.9075 36.1242C28.0081 35.5026 28.6655 31.5892 28.6655 31.5892H30.4036L30.2008 32.5954H31.0931L30.8556 34.1917H29.9604C29.7585 35.4563 29.4702 37.0293 29.4672 37.2384C29.4672 37.5821 29.6505 37.7305 30.0659 37.7305C30.2651 37.7305 30.4193 37.711 30.5374 37.6684L30.3059 39.1391ZM35.636 39.0861C35.0392 39.2685 34.4621 39.3565 33.8519 39.3553C31.9059 39.3534 30.8915 38.3371 30.8915 36.3908C30.8915 34.1184 32.182 32.4466 33.9338 32.4466C35.367 32.4466 36.2824 33.3825 36.2824 34.8517C36.2824 35.3393 36.2196 35.8149 36.0686 36.4861H32.6068C32.4896 37.45 33.1066 37.8521 34.1178 37.8521C34.7397 37.8521 35.3013 37.7234 35.925 37.4325L35.636 39.0861ZM34.6585 35.1452C34.669 35.0072 34.8433 33.9591 33.8496 33.9591C33.2963 33.9591 32.9002 34.3824 32.7391 35.1452H34.6585ZM23.5824 34.6962C23.5824 35.5366 23.99 36.1156 24.9143 36.5516C25.6225 36.8844 25.7321 36.9835 25.7321 37.2848C25.7321 37.6992 25.4195 37.8861 24.7281 37.8861C24.2061 37.8861 23.7207 37.8046 23.1606 37.6241C23.1606 37.6241 22.9314 39.0887 22.9209 39.1587C23.3176 39.2455 23.6725 39.3247 24.7404 39.3553C26.5862 39.3553 27.438 38.6527 27.438 37.1345C27.438 36.2209 27.0816 35.6851 26.2051 35.2825C25.4722 34.9452 25.3874 34.8712 25.3874 34.5604C25.3874 34.2014 25.6786 34.0167 26.2436 34.0167C26.5865 34.0167 27.0554 34.0544 27.5004 34.1177L27.7491 32.5759C27.2967 32.5041 26.6101 32.4466 26.2103 32.4466C24.2535 32.4466 23.5768 33.4678 23.5824 34.6962ZM59.3407 39.2398H57.6861L57.7684 38.6212C57.2885 39.1343 56.7969 39.3553 56.156 39.3553C54.8845 39.3553 54.0443 38.2593 54.0443 36.5979C54.0443 34.3875 55.3475 32.5242 56.89 32.5242C57.5683 32.5242 58.0818 32.8013 58.5596 33.4302L58.9477 31.0693H60.6727L59.3407 39.2398ZM56.761 37.7044C57.5754 37.7044 58.1475 36.7815 58.1475 35.465C58.1475 34.621 57.8218 34.1629 57.2209 34.1629C56.4278 34.1629 55.8644 35.0888 55.8644 36.3953C55.8643 37.2645 56.1656 37.7044 56.761 37.7044ZM51.6597 32.5954C51.4408 34.652 51.0519 36.7352 50.7477 38.7933L50.6678 39.2398H52.417C53.0426 35.1767 53.194 34.3831 54.1749 34.4826C54.3312 33.651 54.622 32.9226 54.8389 32.555C54.1063 32.4024 53.6973 32.8164 53.1618 33.6027C53.204 33.2629 53.2815 32.9327 53.2661 32.5954H51.6597ZM37.263 32.5954C37.0435 34.652 36.6546 36.7352 36.3506 38.7933L36.271 39.2398H38.021C38.6458 35.1767 38.7969 34.3831 39.7772 34.4826C39.9343 33.651 40.2252 32.9226 40.4413 32.555C39.7095 32.4024 39.3001 32.8164 38.7651 33.6027C38.8073 33.2629 38.884 32.9327 38.8694 32.5954H37.263ZM60.1091 38.7196C60.1091 38.4312 60.342 38.1991 60.6292 38.1991C60.9161 38.1989 61.149 38.4313 61.1493 38.7183V38.7196C61.1492 39.0068 60.9164 39.2396 60.6292 39.2398C60.342 39.2396 60.1093 39.0068 60.1091 38.7196ZM60.6292 39.1149C60.8475 39.115 61.0244 38.9381 61.0244 38.7199V38.7197C61.0246 38.5014 60.8478 38.3243 60.6296 38.3241H60.6292C60.4107 38.3242 60.2336 38.5013 60.2335 38.7197C60.2338 38.938 60.4109 39.1149 60.6292 39.1149ZM60.5589 38.9471H60.4523V38.4908H60.6456C60.6856 38.4908 60.727 38.4915 60.7619 38.5136C60.7992 38.539 60.8206 38.5824 60.8206 38.6279C60.8206 38.6795 60.7902 38.7278 60.7409 38.7461L60.8253 38.9468H60.7069L60.6369 38.7666H60.5589V38.9468V38.9471ZM60.5589 38.6886H60.6176C60.6395 38.6886 60.6636 38.6902 60.683 38.6796C60.7005 38.6684 60.7095 38.6472 60.7095 38.6269C60.7086 38.6081 60.6991 38.5907 60.6837 38.5799C60.6654 38.5694 60.6351 38.5723 60.6152 38.5723H60.5588L60.5589 38.6886Z" fill="white"/>
</g>
<defs>
<clipPath id="clip0_1_424">
<rect width="70" height="70" fill="white" transform="translate(0.333374)"/>
</clipPath>
</defs>
</svg>
