<svg width="52" height="52" viewBox="0 0 52 52" fill="none" xmlns="http://www.w3.org/2000/svg">
<rect width="52" height="52" rx="26" fill="#FDF8F8"/>
<path fill-rule="evenodd" clip-rule="evenodd" d="M25.0625 14.75C24.027 14.75 23.1875 15.5895 23.1875 16.625C23.1875 17.6605 24.027 18.5 25.0625 18.5C26.098 18.5 26.9375 17.6605 26.9375 16.625C26.9375 15.5895 26.098 14.75 25.0625 14.75ZM21.3125 16.625C21.3125 14.5539 22.9914 12.875 25.0625 12.875C27.1336 12.875 28.8125 14.5539 28.8125 16.625C28.8125 18.6961 27.1336 20.375 25.0625 20.375C22.9914 20.375 21.3125 18.6961 21.3125 16.625Z" fill="#B21120"/>
<path fill-rule="evenodd" clip-rule="evenodd" d="M15.6875 23.1875C14.652 23.1875 13.8125 24.027 13.8125 25.0625C13.8125 26.098 14.652 26.9375 15.6875 26.9375C16.723 26.9375 17.5625 26.098 17.5625 25.0625C17.5625 24.027 16.723 23.1875 15.6875 23.1875ZM11.9375 25.0625C11.9375 22.9914 13.6164 21.3125 15.6875 21.3125C17.7586 21.3125 19.4375 22.9914 19.4375 25.0625C19.4375 27.1336 17.7586 28.8125 15.6875 28.8125C13.6164 28.8125 11.9375 27.1336 11.9375 25.0625Z" fill="#B21120"/>
<path fill-rule="evenodd" clip-rule="evenodd" d="M29.75 33.5C28.7145 33.5 27.875 34.3395 27.875 35.375C27.875 36.4105 28.7145 37.25 29.75 37.25C30.7855 37.25 31.625 36.4105 31.625 35.375C31.625 34.3395 30.7855 33.5 29.75 33.5ZM26 35.375C26 33.3039 27.6789 31.625 29.75 31.625C31.8211 31.625 33.5 33.3039 33.5 35.375C33.5 37.4461 31.8211 39.125 29.75 39.125C27.6789 39.125 26 37.4461 26 35.375Z" fill="#B21120"/>
<path fill-rule="evenodd" clip-rule="evenodd" d="M35.375 17.5625C34.3395 17.5625 33.5 18.402 33.5 19.4375C33.5 20.473 34.3395 21.3125 35.375 21.3125C36.4105 21.3125 37.25 20.473 37.25 19.4375C37.25 18.402 36.4105 17.5625 35.375 17.5625ZM31.625 19.4375C31.625 17.3664 33.3039 15.6875 35.375 15.6875C37.4461 15.6875 39.125 17.3664 39.125 19.4375C39.125 21.5086 37.4461 23.1875 35.375 23.1875C33.3039 23.1875 31.625 21.5086 31.625 19.4375Z" fill="#B21120"/>
<path fill-rule="evenodd" clip-rule="evenodd" d="M26.8771 17.1155C27.0139 16.6161 27.5297 16.3223 28.029 16.4591L32.904 17.795C33.4034 17.9319 33.6973 18.4476 33.5604 18.947C33.4236 19.4463 32.9078 19.7402 32.4085 19.6034L27.5335 18.2674C27.0341 18.1306 26.7402 17.6149 26.8771 17.1155Z" fill="#B21120"/>
<path fill-rule="evenodd" clip-rule="evenodd" d="M23.6747 17.886C24.0203 18.2715 23.9879 18.8642 23.6023 19.2098L18.3992 23.8739C18.0137 24.2195 17.421 24.1871 17.0754 23.8016C16.7298 23.416 16.7621 22.8233 17.1477 22.4777L22.3508 17.8136C22.7364 17.468 23.3291 17.5004 23.6747 17.886Z" fill="#B21120"/>
<path fill-rule="evenodd" clip-rule="evenodd" d="M17.2051 26.1719C17.5115 25.7545 18.0982 25.6645 18.5156 25.9709L28.0312 32.9552C28.4486 33.2616 28.5386 33.8483 28.2323 34.2657C27.9259 34.6831 27.3392 34.7731 26.9218 34.4668L17.4062 27.4824C16.9888 27.176 16.8987 26.5893 17.2051 26.1719Z" fill="#B21120"/>
<path fill-rule="evenodd" clip-rule="evenodd" d="M34.7491 21.2018C35.2375 21.3738 35.4938 21.9092 35.3217 22.3976L31.5717 33.0382C31.3996 33.5265 30.8642 33.7829 30.3759 33.6108C29.8876 33.4387 29.6312 32.9033 29.8033 32.415L33.5533 21.7743C33.7254 21.286 34.2608 21.0297 34.7491 21.2018Z" fill="#B21120"/>
</svg>
