<svg width="223" height="31" viewBox="0 0 223 31" fill="none" xmlns="http://www.w3.org/2000/svg">
<g clip-path="url(#clip0_1_153)">
<path d="M17.4743 3.97998C17.4743 1.57998 15.1943 0.97998 13.3943 0.97998V1.33998C14.4743 1.33998 15.3143 1.69998 15.3143 2.53998C15.3143 3.01998 14.9543 3.73998 13.8743 3.73998C13.0343 3.73998 11.2343 3.25998 9.91431 2.77998C8.35431 2.17998 6.91431 1.69998 5.71431 1.69998C3.31431 1.69998 1.63431 3.49998 1.63431 5.53998C1.63431 7.33998 2.95431 7.93998 3.43431 8.17998L3.55431 7.93998C3.31431 7.69998 2.95431 7.45998 2.95431 6.73998C2.95431 6.25998 3.43431 5.41998 4.63431 5.41998C5.71431 5.41998 7.15431 5.89998 9.07431 6.49998C10.7543 6.97998 12.5543 7.33998 13.5143 7.45998V11.18L11.7143 12.74V12.86L13.5143 14.42V19.58C12.5543 20.18 11.4743 20.3 10.5143 20.3C8.71431 20.3 7.15431 19.82 5.83431 18.38L10.7543 15.98V7.69998L4.75431 10.34C5.23431 8.77998 6.55431 7.69998 7.87431 6.97998L7.75431 6.61998C4.15431 7.57998 0.914307 10.94 0.914307 15.02C0.914307 19.82 4.87431 23.42 9.31431 23.42C14.1143 23.42 17.2343 19.58 17.2343 15.62H16.9943C16.2743 17.18 15.1943 18.62 13.8743 19.34V14.42L15.7943 12.86V12.74L13.8743 11.18V7.45998C15.6743 7.45998 17.4743 6.25998 17.4743 3.97998ZM7.03431 17.18L5.59431 17.9C4.75431 16.82 4.27431 15.38 4.27431 13.34C4.27431 12.5 4.27431 11.54 4.51431 10.82L7.03431 9.73998V17.18ZM19.7543 19.94L18.1943 21.14L18.4343 21.38L19.1543 20.78L21.7943 23.18L25.3943 20.78L25.2743 20.54L24.3143 21.14L23.1143 19.94V11.78L24.0743 11.06L26.1143 12.74V20.06C26.1143 24.62 25.1543 25.34 23.1143 26.06V26.42C26.4743 26.54 29.5943 25.46 29.5943 19.58V11.66L30.6743 10.82L30.4343 10.58L29.4743 11.3L26.4743 8.77998L23.1143 11.3V1.45998H22.8743L18.6743 4.33998V4.57998C19.1543 4.81998 19.8743 5.05998 19.8743 6.37998L19.7543 19.94ZM41.7143 18.62L38.7143 20.9L35.7143 18.5V17.06L41.3543 13.22V13.1L38.4743 8.77998L32.2343 12.14V20.06L31.0343 21.02L31.2743 21.26L32.3543 20.42L36.4343 23.42L41.8343 19.1L41.7143 18.62ZM35.7143 16.58V10.7L35.9543 10.58L38.5943 14.78L35.7143 16.58ZM64.6343 2.89998C64.6343 2.53998 64.5143 2.17998 64.3943 1.81998H64.1543C63.7943 2.77998 63.3143 3.25998 62.1143 3.25998C61.0343 3.25998 60.3143 2.65998 59.8343 2.17998L56.3543 6.13998L56.5943 6.37998L57.7943 5.29998C58.5143 5.89998 59.1143 6.37998 60.7943 6.49998V16.46L53.7143 4.33998C53.1143 3.37998 52.2743 2.05998 50.5943 2.05998C48.6743 2.05998 46.9943 3.73998 47.2343 6.37998H47.5943C47.7143 5.65998 48.0743 4.81998 48.9143 4.81998C49.5143 4.81998 50.1143 5.41998 50.4743 6.01998V9.97998C48.3143 9.97998 46.8743 10.94 46.8743 12.74C46.8743 13.7 47.3543 15.14 48.7943 15.5V15.26C48.5543 15.02 48.4343 14.78 48.4343 14.42C48.4343 13.82 48.9143 13.34 49.7543 13.34H50.3543V18.38C47.8343 18.38 45.7943 19.82 45.7943 22.22C45.7943 24.5 47.7143 25.58 49.8743 25.46V25.22C48.5543 25.1 47.9543 24.5 47.9543 23.66C47.9543 22.58 48.6743 22.1 49.6343 22.1C50.5943 22.1 51.4343 22.7 52.0343 23.42L55.5143 19.58L55.2743 19.34L54.4343 20.3C53.1143 19.1 52.3943 18.74 50.8343 18.5V6.49998L60.4343 23.3H61.1543V6.49998C62.9543 6.37998 64.6343 4.93998 64.6343 2.89998ZM73.3943 18.62L70.3943 20.9L67.3943 18.5V17.06L73.0343 13.22V13.1L70.1543 8.77998L63.9143 12.14V20.06L62.7143 21.02L62.9543 21.26L64.0343 20.42L68.1143 23.42L73.5143 19.1L73.3943 18.62ZM67.3943 16.58V10.7L67.6343 10.58L70.2743 14.78L67.3943 16.58ZM92.9543 10.1L92.1143 10.7L89.8343 8.77998L87.1943 11.18L88.2743 12.26V21.26L85.3943 19.46V12.02L86.3543 11.42L83.5943 8.77998L80.9543 11.18L82.0343 12.26V20.9L81.6743 21.14L79.1543 19.34V12.14C79.1543 10.46 78.3143 9.97998 77.3543 9.37998C76.5143 8.77998 76.0343 8.41998 76.0343 7.57998C76.0343 6.85998 76.7543 6.49998 77.1143 6.25998V6.01998C76.1543 6.01998 73.6343 6.97998 73.6343 9.25998C73.6343 10.46 74.2343 10.94 74.8343 11.54C75.4343 12.14 76.0343 12.62 76.0343 13.7V20.66L74.7143 21.62L74.9543 21.86L76.1543 20.9L78.9143 23.3L81.9143 21.26L85.2743 23.3L91.6343 19.58V11.54L93.1943 10.34L92.9543 10.1ZM115.274 3.49998L114.074 4.57998L111.434 2.17998L107.474 5.05998V2.41998H107.114L107.234 21.86C106.874 21.86 105.794 21.62 104.954 21.38L104.714 5.17998C104.714 3.97998 103.874 2.29998 101.714 2.29998C99.5543 2.29998 98.1143 3.97998 98.1143 5.65998H98.4743C98.5943 4.93998 98.9543 4.33998 99.6743 4.33998C100.394 4.33998 100.994 4.81998 100.994 6.37998V11.06C98.8343 11.18 97.5143 12.38 97.5143 13.94C97.5143 14.9 97.9943 16.34 99.4343 16.34V16.1C98.9543 15.86 98.8343 15.5 98.8343 15.26C98.8343 14.54 99.4343 14.3 100.394 14.3H100.874V21.74C99.0743 22.34 98.3543 23.66 98.3543 25.1C98.3543 27.14 99.9143 28.58 102.314 28.58C103.994 28.58 105.434 28.34 106.874 27.98C108.074 27.74 109.634 27.38 110.354 27.38C111.314 27.38 111.674 27.86 111.674 28.46C111.674 29.3 111.314 29.66 110.834 29.78V30.02C112.754 29.66 113.954 28.46 113.954 26.66C113.954 24.86 112.154 23.78 110.234 23.78C109.274 23.78 107.234 24.14 105.794 24.38C104.114 24.74 102.434 24.98 101.954 24.98C101.114 24.98 100.154 24.62 100.154 23.42C100.154 22.46 100.994 21.62 103.034 21.62C104.114 21.62 105.434 21.74 106.754 22.1C108.194 22.46 109.514 22.82 110.714 22.82C112.514 22.82 114.074 22.22 114.074 19.7V4.93998L115.514 3.73998L115.274 3.49998ZM110.354 10.82C109.994 11.18 109.514 11.54 108.914 11.54C108.314 11.54 107.714 11.18 107.474 10.82V5.53998L108.674 4.69998L110.354 6.25998V10.82ZM110.354 14.42C110.114 14.18 109.514 13.82 108.914 13.82C108.314 13.82 107.714 14.18 107.474 14.42V11.3C107.714 11.54 108.314 11.9 108.914 11.9C109.514 11.9 110.114 11.54 110.354 11.3V14.42ZM110.354 20.06C110.354 21.02 109.754 21.98 108.434 21.98H107.474V14.9C107.714 14.66 108.314 14.3 108.914 14.3C109.514 14.3 109.994 14.66 110.354 14.9V20.06ZM126.794 11.54L122.954 8.77998L117.074 12.14V19.94L115.874 20.9L115.994 21.14L116.954 20.42L120.794 23.3L126.794 19.7V11.54ZM120.314 19.1V10.46L123.314 12.62V21.14L120.314 19.1ZM138.194 9.01998H137.954C137.594 9.25998 137.234 9.49998 136.874 9.49998C136.394 9.49998 135.794 9.25998 135.554 8.89998H135.314L133.274 11.18L131.234 8.89998L127.634 11.3L127.754 11.54L128.714 10.94L129.914 12.26V19.82L128.354 21.02L128.594 21.26L129.314 20.66L132.194 23.06L135.914 20.54L135.794 20.3L134.714 20.9L133.274 19.7V11.3C133.874 11.9 134.594 12.5 135.434 12.5C137.114 12.62 138.074 10.94 138.194 9.01998ZM152.594 20.54L148.514 23.3L142.994 14.9L146.954 8.77998H147.194C147.674 9.25998 148.394 9.73998 149.234 9.73998C150.074 9.73998 150.674 9.25998 151.034 8.77998H151.274C151.154 11.18 149.474 12.62 148.274 12.62C147.074 12.62 146.474 12.02 145.754 11.66L145.394 12.26L151.394 21.14L152.594 20.42V20.54ZM139.394 19.94L137.834 21.14L138.074 21.38L138.794 20.78L141.434 23.18L145.034 20.78L144.794 20.54L143.834 21.14L142.634 19.94V1.45998H142.514L138.194 4.33998V4.57998C138.674 4.81998 139.394 4.93998 139.394 6.37998V19.94ZM172.514 3.97998C172.514 1.57998 170.234 0.97998 168.434 0.97998V1.33998C169.514 1.33998 170.354 1.69998 170.354 2.53998C170.354 3.01998 169.994 3.73998 168.914 3.73998C168.074 3.73998 166.274 3.25998 164.954 2.77998C163.394 2.29998 161.954 1.81998 160.754 1.81998C158.354 1.81998 156.674 3.61998 156.674 5.65998C156.674 7.45998 157.994 8.05998 158.474 8.29998L158.594 8.05998C158.234 7.81998 157.874 7.57998 157.874 6.85998C157.874 6.37998 158.354 5.53998 159.554 5.53998C160.634 5.53998 162.074 6.01998 163.994 6.61998C165.674 7.09998 167.474 7.45998 168.434 7.57998V11.3L166.634 12.86V12.98L168.434 14.54V19.7C167.474 20.3 166.394 20.42 165.434 20.42C163.634 20.42 162.074 19.94 160.754 18.5L165.674 16.1V7.69998L159.674 10.34C160.274 8.77998 161.594 7.69998 162.794 6.85998L162.674 6.61998C159.074 7.57998 155.834 10.82 155.834 14.9C155.834 19.7 159.794 23.3 164.234 23.3C169.034 23.3 172.154 19.46 172.154 15.5H171.914C171.194 17.06 170.114 18.5 168.794 19.22V14.3L170.714 12.74V12.62L168.914 11.06V7.45998C170.714 7.45998 172.514 6.25998 172.514 3.97998ZM162.074 17.18L160.634 17.9C159.794 16.82 159.314 15.38 159.314 13.34C159.314 12.5 159.434 11.54 159.674 10.82L162.194 9.73998L162.074 17.18ZM176.714 2.77998H176.594L174.194 4.81998V4.93998L176.234 7.21998H176.474L178.874 5.17998V5.05998L176.714 2.77998ZM180.314 20.54L179.354 21.14L178.154 19.94V11.66L179.354 10.82L179.114 10.58L178.274 11.3L176.114 8.77998L172.634 11.18L172.874 11.54L173.714 10.94L174.794 12.26V20.06L173.234 21.26L173.354 21.5L174.194 20.9L176.834 23.3L180.434 20.9L180.314 20.54ZM200.354 20.42L199.514 21.02L198.194 19.82V11.66L199.394 10.7L199.154 10.46L198.194 11.3L195.434 8.77998L191.834 11.3L189.074 8.77998L185.714 11.3L183.554 8.77998L180.074 11.18L180.194 11.54L181.034 10.94L182.234 12.26V20.06L181.274 21.02L184.034 23.3L186.674 20.9L185.594 19.82V11.66L186.674 10.94L188.474 12.62V19.82L187.514 20.78L190.274 23.06L192.914 20.66L191.834 19.58V11.66L192.794 11.06L194.714 12.74V19.94L193.874 20.78L196.634 23.3L200.354 20.78V20.42ZM210.794 18.62L207.794 20.9L204.794 18.5V17.06L210.434 13.22V13.1L207.554 8.77998L201.314 12.14V20.3L205.514 23.3L210.914 18.98L210.794 18.62ZM204.794 16.58V10.7L205.034 10.58L207.674 14.78L204.794 16.58ZM221.714 15.5L219.434 13.7C220.994 12.38 221.594 10.58 221.594 9.37998V8.65998H221.354C221.114 9.25998 220.634 9.85998 219.674 9.85998C218.714 9.85998 218.114 9.37998 217.514 8.65998L212.114 11.66V15.98L214.154 17.54C212.114 19.34 211.754 20.54 211.754 21.5C211.754 22.7 212.354 23.54 213.314 23.9L213.434 23.66C213.194 23.42 212.954 23.3 212.954 22.7C212.954 22.34 213.434 21.74 214.394 21.74C215.594 21.74 216.314 22.58 216.674 22.94L221.834 19.82V15.5H221.714ZM220.394 11.9C219.554 13.34 217.754 14.78 216.674 15.5L215.354 14.42V10.22C215.834 11.42 217.154 12.38 218.474 12.38C219.314 12.38 219.794 12.26 220.394 11.9ZM218.354 21.5C217.754 20.18 216.314 19.22 214.874 19.22C214.514 19.22 213.554 19.22 212.594 19.82C213.194 18.86 214.754 17.18 216.794 15.98L218.234 17.18L218.354 21.5Z" fill="#AB3C3E"/>
</g>
<defs>
<clipPath id="clip0_1_153">
<rect width="222" height="30" fill="white" transform="translate(0.914307 0.5)"/>
</clipPath>
</defs>
</svg>
