<svg width="52" height="52" viewBox="0 0 52 52" fill="none" xmlns="http://www.w3.org/2000/svg">
<rect width="52" height="52" rx="26" fill="#FDF8F8"/>
<path fill-rule="evenodd" clip-rule="evenodd" d="M21.3125 22.25C21.626 22.25 21.9187 22.4067 22.0925 22.6675L25.0625 27.1224L26.1575 25.48C26.3313 25.2192 26.624 25.0625 26.9375 25.0625H29.75C30.2678 25.0625 30.6875 25.4822 30.6875 26C30.6875 26.5178 30.2678 26.9375 29.75 26.9375H27.4392L25.8425 29.3325C25.6687 29.5933 25.376 29.75 25.0625 29.75C24.749 29.75 24.4563 29.5933 24.2825 29.3325L21.3125 24.8776L20.2175 26.52C20.0437 26.7808 19.751 26.9375 19.4375 26.9375H14.75C14.2322 26.9375 13.8125 26.5178 13.8125 26C13.8125 25.4822 14.2322 25.0625 14.75 25.0625H18.9358L20.5325 22.6675C20.7063 22.4067 20.999 22.25 21.3125 22.25Z" fill="#B21120"/>
<path fill-rule="evenodd" clip-rule="evenodd" d="M22.7985 17.23C21.7464 16.6698 20.5326 16.4914 19.3638 16.7251C18.1949 16.9589 17.1432 17.5904 16.3875 18.5123C15.6317 19.4341 15.2188 20.5893 15.2188 21.7813C15.2188 21.9409 15.2192 22.0681 15.2277 22.1781C15.2674 22.6943 14.8811 23.145 14.3649 23.1847C13.8486 23.2245 13.3979 22.8382 13.3582 22.3219C13.3437 22.1332 13.3437 21.9386 13.3438 21.7947L13.3438 21.7813C13.3438 20.1558 13.9069 18.5806 14.9374 17.3235C15.968 16.0665 17.4022 15.2053 18.9961 14.8866C20.5899 14.5678 22.2451 14.8111 23.6798 15.5751C24.5957 16.0628 25.3858 16.7436 26 17.5625C26.6142 16.7436 27.4043 16.0628 28.3202 15.5751C29.7549 14.8111 31.4101 14.5678 33.0039 14.8866C34.5978 15.2053 36.032 16.0665 37.0626 17.3235C38.0931 18.5806 38.6563 20.1558 38.6563 21.7813C38.6563 26.1971 35.4425 30.0717 32.4865 32.732C30.9802 34.0877 29.4782 35.1838 28.3547 35.9403C27.792 36.3191 27.322 36.6143 26.9909 36.8158C26.8253 36.9166 26.6943 36.994 26.6036 37.0469C26.5582 37.0733 26.523 37.0936 26.4985 37.1076L26.4699 37.1238L26.4619 37.1283L26.4594 37.1297L26.4586 37.1302C26.4583 37.1303 26.4581 37.1305 26 36.3125C25.5411 37.13 25.5409 37.1299 25.5407 37.1298L25.5403 37.1296L25.5392 37.1289L25.5356 37.1269L25.5233 37.12L25.4791 37.0947C25.4411 37.0728 25.3861 37.0409 25.3157 36.9993C25.1748 36.9161 24.972 36.7941 24.7187 36.6358C24.2124 36.3194 23.5033 35.8571 22.6847 35.2694C21.0529 34.0979 18.9606 32.4099 17.1734 30.3674C16.8324 29.9777 16.8719 29.3854 17.2616 29.0445C17.6512 28.7035 18.2435 28.743 18.5844 29.1327C20.2426 31.0277 22.2107 32.6209 23.7782 33.7463C24.5592 34.307 25.2343 34.747 25.7125 35.0458C25.8186 35.1122 25.915 35.1715 26.0005 35.2236C26.0057 35.2205 26.0109 35.2173 26.0162 35.2141C26.3259 35.0256 26.7715 34.7459 27.3074 34.385C28.3812 33.662 29.8089 32.6194 31.2322 31.3383C34.1357 28.7252 36.7813 25.3341 36.7813 21.7813C36.7813 20.5893 36.3683 19.4341 35.6125 18.5123C34.8568 17.5904 33.8051 16.9589 32.6362 16.7251C31.4674 16.4914 30.2536 16.6698 29.2015 17.23C28.1494 17.7903 27.3238 18.6978 26.8654 19.7981C26.6662 20.276 26.1174 20.502 25.6394 20.3029C25.4011 20.2036 25.2254 20.0173 25.1339 19.7963C24.6753 18.6968 23.8501 17.79 22.7985 17.23ZM26 36.3125L25.5411 37.13C25.8258 37.2898 26.1732 37.29 26.4581 37.1305L26 36.3125Z" fill="#B21120"/>
</svg>
