<svg width="70" height="70" viewBox="0 0 70 70" fill="none" xmlns="http://www.w3.org/2000/svg">
<g clip-path="url(#clip0_1_432)">
<path d="M69.6668 12.5642H0.666748V57.436H69.6668V12.5642Z" fill="white"/>
<path d="M15.5619 27.807C14.819 27.2888 13.8494 27.0291 12.6533 27.0291H8.02272C7.65605 27.0291 7.45347 27.2151 7.41499 27.5867L5.53386 39.5657C5.51431 39.6833 5.54332 39.7909 5.62064 39.8888C5.69751 39.9869 5.7942 40.0356 5.91 40.0356H8.10951C8.49529 40.0356 8.70733 39.85 8.74625 39.4777L9.26711 36.2483C9.28613 36.0918 9.35398 35.9646 9.46978 35.8666C9.58549 35.7687 9.73021 35.7047 9.90386 35.6754C10.0775 35.6463 10.2413 35.6317 10.3959 35.6317C10.5501 35.6317 10.7333 35.6416 10.9458 35.661C11.1579 35.6806 11.2931 35.6901 11.351 35.6901C13.0102 35.6901 14.3125 35.2158 15.2581 34.2662C16.2032 33.317 16.6763 32.0008 16.6763 30.3172C16.6763 29.1623 16.3046 28.3256 15.5619 27.8066V27.807ZM13.1744 31.4039C13.0776 32.0891 12.8271 32.539 12.4219 32.7544C12.0167 32.9701 11.4379 33.0772 10.6855 33.0772L9.73039 33.1067L10.2225 29.965C10.2609 29.7499 10.3862 29.6422 10.5986 29.6422H11.1487C11.9201 29.6422 12.4799 29.755 12.8272 29.9797C13.1744 30.205 13.2902 30.6799 13.1744 31.4039Z" fill="#003087"/>
<path d="M64.4289 27.0291H62.2874C62.0747 27.0291 61.9494 27.1367 61.9112 27.352L60.0299 39.5661L60.0009 39.6248C60.0009 39.7232 60.0395 39.8157 60.1168 39.9038C60.1936 39.9917 60.2905 40.0359 60.4062 40.0359H62.3165C62.6826 40.0359 62.8852 39.8503 62.9243 39.4781L64.8055 27.4695V27.4403C64.8053 27.1664 64.6795 27.0293 64.4289 27.0293V27.0291Z" fill="#009CDE"/>
<path d="M38.5558 31.7567C38.5558 31.6591 38.517 31.5659 38.4402 31.478C38.3628 31.3899 38.276 31.3457 38.1797 31.3457H35.9513C35.7386 31.3457 35.565 31.4441 35.4302 31.6393L32.3625 36.2198L31.0892 31.8156C30.9922 31.5026 30.7802 31.3457 30.4524 31.3457H28.2816C28.1849 31.3457 28.098 31.3899 28.0213 31.478C27.9439 31.5659 27.9055 31.6592 27.9055 31.7567C27.9055 31.7962 28.0937 32.3734 28.4698 33.489C28.846 34.6049 29.2512 35.8087 29.6854 37.1007C30.1195 38.3925 30.346 39.0778 30.3655 39.1556C28.7832 41.3481 27.9924 42.5226 27.9924 42.679C27.9924 42.9337 28.1177 43.0607 28.3686 43.0607H30.5971C30.8093 43.0607 30.9828 42.9631 31.1181 42.7672L38.4982 31.9621C38.5365 31.9232 38.5558 31.855 38.5558 31.7566V31.7567Z" fill="#003087"/>
<path d="M59.307 31.3457H57.1074C56.8371 31.3457 56.6736 31.6687 56.6157 32.3147C56.1135 31.5321 55.1975 31.1401 53.866 31.1401C52.4768 31.1401 51.2949 31.6687 50.3207 32.7257C49.3462 33.7828 48.8593 35.0259 48.8593 36.4547C48.8593 37.6098 49.192 38.5296 49.8575 39.2145C50.5231 39.9 51.4154 40.2421 52.5349 40.2421C53.0943 40.2421 53.6634 40.1245 54.2422 39.8898C54.8211 39.6549 55.2741 39.3419 55.6027 38.9503C55.6027 38.9699 55.583 39.0578 55.5448 39.2143C55.5059 39.3712 55.4869 39.4889 55.4869 39.5666C55.4869 39.8802 55.612 40.0363 55.8632 40.0363H57.8603C58.2264 40.0363 58.4389 39.8507 58.4966 39.4785L59.6833 31.8154C59.7023 31.6979 59.6735 31.5904 59.5965 31.4924C59.5191 31.3948 59.4228 31.3457 59.307 31.3457ZM55.5302 37.1299C55.0382 37.6193 54.4449 37.8639 53.7504 37.8639C53.1906 37.8639 52.7376 37.7076 52.3901 37.3942C52.0426 37.0816 51.869 36.6509 51.869 36.1022C51.869 35.3785 52.1102 34.7665 52.5927 34.2673C53.0744 33.7682 53.6732 33.5186 54.387 33.5186C54.9268 33.5186 55.3755 33.6802 55.7327 34.003C56.0894 34.3259 56.2684 34.7714 56.2684 35.3391C56.2683 36.0436 56.0222 36.6408 55.5302 37.1299Z" fill="#009CDE"/>
<path d="M26.4294 31.3457H24.2299C23.9593 31.3457 23.7957 31.6687 23.7378 32.3147C23.2168 31.5321 22.3003 31.1401 20.9883 31.1401C19.5991 31.1401 18.4171 31.6687 17.4429 32.7257C16.4684 33.7828 15.9814 35.0259 15.9814 36.4547C15.9814 37.6098 16.3143 38.5296 16.98 39.2145C17.6457 39.9 18.5378 40.2421 19.657 40.2421C20.197 40.2421 20.7569 40.1245 21.3356 39.8898C21.9144 39.6549 22.3775 39.3419 22.7248 38.9503C22.6474 39.185 22.609 39.3906 22.609 39.5666C22.609 39.8802 22.7343 40.0363 22.9852 40.0363H24.9821C25.3485 40.0363 25.5609 39.8507 25.6189 39.4785L26.8054 31.8154C26.8244 31.6979 26.7955 31.5904 26.7186 31.4924C26.6414 31.3948 26.5451 31.3457 26.4294 31.3457ZM22.6525 37.1444C22.1604 37.6247 21.5572 37.8639 20.8437 37.8639C20.2839 37.8639 19.8353 37.7076 19.4979 37.3942C19.16 37.0816 18.9913 36.6509 18.9913 36.1022C18.9913 35.3785 19.2324 34.7665 19.715 34.2673C20.197 33.7682 20.7952 33.5186 21.5093 33.5186C22.0493 33.5186 22.4979 33.6801 22.8552 34.003C23.2119 34.326 23.3905 34.7715 23.3905 35.3391C23.3905 36.0633 23.1445 36.6654 22.6525 37.1444Z" fill="#003087"/>
<path d="M48.4395 27.807C47.6966 27.2888 46.7272 27.0291 45.531 27.0291H40.9292C40.5431 27.0291 40.3307 27.2151 40.2925 27.5867L38.4113 39.5657C38.3918 39.6834 38.4207 39.791 38.4981 39.8889C38.5746 39.9869 38.6716 40.0356 38.7874 40.0356H41.1605C41.392 40.0356 41.5463 39.9085 41.6236 39.654L42.1447 36.2483C42.1638 36.0918 42.2313 35.9646 42.3472 35.8666C42.463 35.7687 42.6076 35.7047 42.7814 35.6754C42.955 35.6463 43.1186 35.6317 43.2734 35.6317C43.4276 35.6317 43.6108 35.6416 43.8231 35.661C44.0353 35.6806 44.1709 35.6901 44.2283 35.6901C45.8878 35.6901 47.1899 35.2158 48.1354 34.2662C49.0809 33.317 49.5536 32.0008 49.5536 30.3172C49.5537 29.1624 49.1821 28.3257 48.4395 27.8067V27.807ZM45.473 32.6369C45.0485 32.9305 44.4117 33.0772 43.563 33.0772L42.6368 33.1067L43.1288 29.965C43.167 29.7499 43.2924 29.6422 43.5049 29.6422H44.0257C44.4501 29.6422 44.7877 29.6618 45.0389 29.7008C45.2894 29.7403 45.531 29.8623 45.7625 30.0678C45.9941 30.2734 46.1098 30.5719 46.1098 30.9634C46.1098 31.7855 45.8973 32.3432 45.473 32.6369Z" fill="#009CDE"/>
</g>
<defs>
<clipPath id="clip0_1_432">
<rect width="69" height="70" fill="white" transform="translate(0.666748)"/>
</clipPath>
</defs>
</svg>
