<svg width="32" height="33" viewBox="0 0 32 33" fill="none" xmlns="http://www.w3.org/2000/svg">
<path fill-rule="evenodd" clip-rule="evenodd" d="M16 5.5C9.92487 5.5 5 10.4249 5 16.5C5 22.5751 9.92487 27.5 16 27.5C22.0751 27.5 27 22.5751 27 16.5C27 10.4249 22.0751 5.5 16 5.5ZM3 16.5C3 9.3203 8.8203 3.5 16 3.5C23.1797 3.5 29 9.3203 29 16.5C29 23.6797 23.1797 29.5 16 29.5C8.8203 29.5 3 23.6797 3 16.5Z" fill="white"/>
<path fill-rule="evenodd" clip-rule="evenodd" d="M13.5281 11.6183C13.8533 11.4443 14.2478 11.4634 14.5547 11.668L20.5547 15.668C20.8329 15.8534 21 16.1656 21 16.5C21 16.8344 20.8329 17.1466 20.5547 17.3321L14.5547 21.3321C14.2478 21.5366 13.8533 21.5557 13.5281 21.3817C13.203 21.2077 13 20.8688 13 20.5V12.5C13 12.1312 13.203 11.7923 13.5281 11.6183ZM15 14.3685V18.6315L18.1972 16.5L15 14.3685Z" fill="white"/>
</svg>
