<svg width="40" height="40" viewBox="0 0 40 40" fill="none" xmlns="http://www.w3.org/2000/svg">
<rect width="40" height="40" rx="20" fill="white"/>
<path fill-rule="evenodd" clip-rule="evenodd" d="M28.5188 12.5969C28.933 12.5969 29.2688 12.9327 29.2688 13.3469V17.8469C29.2688 18.2611 28.933 18.5969 28.5188 18.5969H24.0188C23.6046 18.5969 23.2688 18.2611 23.2688 17.8469C23.2688 17.4327 23.6046 17.0969 24.0188 17.0969H27.7688V13.3469C27.7688 12.9327 28.1046 12.5969 28.5188 12.5969Z" fill="#B21120"/>
<path fill-rule="evenodd" clip-rule="evenodd" d="M19.5 13.0009C18.5153 13.0009 17.5404 13.195 16.6309 13.5721C15.7214 13.9492 14.8951 14.5019 14.1994 15.1987C13.9067 15.4918 13.4319 15.4921 13.1388 15.1994C12.8457 14.9068 12.8453 14.4319 13.138 14.1388C13.973 13.3025 14.9647 12.6391 16.0564 12.1865C17.148 11.7338 18.3182 11.5009 19.5 11.5009C20.6817 11.5009 21.8519 11.7338 22.9435 12.1865C24.035 12.639 25.0265 13.3023 25.8614 14.1383C25.8612 14.1381 25.8616 14.1384 25.8614 14.1383L29.0482 17.3157C29.3416 17.6082 29.3423 18.0831 29.0498 18.3764C28.7573 18.6697 28.2825 18.6704 27.9892 18.378L24.8005 15.1987C24.1048 14.5019 23.2785 13.9492 22.369 13.5721C21.4595 13.195 20.4846 13.0009 19.5 13.0009Z" fill="#B21120"/>
<path fill-rule="evenodd" clip-rule="evenodd" d="M9.7312 23.1531C9.7312 22.7389 10.067 22.4031 10.4812 22.4031H14.9812C15.3954 22.4031 15.7312 22.7389 15.7312 23.1531C15.7312 23.5673 15.3954 23.9031 14.9812 23.9031H11.2312V27.6531C11.2312 28.0673 10.8954 28.4031 10.4812 28.4031C10.067 28.4031 9.7312 28.0673 9.7312 27.6531V23.1531Z" fill="#B21120"/>
<path fill-rule="evenodd" clip-rule="evenodd" d="M9.95009 22.6235C10.2426 22.3302 10.7174 22.3295 11.0107 22.622L14.1994 25.8013C14.8951 26.498 15.7214 27.0507 16.6309 27.4278C17.5404 27.805 18.5153 27.9991 19.5 27.9991C20.4846 27.9991 21.4595 27.805 22.369 27.4278C23.2785 27.0507 24.1048 26.498 24.8005 25.8013C25.0932 25.5082 25.568 25.5078 25.8611 25.8005C26.1542 26.0932 26.1546 26.568 25.8619 26.8611C25.0269 27.6974 24.0352 28.3608 22.9435 28.8134C21.8519 29.2661 20.6817 29.4991 19.5 29.4991C18.3182 29.4991 17.148 29.2661 16.0564 28.8134C14.965 28.3609 13.9735 27.6977 13.1386 26.8618C13.1384 26.8616 13.1382 26.8614 13.138 26.8611L9.95165 23.6842C9.65833 23.3917 9.65763 22.9169 9.95009 22.6235Z" fill="#B21120"/>
</svg>
