<svg width="86" height="34" viewBox="0 0 86 34" fill="none" xmlns="http://www.w3.org/2000/svg">
<g clip-path="url(#clip0_1_450)">
<path d="M49.577 5.82157C44.9015 5.82157 42.5695 7.39108 40.7038 8.65572L40.6469 8.68959C40.4422 8.82509 40.3853 9.09609 40.5104 9.29933L42.4443 12.5851C42.5353 12.7884 42.7742 12.8787 42.979 12.7997C43.0473 12.7771 43.1041 12.7545 43.161 12.7093L43.3089 12.5964C44.2759 11.7947 45.732 10.5866 49.4633 10.293C51.5451 10.1236 53.3425 10.6769 54.6507 11.8851C56.1068 13.2175 56.9828 15.3628 56.9828 17.6211C56.9828 21.7764 54.5028 24.396 50.5099 24.4524C47.2222 24.4412 45.0153 22.7474 45.0153 20.2407C45.0153 18.9196 45.5386 17.9373 46.7331 17.0791C46.9264 16.9662 46.9947 16.7178 46.8809 16.5146C46.8809 16.5033 46.8696 16.5033 46.8696 16.492L45.2087 13.3868C45.129 13.2062 44.9243 13.1045 44.7309 13.1497C44.6626 13.161 44.6058 13.1723 44.5489 13.2062C42.6832 14.3014 40.4877 16.4016 40.6128 20.252C40.7607 25.1412 44.8788 28.8674 50.2141 29.0255H50.8284C57.1761 28.8222 61.7606 24.1589 61.7606 17.8582C61.7493 12.0093 57.4833 5.82157 49.577 5.82157ZM74.9908 22.5329C72.1127 22.5329 69.8148 20.1617 69.8148 17.2711C69.8148 14.3805 72.1013 12.0319 74.9908 12.0319C77.8803 12.0319 80.1782 14.3805 80.1782 17.2711C80.1782 20.1617 77.8803 22.5329 74.9908 22.5329ZM69.4963 9.81874V7.10879C69.5076 7.01846 69.4394 6.92813 69.3484 6.90555C69.3256 6.90555 69.3142 6.90555 69.2915 6.90555H64.616C64.5136 6.89425 64.434 6.962 64.4112 7.05234C64.4112 7.07492 64.4112 7.08621 64.4112 7.10879V33.6437C64.3998 33.7227 64.4567 33.8018 64.5364 33.8243C64.5591 33.8356 64.5819 33.8356 64.616 33.8356H69.6328C69.7352 33.8469 69.8262 33.7792 69.8375 33.6888C69.8375 33.6776 69.8375 33.655 69.8375 33.6437V24.9267H69.9172C70.7135 26.1236 72.8863 27.5689 75.7303 27.5689C81.0769 27.5689 85.5249 23.1878 85.5249 17.2598C85.5249 11.5802 81.0997 6.9733 75.4686 6.9733C72.9659 6.9733 70.8614 8.35085 69.5076 9.9994L69.4963 9.81874ZM12.2071 15.5435C12.2071 15.5435 9.78407 14.9789 8.88537 14.7531C7.98667 14.5273 6.42817 14.0304 6.42817 12.8787C6.42817 11.6818 7.67953 11.3431 8.965 11.3431C10.2505 11.3431 11.6611 11.648 11.7749 13.0481C11.7749 13.1497 11.8545 13.2288 11.9569 13.2288C11.9682 13.2288 11.9682 13.2288 11.9796 13.2288L16.6779 13.2175C16.7803 13.2288 16.8713 13.161 16.8826 13.0707C16.8826 13.0481 16.8826 13.0255 16.8826 13.0142C16.5869 8.53151 12.6167 6.92813 8.94225 6.92813C4.58528 6.92813 1.41139 9.76228 1.41139 12.9013C1.41139 15.1822 2.0712 17.3275 7.20174 18.818C8.10044 19.0777 9.32903 19.4165 10.3984 19.6988C11.6838 20.0488 12.3664 20.5795 12.3664 21.4376C12.3664 22.42 10.9103 23.0975 9.52242 23.0975C7.47476 23.0975 6.03002 22.3522 5.90488 21.0086C5.90488 20.9069 5.82525 20.8279 5.72287 20.8279C5.71149 20.8279 5.71149 20.8279 5.70012 20.8279L1.01324 20.8505C0.910854 20.8392 0.819848 20.8956 0.808472 20.9973C0.808472 21.0198 0.808472 21.0424 0.808472 21.065C1.02461 25.2993 5.15407 27.5802 9.01051 27.5802C14.744 27.5802 17.3491 24.3734 17.3491 21.3925C17.3604 19.9697 17.0419 16.763 12.2071 15.5435ZM19.8745 0.367803V27.3656C19.8631 27.4673 19.9314 27.5576 20.0224 27.5689C20.0451 27.5689 20.0565 27.5689 20.0793 27.5689H25.0961C25.1984 27.5802 25.2894 27.5124 25.3008 27.4221C25.3008 27.3995 25.3008 27.3882 25.3008 27.3656V15.8484C25.3008 13.624 26.8024 12.0319 29.2255 12.0319C31.8761 12.0319 32.5359 14.1772 32.5359 16.3678V27.3543C32.5245 27.456 32.5928 27.5463 32.6838 27.5576C32.7065 27.5576 32.7179 27.5576 32.7407 27.5576H37.7347C37.8371 27.5689 37.9281 27.5011 37.9395 27.4108C37.9395 27.3882 37.9395 27.3769 37.9395 27.3543V15.7129C37.9395 15.3177 37.9281 14.9225 37.894 14.5386C37.803 13.2965 37.4958 12.077 36.9611 10.9366C35.8008 8.54281 33.6052 6.98459 30.3062 6.98459C28.2472 7.01846 26.3247 7.98953 25.0961 9.62678L24.9709 9.77357V0.367803C24.9823 0.26618 24.914 0.175848 24.823 0.164557C24.8003 0.164557 24.7889 0.164557 24.7662 0.164557H20.0907C19.9883 0.153265 19.8973 0.221015 19.8859 0.322638C19.8745 0.333929 19.8745 0.34522 19.8745 0.367803Z" fill="#5A31F4"/>
</g>
<defs>
<clipPath id="clip0_1_450">
<rect width="85" height="34" fill="white" transform="translate(0.666748)"/>
</clipPath>
</defs>
</svg>
