<svg width="52" height="52" viewBox="0 0 52 52" fill="none" xmlns="http://www.w3.org/2000/svg">
<rect width="52" height="52" rx="26" fill="#FDF8F8"/>
<path fill-rule="evenodd" clip-rule="evenodd" d="M16.625 18.5C16.625 17.4645 17.4645 16.625 18.5 16.625H21.3125C22.348 16.625 23.1875 17.4645 23.1875 18.5V33.5C23.1875 34.5355 22.348 35.375 21.3125 35.375H18.5C17.4645 35.375 16.625 34.5355 16.625 33.5V18.5ZM21.3125 18.5H18.5V33.5H21.3125V18.5Z" fill="#B21120"/>
<path fill-rule="evenodd" clip-rule="evenodd" d="M28.8125 18.5C28.8125 17.4645 29.652 16.625 30.6875 16.625H33.5C34.5355 16.625 35.375 17.4645 35.375 18.5V33.5C35.375 34.5355 34.5355 35.375 33.5 35.375H30.6875C29.652 35.375 28.8125 34.5355 28.8125 33.5V18.5ZM33.5 18.5H30.6875V33.5H33.5V18.5Z" fill="#B21120"/>
<path fill-rule="evenodd" clip-rule="evenodd" d="M33.5 20.375C33.5 19.8572 33.9197 19.4375 34.4375 19.4375H37.25C37.7473 19.4375 38.2242 19.635 38.5758 19.9867C38.9275 20.3383 39.125 20.8152 39.125 21.3125V30.6875C39.125 31.1848 38.9275 31.6617 38.5758 32.0133C38.2242 32.365 37.7473 32.5625 37.25 32.5625H34.4375C33.9197 32.5625 33.5 32.1428 33.5 31.625C33.5 31.1072 33.9197 30.6875 34.4375 30.6875H37.25L37.25 21.3125L34.4375 21.3125C33.9197 21.3125 33.5 20.8928 33.5 20.375Z" fill="#B21120"/>
<path fill-rule="evenodd" clip-rule="evenodd" d="M13.4242 19.9867C13.7758 19.635 14.2527 19.4375 14.75 19.4375H17.5625C18.0803 19.4375 18.5 19.8572 18.5 20.375C18.5 20.8928 18.0803 21.3125 17.5625 21.3125L14.75 21.3125V30.6875H17.5625C18.0803 30.6875 18.5 31.1072 18.5 31.625C18.5 32.1428 18.0803 32.5625 17.5625 32.5625H14.75C14.2527 32.5625 13.7758 32.365 13.4242 32.0133C13.0725 31.6617 12.875 31.1848 12.875 30.6875V21.3125C12.875 20.8152 13.0725 20.3383 13.4242 19.9867Z" fill="#B21120"/>
<path fill-rule="evenodd" clip-rule="evenodd" d="M21.3125 26C21.3125 25.4822 21.7322 25.0625 22.25 25.0625H29.75C30.2678 25.0625 30.6875 25.4822 30.6875 26C30.6875 26.5178 30.2678 26.9375 29.75 26.9375H22.25C21.7322 26.9375 21.3125 26.5178 21.3125 26Z" fill="#B21120"/>
<path fill-rule="evenodd" clip-rule="evenodd" d="M37.25 26C37.25 25.4822 37.6697 25.0625 38.1875 25.0625H40.0625C40.5803 25.0625 41 25.4822 41 26C41 26.5178 40.5803 26.9375 40.0625 26.9375H38.1875C37.6697 26.9375 37.25 26.5178 37.25 26Z" fill="#B21120"/>
<path fill-rule="evenodd" clip-rule="evenodd" d="M11 26C11 25.4822 11.4197 25.0625 11.9375 25.0625H13.8125C14.3303 25.0625 14.75 25.4822 14.75 26C14.75 26.5178 14.3303 26.9375 13.8125 26.9375H11.9375C11.4197 26.9375 11 26.5178 11 26Z" fill="#B21120"/>
</svg>
