<svg width="52" height="52" viewBox="0 0 52 52" fill="none" xmlns="http://www.w3.org/2000/svg">
<rect width="52" height="52" rx="26" fill="#FDF8F8"/>
<path fill-rule="evenodd" clip-rule="evenodd" d="M18.504 20.2206C17.4462 21.223 16.1734 23.1413 14.6628 26.3949C14.4448 26.8645 13.8873 27.0685 13.4177 26.8504C12.9481 26.6324 12.7441 26.0749 12.9622 25.6053C14.4984 22.2965 15.8916 20.1131 17.2142 18.8597C17.8833 18.2256 18.5759 17.7893 19.3021 17.596C20.0471 17.3977 20.7623 17.4731 21.4197 17.7563C22.6628 18.2918 23.6488 19.549 24.4686 20.8993C25.305 22.2769 26.0847 23.9563 26.8359 25.5743L26.8503 25.6053C27.6181 27.259 28.3572 28.8483 29.1341 30.1278C29.933 31.4436 30.6608 32.2371 31.3221 32.5219C31.6168 32.6489 31.9013 32.676 32.2156 32.5923C32.5487 32.5037 32.9749 32.2735 33.496 31.7796C34.5537 30.7772 35.8265 28.859 37.3372 25.6053C37.5552 25.1357 38.1127 24.9318 38.5823 25.1498C39.0519 25.3678 39.2558 25.9253 39.0378 26.3949C37.5015 29.7038 36.1084 31.8871 34.7857 33.1405C34.1167 33.7746 33.424 34.2109 32.6979 34.4042C31.9529 34.6026 31.2377 34.5271 30.5803 34.2439C29.3372 33.7085 28.3512 32.4512 27.5314 31.1009C26.695 29.7233 25.9153 28.0439 25.1641 26.4259L25.1497 26.3949C24.3819 24.7412 23.6427 23.152 22.8659 21.8724C22.067 20.5566 21.3391 19.7631 20.6779 19.4783C20.3832 19.3514 20.0986 19.3242 19.7844 19.4079C19.4513 19.4966 19.0251 19.7268 18.504 20.2206Z" fill="#B21120"/>
</svg>
