<svg width="70" height="70" viewBox="0 0 70 70" fill="none" xmlns="http://www.w3.org/2000/svg">
<g clip-path="url(#clip0_1_452)">
<path d="M64 11.5H6C2.96243 11.5 0.5 13.9624 0.5 17V53C0.5 56.0376 2.96243 58.5 6 58.5H64C67.0376 58.5 69.5 56.0376 69.5 53V17C69.5 13.9624 67.0376 11.5 64 11.5Z" fill="white" stroke="#D9D9D9" stroke-width="2"/>
<path fill-rule="evenodd" clip-rule="evenodd" d="M21.2505 43.5165H17.0099L13.8299 31.3847C13.679 30.8267 13.3585 30.3333 12.8871 30.1008C11.7106 29.5165 10.4142 29.0514 9 28.8169V28.3498H15.8313C16.7742 28.3498 17.4813 29.0514 17.5991 29.8663L19.2491 38.6173L23.4877 28.3498H27.6104L21.2505 43.5165ZM29.9675 43.5165H25.9626L29.2604 28.3498H33.2653L29.9675 43.5165ZM38.4467 32.5514C38.5646 31.7346 39.2717 31.2675 40.0967 31.2675C41.3931 31.1502 42.8052 31.3848 43.9838 31.9671L44.6909 28.7016C43.5123 28.2345 42.216 28 41.0395 28C37.1524 28 34.3239 30.1008 34.3239 33.0165C34.3239 35.2346 36.3274 36.3992 37.7417 37.1008C39.2717 37.8004 39.861 38.2675 39.7431 38.9671C39.7431 40.0165 38.5646 40.4836 37.3881 40.4836C35.9739 40.4836 34.5596 40.1338 33.2653 39.5494L32.5582 42.8169C33.9724 43.3992 35.5025 43.6338 36.9167 43.6338C41.2752 43.749 43.9838 41.6502 43.9838 38.5C43.9838 34.5329 38.4467 34.3004 38.4467 32.5514ZM58 43.5165L54.82 28.3498H51.4044C50.6972 28.3498 49.9901 28.8169 49.7544 29.5165L43.8659 43.5165H47.9887L48.8116 41.3004H53.8772L54.3486 43.5165H58ZM51.9936 32.4342L53.1701 38.1502H49.8723L51.9936 32.4342Z" fill="#172B85"/>
</g>
<defs>
<clipPath id="clip0_1_452">
<rect width="70" height="70" fill="white"/>
</clipPath>
</defs>
</svg>
