<svg width="21" height="21" viewBox="0 0 21 21" fill="none" xmlns="http://www.w3.org/2000/svg">
<circle cx="10.5" cy="10.5" r="10.5" fill="#58AA58"/>
<path d="M15.4686 7.94911L9.54263 13.875C9.49102 13.9268 9.42969 13.9679 9.36216 13.996C9.29463 14.024 9.22223 14.0384 9.14911 14.0384C9.07599 14.0384 9.00359 14.024 8.93606 13.996C8.86854 13.9679 8.80721 13.9268 8.75559 13.875L6.163 11.2824C6.11132 11.2308 6.07033 11.1694 6.04236 11.1019C6.01439 11.0344 6 10.962 6 10.8889C6 10.8158 6.01439 10.7435 6.04236 10.676C6.07033 10.6084 6.11132 10.5471 6.163 10.4954C6.21468 10.4437 6.27603 10.4027 6.34355 10.3748C6.41107 10.3468 6.48344 10.3324 6.55652 10.3324C6.6296 10.3324 6.70197 10.3468 6.76949 10.3748C6.83701 10.4027 6.89836 10.4437 6.95004 10.4954L9.14957 12.6949L14.6824 7.163C14.7868 7.05863 14.9284 7 15.076 7C15.2236 7 15.3651 7.05863 15.4695 7.163C15.5738 7.26737 15.6325 7.40892 15.6325 7.55652C15.6325 7.70412 15.5738 7.84567 15.4695 7.95004L15.4686 7.94911Z" fill="white"/>
</svg>
