<svg width="40" height="40" viewBox="0 0 40 40" fill="none" xmlns="http://www.w3.org/2000/svg">
<rect width="40" height="40" rx="20" fill="white"/>
<path fill-rule="evenodd" clip-rule="evenodd" d="M20 11.75C15.4437 11.75 11.75 15.4437 11.75 20C11.75 24.5563 15.4437 28.25 20 28.25C24.5563 28.25 28.25 24.5563 28.25 20C28.25 15.4437 24.5563 11.75 20 11.75ZM10.25 20C10.25 14.6152 14.6152 10.25 20 10.25C25.3848 10.25 29.75 14.6152 29.75 20C29.75 25.3848 25.3848 29.75 20 29.75C14.6152 29.75 10.25 25.3848 10.25 20Z" fill="#B21120"/>
<path fill-rule="evenodd" clip-rule="evenodd" d="M20.6562 19.7072L22.7933 19.9965C23.0052 20.0216 23.2086 20.0939 23.3888 20.2082L28.4742 23.3362C28.827 23.5532 28.9371 24.0152 28.7201 24.368C28.5031 24.7208 28.0411 24.8309 27.6883 24.6139L22.5999 21.484L20.4607 21.1944L20.4599 21.1963L19.1755 24.0744L19.1743 24.0772L20.9391 25.9828C21.0965 26.1558 21.2118 26.3628 21.2761 26.5877C21.3404 26.8126 21.3518 27.0493 21.3095 27.2793L21.3078 27.2888L20.9421 29.145C20.8621 29.5514 20.4677 29.816 20.0613 29.7359C19.6549 29.6559 19.3904 29.2615 19.4704 28.8551L19.8344 27.007C19.8347 27.0046 19.8345 27.0021 19.8338 26.9998C19.8331 26.9973 19.8319 26.995 19.8302 26.993L18.0695 25.0917C17.8708 24.8754 17.74 24.6055 17.6934 24.3155C17.6468 24.0261 17.686 23.7293 17.8063 23.462L19.0873 20.5913C19.2149 20.2931 19.4369 20.0449 19.7193 19.8849C20.0035 19.724 20.3329 19.6615 20.6562 19.7072Z" fill="#B21120"/>
<path fill-rule="evenodd" clip-rule="evenodd" d="M14.3869 12.5221C14.7681 12.684 14.946 13.1243 14.7842 13.5056L13.9424 15.4884L13.9427 15.4893L15.0208 18.358L15.0244 18.3676L17.0227 18.7972C17.2463 18.8432 17.4563 18.9404 17.6362 19.081C17.8169 19.2223 17.9623 19.4036 18.061 19.6106C18.0613 19.6113 18.0616 19.612 18.0619 19.6127L18.411 20.3384C18.4125 20.3407 18.4145 20.3426 18.4168 20.3441C18.4193 20.3456 18.4221 20.3466 18.425 20.3468H19.6813C20.0955 20.3468 20.4313 20.6826 20.4313 21.0968C20.4313 21.5111 20.0955 21.8468 19.6813 21.8468H18.4157L18.4049 21.8468C18.1277 21.8428 17.8569 21.763 17.6218 21.6161C17.3867 21.4692 17.1964 21.2607 17.0713 21.0133L17.0648 21.0001L16.7109 20.2644L14.7058 19.8334C14.7057 19.8334 14.7055 19.8334 14.7054 19.8333C14.456 19.78 14.2245 19.6635 14.033 19.4951C13.8437 19.3286 13.6997 19.1169 13.6145 18.8797L12.5389 16.0178C12.5389 16.0177 12.5388 16.0175 12.5387 16.0173C12.404 15.6598 12.4108 15.2643 12.5577 14.9116L12.5597 14.9069L12.5597 14.9069L13.4034 12.9194C13.5653 12.5381 14.0056 12.3602 14.3869 12.5221Z" fill="#B21120"/>
<path fill-rule="evenodd" clip-rule="evenodd" d="M21.9336 10.6345C22.296 10.4339 22.7524 10.565 22.953 10.9274L23.8277 12.5074C23.9877 12.8018 24.0452 13.141 23.9912 13.4716C23.9372 13.8022 23.7748 14.1055 23.5295 14.3336L23.5215 14.341L21.0059 16.6134C20.9192 16.6947 20.8227 16.7649 20.7186 16.8223C20.7184 16.8224 20.7181 16.8226 20.7179 16.8227L19.566 17.4595L19.5546 17.4657C19.3424 17.5783 19.1071 17.6402 18.867 17.6466C18.8603 17.6468 18.8536 17.6469 18.8468 17.6469H16.844C16.8423 17.647 16.8407 17.6475 16.8393 17.6485C16.8379 17.6494 16.8368 17.6506 16.8361 17.6521L16.0599 19.4944C15.8991 19.8761 15.4592 20.0552 15.0775 19.8943C14.6958 19.7335 14.5167 19.2937 14.6776 18.912L15.4578 17.06C15.5739 16.7901 15.7662 16.56 16.0111 16.3978C16.2561 16.2356 16.543 16.1484 16.8368 16.1469L16.8406 16.1469L18.8309 16.1469C18.8372 16.1463 18.8434 16.1446 18.8492 16.1419L19.9862 15.5133C19.9888 15.5108 19.9914 15.5084 19.9941 15.506L22.5087 13.2344C22.5098 13.2331 22.5105 13.2316 22.5108 13.2299C22.5111 13.228 22.5109 13.2261 22.5101 13.2244L21.6407 11.6539C21.4401 11.2915 21.5712 10.8351 21.9336 10.6345Z" fill="#B21120"/>
</svg>
